  0
SECTION
  2
HEADER
  9
$MEASUREMENT
  70
  1
  9
$INSUNITS
  70
  4
  0
ENDSEC
  0
SECTION
  2
TABLES
  0
TABLE
  2
LTYPE
 70
     1
  0
LTYPE
  2
CONTINUOUS
 70
    64
  3
Ausgezogene Linie
 72
    65
 73
     0
 40
0.0
  0
ENDTAB
  0
TABLE
  2
LAYER
 70
     3
  0
LAYER
  2
Contour
 70
    64
 62
     7
  6
CONTINUOUS
  0
LAYER
  2
Engraving
 70
    64
 62
     7
  6
CONTINUOUS
  0
LAYER
  2
Reference_points
 70
    64
 62
     1
  6
CONTINUOUS
  0
ENDTAB
  0
TABLE
  2
STYLE
 70
     1
  0
STYLE
  2
TXT
 70
    64
 40
0.0
 41
1.0
 50
0.0
 71
     0
 42
3.500000
  3
TXT
  0
ENDTAB
  0
ENDSEC
  0
SECTION
  2
BLOCKS
  0
ENDSEC
  0
SECTION
  2
ENTITIES
  0
LINE
  8
Contour
 62
   7
 39
0.100
  6
CONTINUOUS
 10
80.94000
 20
128.40000
 30
 0
 11
80.94000
 21
0.00000
  0
LINE
  8
Contour
 62
   7
 39
0.100
  6
CONTINUOUS
 10
80.94000
 20
0.00000
 30
 0
 11
0.00000
 21
0.00000
  0
LINE
  8
Contour
 62
   7
 39
0.100
  6
CONTINUOUS
 10
0.00000
 20
0.00000
 30
 0
 11
0.00000
 21
128.40000
  0
LINE
  8
Contour
 62
   7
 39
0.100
  6
CONTINUOUS
 10
0.00000
 20
128.40000
 30
 0
 11
80.94000
 21
128.40000
  0
LINE
  8
Engraving
 62
   7
 39
0.400
  6
CONTINUOUS
 10
4.39952
 20
49.18653
 30
 0
 11
5.54591
 21
49.18653
  0
LINE
  8
Engraving
 62
   7
 39
0.400
  6
CONTINUOUS
 10
5.54591
 20
49.18653
 30
 0
 11
5.82551
 21
49.24245
  0
LINE
  8
Engraving
 62
   7
 39
0.400
  6
CONTINUOUS
 10
5.82551
 20
49.24245
 30
 0
 11
5.99328
 21
49.35429
  0
LINE
  8
Engraving
 62
   7
 39
0.400
  6
CONTINUOUS
 10
5.99328
 20
49.35429
 30
 0
 11
6.10512
 21
49.49409
  0
LINE
  8
Engraving
 62
   7
 39
0.400
  6
CONTINUOUS
 10
6.10512
 20
49.49409
 30
 0
 11
6.21696
 21
49.68982
  0
LINE
  8
Engraving
 62
   7
 39
0.400
  6
CONTINUOUS
 10
6.21696
 20
49.68982
 30
 0
 11
6.21696
 21
49.85758
  0
LINE
  8
Engraving
 62
   7
 39
0.400
  6
CONTINUOUS
 10
6.21696
 20
49.85758
 30
 0
 11
6.21696
 21
50.30495
  0
LINE
  8
Engraving
 62
   7
 39
0.400
  6
CONTINUOUS
 10
6.21696
 20
50.30495
 30
 0
 11
6.18900
 21
50.55660
  0
LINE
  8
Engraving
 62
   7
 39
0.400
  6
CONTINUOUS
 10
6.18900
 20
50.55660
 30
 0
 11
6.07716
 21
50.75232
  0
LINE
  8
Engraving
 62
   7
 39
0.400
  6
CONTINUOUS
 10
6.07716
 20
50.75232
 30
 0
 11
5.85347
 21
50.92009
  0
LINE
  8
Engraving
 62
   7
 39
0.400
  6
CONTINUOUS
 10
5.85347
 20
50.92009
 30
 0
 11
5.54591
 21
51.00397
  0
LINE
  8
Engraving
 62
   7
 39
0.400
  6
CONTINUOUS
 10
5.54591
 20
51.00397
 30
 0
 11
3.28109
 21
51.00397
  0
LINE
  8
Engraving
 62
   7
 39
0.400
  6
CONTINUOUS
 10
3.28109
 20
51.00397
 30
 0
 11
3.05741
 21
50.94805
  0
LINE
  8
Engraving
 62
   7
 39
0.400
  6
CONTINUOUS
 10
3.05741
 20
50.94805
 30
 0
 11
2.83372
 21
50.83620
  0
LINE
  8
Engraving
 62
   7
 39
0.400
  6
CONTINUOUS
 10
2.83372
 20
50.83620
 30
 0
 11
2.72188
 21
50.69640
  0
LINE
  8
Engraving
 62
   7
 39
0.400
  6
CONTINUOUS
 10
2.72188
 20
50.69640
 30
 0
 11
2.63800
 21
50.55660
  0
LINE
  8
Engraving
 62
   7
 39
0.400
  6
CONTINUOUS
 10
2.63800
 20
50.55660
 30
 0
 11
2.61004
 21
50.30495
  0
LINE
  8
Engraving
 62
   7
 39
0.400
  6
CONTINUOUS
 10
2.61004
 20
50.30495
 30
 0
 11
2.61004
 21
49.85758
  0
LINE
  8
Engraving
 62
   7
 39
0.400
  6
CONTINUOUS
 10
2.61004
 20
49.85758
 30
 0
 11
2.63800
 21
49.63390
  0
LINE
  8
Engraving
 62
   7
 39
0.400
  6
CONTINUOUS
 10
2.63800
 20
49.63390
 30
 0
 11
2.74984
 21
49.43817
  0
LINE
  8
Engraving
 62
   7
 39
0.400
  6
CONTINUOUS
 10
2.74984
 20
49.43817
 30
 0
 11
2.88965
 21
49.29837
  0
LINE
  8
Engraving
 62
   7
 39
0.400
  6
CONTINUOUS
 10
2.88965
 20
49.29837
 30
 0
 11
3.05741
 21
49.21449
  0
LINE
  8
Engraving
 62
   7
 39
0.400
  6
CONTINUOUS
 10
3.05741
 20
49.21449
 30
 0
 11
3.28109
 21
49.18653
  0
LINE
  8
Engraving
 62
   7
 39
0.400
  6
CONTINUOUS
 10
3.28109
 20
49.18653
 30
 0
 11
4.39952
 21
49.18653
  0
LINE
  8
Engraving
 62
   7
 39
0.400
  6
CONTINUOUS
 10
5.06957
 20
51.73149
 30
 0
 11
5.54491
 21
51.73149
  0
LINE
  8
Engraving
 62
   7
 39
0.400
  6
CONTINUOUS
 10
5.54491
 20
51.73149
 30
 0
 11
5.79655
 21
51.78741
  0
LINE
  8
Engraving
 62
   7
 39
0.400
  6
CONTINUOUS
 10
5.79655
 20
51.78741
 30
 0
 11
6.02024
 21
51.92721
  0
LINE
  8
Engraving
 62
   7
 39
0.400
  6
CONTINUOUS
 10
6.02024
 20
51.92721
 30
 0
 11
6.16004
 21
52.12294
  0
LINE
  8
Engraving
 62
   7
 39
0.400
  6
CONTINUOUS
 10
6.16004
 20
52.12294
 30
 0
 11
6.21596
 21
52.40254
  0
LINE
  8
Engraving
 62
   7
 39
0.400
  6
CONTINUOUS
 10
6.21596
 20
52.40254
 30
 0
 11
6.21596
 21
52.73807
  0
LINE
  8
Engraving
 62
   7
 39
0.400
  6
CONTINUOUS
 10
6.21596
 20
52.73807
 30
 0
 11
6.18800
 21
52.93380
  0
LINE
  8
Engraving
 62
   7
 39
0.400
  6
CONTINUOUS
 10
6.18800
 20
52.93380
 30
 0
 11
6.04820
 21
53.18544
  0
LINE
  8
Engraving
 62
   7
 39
0.400
  6
CONTINUOUS
 10
6.04820
 20
53.18544
 30
 0
 11
5.82451
 21
53.35320
  0
LINE
  8
Engraving
 62
   7
 39
0.400
  6
CONTINUOUS
 10
5.82451
 20
53.35320
 30
 0
 11
5.54491
 21
53.40913
  0
LINE
  8
Engraving
 62
   7
 39
0.400
  6
CONTINUOUS
 10
5.54491
 20
53.40913
 30
 0
 11
5.34918
 21
53.40913
  0
LINE
  8
Engraving
 62
   7
 39
0.400
  6
CONTINUOUS
 10
5.34918
 20
53.40913
 30
 0
 11
5.15346
 21
53.35320
  0
LINE
  8
Engraving
 62
   7
 39
0.400
  6
CONTINUOUS
 10
5.15346
 20
53.35320
 30
 0
 11
4.92977
 21
53.24136
  0
LINE
  8
Engraving
 62
   7
 39
0.400
  6
CONTINUOUS
 10
4.92977
 20
53.24136
 30
 0
 11
4.81793
 21
53.12952
  0
LINE
  8
Engraving
 62
   7
 39
0.400
  6
CONTINUOUS
 10
4.81793
 20
53.12952
 30
 0
 11
4.67813
 21
52.96176
  0
LINE
  8
Engraving
 62
   7
 39
0.400
  6
CONTINUOUS
 10
4.67813
 20
52.96176
 30
 0
 11
3.95115
 21
52.15090
  0
LINE
  8
Engraving
 62
   7
 39
0.400
  6
CONTINUOUS
 10
3.95115
 20
52.15090
 30
 0
 11
3.83931
 21
52.01109
  0
LINE
  8
Engraving
 62
   7
 39
0.400
  6
CONTINUOUS
 10
3.83931
 20
52.01109
 30
 0
 11
3.67154
 21
51.87129
  0
LINE
  8
Engraving
 62
   7
 39
0.400
  6
CONTINUOUS
 10
3.67154
 20
51.87129
 30
 0
 11
3.58766
 21
51.81537
  0
LINE
  8
Engraving
 62
   7
 39
0.400
  6
CONTINUOUS
 10
3.58766
 20
51.81537
 30
 0
 11
3.44786
 21
51.78741
  0
LINE
  8
Engraving
 62
   7
 39
0.400
  6
CONTINUOUS
 10
3.44786
 20
51.78741
 30
 0
 11
3.19621
 21
51.78741
  0
LINE
  8
Engraving
 62
   7
 39
0.400
  6
CONTINUOUS
 10
3.19621
 20
51.78741
 30
 0
 11
2.94457
 21
51.87129
  0
LINE
  8
Engraving
 62
   7
 39
0.400
  6
CONTINUOUS
 10
2.94457
 20
51.87129
 30
 0
 11
2.77680
 21
51.98313
  0
LINE
  8
Engraving
 62
   7
 39
0.400
  6
CONTINUOUS
 10
2.77680
 20
51.98313
 30
 0
 11
2.66496
 21
52.15090
  0
LINE
  8
Engraving
 62
   7
 39
0.400
  6
CONTINUOUS
 10
2.66496
 20
52.15090
 30
 0
 11
2.60904
 21
52.43050
  0
LINE
  8
Engraving
 62
   7
 39
0.400
  6
CONTINUOUS
 10
2.60904
 20
52.43050
 30
 0
 11
2.60904
 21
52.71011
  0
LINE
  8
Engraving
 62
   7
 39
0.400
  6
CONTINUOUS
 10
2.60904
 20
52.71011
 30
 0
 11
2.63700
 21
52.87787
  0
LINE
  8
Engraving
 62
   7
 39
0.400
  6
CONTINUOUS
 10
2.63700
 20
52.87787
 30
 0
 11
2.72088
 21
53.07360
  0
LINE
  8
Engraving
 62
   7
 39
0.400
  6
CONTINUOUS
 10
2.72088
 20
53.07360
 30
 0
 11
2.86069
 21
53.21340
  0
LINE
  8
Engraving
 62
   7
 39
0.400
  6
CONTINUOUS
 10
2.86069
 20
53.21340
 30
 0
 11
3.05641
 21
53.32524
  0
LINE
  8
Engraving
 62
   7
 39
0.400
  6
CONTINUOUS
 10
3.05641
 20
53.32524
 30
 0
 11
3.25213
 21
53.35320
  0
LINE
  8
Engraving
 62
   7
 39
0.400
  6
CONTINUOUS
 10
3.25213
 20
53.35320
 30
 0
 11
3.50378
 21
53.35320
  0
LINE
  8
Engraving
 62
   7
 39
0.400
  6
CONTINUOUS
 10
3.67154
 20
55.73024
 30
 0
 11
3.25213
 21
55.73024
  0
LINE
  8
Engraving
 62
   7
 39
0.400
  6
CONTINUOUS
 10
3.25213
 20
55.73024
 30
 0
 11
3.05641
 21
55.70228
  0
LINE
  8
Engraving
 62
   7
 39
0.400
  6
CONTINUOUS
 10
3.05641
 20
55.70228
 30
 0
 11
2.86069
 21
55.61840
  0
LINE
  8
Engraving
 62
   7
 39
0.400
  6
CONTINUOUS
 10
2.86069
 20
55.61840
 30
 0
 11
2.74884
 21
55.47860
  0
LINE
  8
Engraving
 62
   7
 39
0.400
  6
CONTINUOUS
 10
2.74884
 20
55.47860
 30
 0
 11
2.66496
 21
55.33880
  0
LINE
  8
Engraving
 62
   7
 39
0.400
  6
CONTINUOUS
 10
2.66496
 20
55.33880
 30
 0
 11
2.60904
 21
55.17103
  0
LINE
  8
Engraving
 62
   7
 39
0.400
  6
CONTINUOUS
 10
2.60904
 20
55.17103
 30
 0
 11
2.60904
 21
54.77958
  0
LINE
  8
Engraving
 62
   7
 39
0.400
  6
CONTINUOUS
 10
2.60904
 20
54.77958
 30
 0
 11
2.63700
 21
54.52794
  0
LINE
  8
Engraving
 62
   7
 39
0.400
  6
CONTINUOUS
 10
2.63700
 20
54.52794
 30
 0
 11
2.77680
 21
54.33221
  0
LINE
  8
Engraving
 62
   7
 39
0.400
  6
CONTINUOUS
 10
2.77680
 20
54.33221
 30
 0
 11
2.94457
 21
54.22037
  0
LINE
  8
Engraving
 62
   7
 39
0.400
  6
CONTINUOUS
 10
2.94457
 20
54.22037
 30
 0
 11
3.16825
 21
54.13649
  0
LINE
  8
Engraving
 62
   7
 39
0.400
  6
CONTINUOUS
 10
3.16825
 20
54.13649
 30
 0
 11
5.54491
 21
54.13649
  0
LINE
  8
Engraving
 62
   7
 39
0.400
  6
CONTINUOUS
 10
5.54491
 20
54.13649
 30
 0
 11
5.79655
 21
54.19241
  0
LINE
  8
Engraving
 62
   7
 39
0.400
  6
CONTINUOUS
 10
5.79655
 20
54.19241
 30
 0
 11
5.96431
 21
54.27629
  0
LINE
  8
Engraving
 62
   7
 39
0.400
  6
CONTINUOUS
 10
5.96431
 20
54.27629
 30
 0
 11
6.10412
 21
54.44406
  0
LINE
  8
Engraving
 62
   7
 39
0.400
  6
CONTINUOUS
 10
6.10412
 20
54.44406
 30
 0
 11
6.18800
 21
54.58386
  0
LINE
  8
Engraving
 62
   7
 39
0.400
  6
CONTINUOUS
 10
6.18800
 20
54.58386
 30
 0
 11
6.21596
 21
54.80754
  0
LINE
  8
Engraving
 62
   7
 39
0.400
  6
CONTINUOUS
 10
6.21596
 20
54.80754
 30
 0
 11
6.21596
 21
55.08715
  0
LINE
  8
Engraving
 62
   7
 39
0.400
  6
CONTINUOUS
 10
6.21596
 20
55.08715
 30
 0
 11
6.18800
 21
55.28287
  0
LINE
  8
Engraving
 62
   7
 39
0.400
  6
CONTINUOUS
 10
6.18800
 20
55.28287
 30
 0
 11
6.07616
 21
55.50656
  0
LINE
  8
Engraving
 62
   7
 39
0.400
  6
CONTINUOUS
 10
6.07616
 20
55.50656
 30
 0
 11
5.93635
 21
55.64636
  0
LINE
  8
Engraving
 62
   7
 39
0.400
  6
CONTINUOUS
 10
5.93635
 20
55.64636
 30
 0
 11
5.71267
 21
55.75820
  0
LINE
  8
Engraving
 62
   7
 39
0.400
  6
CONTINUOUS
 10
5.71267
 20
55.75820
 30
 0
 11
5.54491
 21
55.75820
  0
LINE
  8
Engraving
 62
   7
 39
0.400
  6
CONTINUOUS
 10
5.54491
 20
55.75820
 30
 0
 11
5.20938
 21
55.75820
  0
LINE
  8
Engraving
 62
   7
 39
0.400
  6
CONTINUOUS
 10
2.63700
 20
56.48549
 30
 0
 11
6.18800
 21
56.48549
  0
LINE
  8
Engraving
 62
   7
 39
0.400
  6
CONTINUOUS
 10
2.63700
 20
57.21249
 30
 0
 11
6.18800
 21
57.21249
  0
LINE
  8
Engraving
 62
   7
 39
0.400
  6
CONTINUOUS
 10
6.18800
 20
57.21249
 30
 0
 11
6.18800
 21
58.61052
  0
LINE
  8
Engraving
 62
   7
 39
0.400
  6
CONTINUOUS
 10
2.63700
 20
59.33849
 30
 0
 11
6.18800
 21
59.33849
  0
LINE
  8
Engraving
 62
   7
 39
0.400
  6
CONTINUOUS
 10
6.18800
 20
59.33849
 30
 0
 11
6.18800
 21
60.73652
  0
LINE
  8
Engraving
 62
   7
 39
0.400
  6
CONTINUOUS
 10
6.18800
 20
61.46449
 30
 0
 11
2.63700
 21
62.47107
  0
LINE
  8
Engraving
 62
   7
 39
0.400
  6
CONTINUOUS
 10
2.63700
 20
62.47107
 30
 0
 11
2.63700
 21
62.58291
  0
LINE
  8
Engraving
 62
   7
 39
0.400
  6
CONTINUOUS
 10
2.63700
 20
62.58291
 30
 0
 11
6.18800
 21
63.58950
  0
LINE
  8
Engraving
 62
   7
 39
0.400
  6
CONTINUOUS
 10
5.09754
 20
61.77206
 30
 0
 11
5.09754
 21
63.28193
  0
LINE
  8
Engraving
 62
   7
 39
0.400
  6
CONTINUOUS
 10
6.18800
 20
65.23819
 30
 0
 11
2.63700
 21
65.23819
  0
LINE
  8
Engraving
 62
   7
 39
0.400
  6
CONTINUOUS
 10
2.63700
 20
64.28753
 30
 0
 11
2.63700
 21
66.21681
  0
LINE
  8
Engraving
 62
   7
 39
0.400
  6
CONTINUOUS
 10
4.39852
 20
66.91553
 30
 0
 11
5.54491
 21
66.91553
  0
LINE
  8
Engraving
 62
   7
 39
0.400
  6
CONTINUOUS
 10
5.54491
 20
66.91553
 30
 0
 11
5.82451
 21
66.97145
  0
LINE
  8
Engraving
 62
   7
 39
0.400
  6
CONTINUOUS
 10
5.82451
 20
66.97145
 30
 0
 11
5.99228
 21
67.08329
  0
LINE
  8
Engraving
 62
   7
 39
0.400
  6
CONTINUOUS
 10
5.99228
 20
67.08329
 30
 0
 11
6.10412
 21
67.22309
  0
LINE
  8
Engraving
 62
   7
 39
0.400
  6
CONTINUOUS
 10
6.10412
 20
67.22309
 30
 0
 11
6.21596
 21
67.41882
  0
LINE
  8
Engraving
 62
   7
 39
0.400
  6
CONTINUOUS
 10
6.21596
 20
67.41882
 30
 0
 11
6.21596
 21
67.58658
  0
LINE
  8
Engraving
 62
   7
 39
0.400
  6
CONTINUOUS
 10
6.21596
 20
67.58658
 30
 0
 11
6.21596
 21
68.03395
  0
LINE
  8
Engraving
 62
   7
 39
0.400
  6
CONTINUOUS
 10
6.21596
 20
68.03395
 30
 0
 11
6.18800
 21
68.28560
  0
LINE
  8
Engraving
 62
   7
 39
0.400
  6
CONTINUOUS
 10
6.18800
 20
68.28560
 30
 0
 11
6.07616
 21
68.48132
  0
LINE
  8
Engraving
 62
   7
 39
0.400
  6
CONTINUOUS
 10
6.07616
 20
68.48132
 30
 0
 11
5.85247
 21
68.64909
  0
LINE
  8
Engraving
 62
   7
 39
0.400
  6
CONTINUOUS
 10
5.85247
 20
68.64909
 30
 0
 11
5.54491
 21
68.73297
  0
LINE
  8
Engraving
 62
   7
 39
0.400
  6
CONTINUOUS
 10
5.54491
 20
68.73297
 30
 0
 11
3.28009
 21
68.73297
  0
LINE
  8
Engraving
 62
   7
 39
0.400
  6
CONTINUOUS
 10
3.28009
 20
68.73297
 30
 0
 11
3.05641
 21
68.67705
  0
LINE
  8
Engraving
 62
   7
 39
0.400
  6
CONTINUOUS
 10
3.05641
 20
68.67705
 30
 0
 11
2.83272
 21
68.56520
  0
LINE
  8
Engraving
 62
   7
 39
0.400
  6
CONTINUOUS
 10
2.83272
 20
68.56520
 30
 0
 11
2.72088
 21
68.42540
  0
LINE
  8
Engraving
 62
   7
 39
0.400
  6
CONTINUOUS
 10
2.72088
 20
68.42540
 30
 0
 11
2.63700
 21
68.28560
  0
LINE
  8
Engraving
 62
   7
 39
0.400
  6
CONTINUOUS
 10
2.63700
 20
68.28560
 30
 0
 11
2.60904
 21
68.03395
  0
LINE
  8
Engraving
 62
   7
 39
0.400
  6
CONTINUOUS
 10
2.60904
 20
68.03395
 30
 0
 11
2.60904
 21
67.58658
  0
LINE
  8
Engraving
 62
   7
 39
0.400
  6
CONTINUOUS
 10
2.60904
 20
67.58658
 30
 0
 11
2.63700
 21
67.36290
  0
LINE
  8
Engraving
 62
   7
 39
0.400
  6
CONTINUOUS
 10
2.63700
 20
67.36290
 30
 0
 11
2.74884
 21
67.16717
  0
LINE
  8
Engraving
 62
   7
 39
0.400
  6
CONTINUOUS
 10
2.74884
 20
67.16717
 30
 0
 11
2.88865
 21
67.02737
  0
LINE
  8
Engraving
 62
   7
 39
0.400
  6
CONTINUOUS
 10
2.88865
 20
67.02737
 30
 0
 11
3.05641
 21
66.94349
  0
LINE
  8
Engraving
 62
   7
 39
0.400
  6
CONTINUOUS
 10
3.05641
 20
66.94349
 30
 0
 11
3.28009
 21
66.91553
  0
LINE
  8
Engraving
 62
   7
 39
0.400
  6
CONTINUOUS
 10
3.28009
 20
66.91553
 30
 0
 11
4.39852
 21
66.91553
  0
LINE
  8
Engraving
 62
   7
 39
0.400
  6
CONTINUOUS
 10
4.36956
 20
70.49403
 30
 0
 11
4.36956
 21
70.74568
  0
LINE
  8
Engraving
 62
   7
 39
0.400
  6
CONTINUOUS
 10
4.36956
 20
70.74568
 30
 0
 11
4.50936
 21
70.96936
  0
LINE
  8
Engraving
 62
   7
 39
0.400
  6
CONTINUOUS
 10
4.50936
 20
70.96936
 30
 0
 11
4.70509
 21
71.10917
  0
LINE
  8
Engraving
 62
   7
 39
0.400
  6
CONTINUOUS
 10
4.70509
 20
71.10917
 30
 0
 11
4.90081
 21
71.13713
  0
LINE
  8
Engraving
 62
   7
 39
0.400
  6
CONTINUOUS
 10
4.90081
 20
71.13713
 30
 0
 11
5.76759
 21
71.13713
  0
LINE
  8
Engraving
 62
   7
 39
0.400
  6
CONTINUOUS
 10
5.76759
 20
71.13713
 30
 0
 11
5.96331
 21
71.16509
  0
LINE
  8
Engraving
 62
   7
 39
0.400
  6
CONTINUOUS
 10
5.96331
 20
71.16509
 30
 0
 11
6.18700
 21
71.19305
  0
LINE
  8
Engraving
 62
   7
 39
0.400
  6
CONTINUOUS
 10
6.18700
 20
69.45949
 30
 0
 11
2.63600
 21
69.45949
  0
LINE
  8
Engraving
 62
   7
 39
0.400
  6
CONTINUOUS
 10
2.63600
 20
69.45949
 30
 0
 11
2.63600
 21
70.46607
  0
LINE
  8
Engraving
 62
   7
 39
0.400
  6
CONTINUOUS
 10
2.63600
 20
70.46607
 30
 0
 11
2.71988
 21
70.77364
  0
LINE
  8
Engraving
 62
   7
 39
0.400
  6
CONTINUOUS
 10
2.71988
 20
70.77364
 30
 0
 11
2.85969
 21
70.96936
  0
LINE
  8
Engraving
 62
   7
 39
0.400
  6
CONTINUOUS
 10
2.85969
 20
70.96936
 30
 0
 11
3.05541
 21
71.10917
  0
LINE
  8
Engraving
 62
   7
 39
0.400
  6
CONTINUOUS
 10
3.05541
 20
71.10917
 30
 0
 11
3.30706
 21
71.13713
  0
LINE
  8
Engraving
 62
   7
 39
0.400
  6
CONTINUOUS
 10
3.30706
 20
71.13713
 30
 0
 11
3.69850
 21
71.13713
  0
LINE
  8
Engraving
 62
   7
 39
0.400
  6
CONTINUOUS
 10
3.69850
 20
71.13713
 30
 0
 11
3.92219
 21
71.10917
  0
LINE
  8
Engraving
 62
   7
 39
0.400
  6
CONTINUOUS
 10
3.92219
 20
71.10917
 30
 0
 11
4.14587
 21
70.96936
  0
LINE
  8
Engraving
 62
   7
 39
0.400
  6
CONTINUOUS
 10
4.14587
 20
70.96936
 30
 0
 11
4.28568
 21
70.80160
  0
LINE
  8
Engraving
 62
   7
 39
0.400
  6
CONTINUOUS
 10
4.28568
 20
70.80160
 30
 0
 11
4.36956
 21
70.49403
  0
LINE
  8
Engraving
 62
   7
 39
0.400
  6
CONTINUOUS
 10
4.36956
 20
70.49403
 30
 0
 11
4.36956
 21
69.45949
  0
LINE
  8
Engraving
 62
   7
 39
0.400
  6
CONTINUOUS
 10
5.06857
 20
71.91949
 30
 0
 11
5.54391
 21
71.91949
  0
LINE
  8
Engraving
 62
   7
 39
0.400
  6
CONTINUOUS
 10
5.54391
 20
71.91949
 30
 0
 11
5.79555
 21
71.97541
  0
LINE
  8
Engraving
 62
   7
 39
0.400
  6
CONTINUOUS
 10
5.79555
 20
71.97541
 30
 0
 11
6.01924
 21
72.11521
  0
LINE
  8
Engraving
 62
   7
 39
0.400
  6
CONTINUOUS
 10
6.01924
 20
72.11521
 30
 0
 11
6.15904
 21
72.31094
  0
LINE
  8
Engraving
 62
   7
 39
0.400
  6
CONTINUOUS
 10
6.15904
 20
72.31094
 30
 0
 11
6.21496
 21
72.59054
  0
LINE
  8
Engraving
 62
   7
 39
0.400
  6
CONTINUOUS
 10
6.21496
 20
72.59054
 30
 0
 11
6.21496
 21
72.92607
  0
LINE
  8
Engraving
 62
   7
 39
0.400
  6
CONTINUOUS
 10
6.21496
 20
72.92607
 30
 0
 11
6.18700
 21
73.12180
  0
LINE
  8
Engraving
 62
   7
 39
0.400
  6
CONTINUOUS
 10
6.18700
 20
73.12180
 30
 0
 11
6.04720
 21
73.37344
  0
LINE
  8
Engraving
 62
   7
 39
0.400
  6
CONTINUOUS
 10
6.04720
 20
73.37344
 30
 0
 11
5.82351
 21
73.54120
  0
LINE
  8
Engraving
 62
   7
 39
0.400
  6
CONTINUOUS
 10
5.82351
 20
73.54120
 30
 0
 11
5.54391
 21
73.59713
  0
LINE
  8
Engraving
 62
   7
 39
0.400
  6
CONTINUOUS
 10
5.54391
 20
73.59713
 30
 0
 11
5.34818
 21
73.59713
  0
LINE
  8
Engraving
 62
   7
 39
0.400
  6
CONTINUOUS
 10
5.34818
 20
73.59713
 30
 0
 11
5.15246
 21
73.54120
  0
LINE
  8
Engraving
 62
   7
 39
0.400
  6
CONTINUOUS
 10
5.15246
 20
73.54120
 30
 0
 11
4.92877
 21
73.42936
  0
LINE
  8
Engraving
 62
   7
 39
0.400
  6
CONTINUOUS
 10
4.92877
 20
73.42936
 30
 0
 11
4.81693
 21
73.31752
  0
LINE
  8
Engraving
 62
   7
 39
0.400
  6
CONTINUOUS
 10
4.81693
 20
73.31752
 30
 0
 11
4.67713
 21
73.14976
  0
LINE
  8
Engraving
 62
   7
 39
0.400
  6
CONTINUOUS
 10
4.67713
 20
73.14976
 30
 0
 11
3.95015
 21
72.33890
  0
LINE
  8
Engraving
 62
   7
 39
0.400
  6
CONTINUOUS
 10
3.95015
 20
72.33890
 30
 0
 11
3.83831
 21
72.19909
  0
LINE
  8
Engraving
 62
   7
 39
0.400
  6
CONTINUOUS
 10
3.83831
 20
72.19909
 30
 0
 11
3.67054
 21
72.05929
  0
LINE
  8
Engraving
 62
   7
 39
0.400
  6
CONTINUOUS
 10
3.67054
 20
72.05929
 30
 0
 11
3.58666
 21
72.00337
  0
LINE
  8
Engraving
 62
   7
 39
0.400
  6
CONTINUOUS
 10
3.58666
 20
72.00337
 30
 0
 11
3.44686
 21
71.97541
  0
LINE
  8
Engraving
 62
   7
 39
0.400
  6
CONTINUOUS
 10
3.44686
 20
71.97541
 30
 0
 11
3.19521
 21
71.97541
  0
LINE
  8
Engraving
 62
   7
 39
0.400
  6
CONTINUOUS
 10
3.19521
 20
71.97541
 30
 0
 11
2.94357
 21
72.05929
  0
LINE
  8
Engraving
 62
   7
 39
0.400
  6
CONTINUOUS
 10
2.94357
 20
72.05929
 30
 0
 11
2.77580
 21
72.17113
  0
LINE
  8
Engraving
 62
   7
 39
0.400
  6
CONTINUOUS
 10
2.77580
 20
72.17113
 30
 0
 11
2.66396
 21
72.33890
  0
LINE
  8
Engraving
 62
   7
 39
0.400
  6
CONTINUOUS
 10
2.66396
 20
72.33890
 30
 0
 11
2.60804
 21
72.61850
  0
LINE
  8
Engraving
 62
   7
 39
0.400
  6
CONTINUOUS
 10
2.60804
 20
72.61850
 30
 0
 11
2.60804
 21
72.89811
  0
LINE
  8
Engraving
 62
   7
 39
0.400
  6
CONTINUOUS
 10
2.60804
 20
72.89811
 30
 0
 11
2.63600
 21
73.06587
  0
LINE
  8
Engraving
 62
   7
 39
0.400
  6
CONTINUOUS
 10
2.63600
 20
73.06587
 30
 0
 11
2.71988
 21
73.26160
  0
LINE
  8
Engraving
 62
   7
 39
0.400
  6
CONTINUOUS
 10
2.71988
 20
73.26160
 30
 0
 11
2.85969
 21
73.40140
  0
LINE
  8
Engraving
 62
   7
 39
0.400
  6
CONTINUOUS
 10
2.85969
 20
73.40140
 30
 0
 11
3.05541
 21
73.51324
  0
LINE
  8
Engraving
 62
   7
 39
0.400
  6
CONTINUOUS
 10
3.05541
 20
73.51324
 30
 0
 11
3.25113
 21
73.54120
  0
LINE
  8
Engraving
 62
   7
 39
0.400
  6
CONTINUOUS
 10
3.25113
 20
73.54120
 30
 0
 11
3.50278
 21
73.54120
  0
LINE
  8
Engraving
 62
   7
 39
0.400
  6
CONTINUOUS
 10
24.24035
 20
64.78200
 30
 0
 11
24.24035
 21
62.21900
  0
LINE
  8
Engraving
 62
   7
 39
0.400
  6
CONTINUOUS
 10
24.24035
 20
62.21900
 30
 0
 11
25.24941
 21
62.21900
  0
LINE
  8
Engraving
 62
   7
 39
0.400
  6
CONTINUOUS
 10
25.77435
 20
64.78200
 30
 0
 11
26.50087
 21
62.21900
  0
LINE
  8
Engraving
 62
   7
 39
0.400
  6
CONTINUOUS
 10
26.50087
 20
62.21900
 30
 0
 11
27.22739
 21
64.78200
  0
LINE
  8
Engraving
 62
   7
 39
0.400
  6
CONTINUOUS
 10
27.75135
 20
64.78200
 30
 0
 11
27.75135
 21
62.21900
  0
LINE
  8
Engraving
 62
   7
 39
0.400
  6
CONTINUOUS
 10
27.75135
 20
62.21900
 30
 0
 11
28.76041
 21
62.21900
  0
LINE
  8
Engraving
 62
   7
 39
0.400
  6
CONTINUOUS
 10
24.24035
 20
17.78200
 30
 0
 11
24.24035
 21
15.21900
  0
LINE
  8
Engraving
 62
   7
 39
0.400
  6
CONTINUOUS
 10
24.24035
 20
15.21900
 30
 0
 11
25.24941
 21
15.21900
  0
LINE
  8
Engraving
 62
   7
 39
0.400
  6
CONTINUOUS
 10
25.77435
 20
17.78200
 30
 0
 11
26.50087
 21
15.21900
  0
LINE
  8
Engraving
 62
   7
 39
0.400
  6
CONTINUOUS
 10
26.50087
 20
15.21900
 30
 0
 11
27.22739
 21
17.78200
  0
LINE
  8
Engraving
 62
   7
 39
0.400
  6
CONTINUOUS
 10
27.75135
 20
17.78200
 30
 0
 11
27.75135
 21
15.21900
  0
LINE
  8
Engraving
 62
   7
 39
0.400
  6
CONTINUOUS
 10
27.75135
 20
15.21900
 30
 0
 11
28.76041
 21
15.21900
  0
LINE
  8
Engraving
 62
   7
 39
0.400
  6
CONTINUOUS
 10
42.89633
 20
15.21900
 30
 0
 11
42.89633
 21
17.78200
  0
LINE
  8
Engraving
 62
   7
 39
0.400
  6
CONTINUOUS
 10
42.21017
 20
17.78200
 30
 0
 11
43.60267
 21
17.78200
  0
LINE
  8
Engraving
 62
   7
 39
0.400
  6
CONTINUOUS
 10
44.12835
 20
17.78200
 30
 0
 11
44.12835
 21
15.70335
  0
LINE
  8
Engraving
 62
   7
 39
0.400
  6
CONTINUOUS
 10
44.12835
 20
15.70335
 30
 0
 11
44.18890
 21
15.46117
  0
LINE
  8
Engraving
 62
   7
 39
0.400
  6
CONTINUOUS
 10
44.18890
 20
15.46117
 30
 0
 11
44.26962
 21
15.34009
  0
LINE
  8
Engraving
 62
   7
 39
0.400
  6
CONTINUOUS
 10
44.26962
 20
15.34009
 30
 0
 11
44.43107
 21
15.23918
  0
LINE
  8
Engraving
 62
   7
 39
0.400
  6
CONTINUOUS
 10
44.43107
 20
15.23918
 30
 0
 11
44.63288
 21
15.19882
  0
LINE
  8
Engraving
 62
   7
 39
0.400
  6
CONTINUOUS
 10
44.63288
 20
15.19882
 30
 0
 11
44.89524
 21
15.19882
  0
LINE
  8
Engraving
 62
   7
 39
0.400
  6
CONTINUOUS
 10
44.89524
 20
15.19882
 30
 0
 11
45.05669
 21
15.21900
  0
LINE
  8
Engraving
 62
   7
 39
0.400
  6
CONTINUOUS
 10
45.05669
 20
15.21900
 30
 0
 11
45.23831
 21
15.31991
  0
LINE
  8
Engraving
 62
   7
 39
0.400
  6
CONTINUOUS
 10
45.23831
 20
15.31991
 30
 0
 11
45.37958
 21
15.50154
  0
LINE
  8
Engraving
 62
   7
 39
0.400
  6
CONTINUOUS
 10
45.37958
 20
15.50154
 30
 0
 11
45.41994
 21
15.70335
  0
LINE
  8
Engraving
 62
   7
 39
0.400
  6
CONTINUOUS
 10
45.41994
 20
15.70335
 30
 0
 11
45.41994
 21
17.78200
  0
LINE
  8
Engraving
 62
   7
 39
0.400
  6
CONTINUOUS
 10
45.92417
 20
15.22000
 30
 0
 11
45.92417
 21
17.78300
  0
LINE
  8
Engraving
 62
   7
 39
0.400
  6
CONTINUOUS
 10
45.92417
 20
17.78300
 30
 0
 11
46.10580
 21
17.78300
  0
LINE
  8
Engraving
 62
   7
 39
0.400
  6
CONTINUOUS
 10
46.10580
 20
17.78300
 30
 0
 11
47.31667
 21
15.22000
  0
LINE
  8
Engraving
 62
   7
 39
0.400
  6
CONTINUOUS
 10
47.31667
 20
15.22000
 30
 0
 11
47.31667
 21
17.78300
  0
LINE
  8
Engraving
 62
   7
 39
0.400
  6
CONTINUOUS
 10
48.87059
 20
17.78300
 30
 0
 11
47.82117
 21
17.78300
  0
LINE
  8
Engraving
 62
   7
 39
0.400
  6
CONTINUOUS
 10
47.82117
 20
17.78300
 30
 0
 11
47.82117
 21
15.22000
  0
LINE
  8
Engraving
 62
   7
 39
0.400
  6
CONTINUOUS
 10
47.82117
 20
15.22000
 30
 0
 11
48.89077
 21
15.22000
  0
LINE
  8
Engraving
 62
   7
 39
0.400
  6
CONTINUOUS
 10
48.83023
 20
16.53177
 30
 0
 11
47.82117
 21
16.53177
  0
LINE
  8
Engraving
 62
   7
 39
0.400
  6
CONTINUOUS
 10
62.33235
 20
17.78200
 30
 0
 11
62.33235
 21
15.21900
  0
LINE
  8
Engraving
 62
   7
 39
0.400
  6
CONTINUOUS
 10
62.83717
 20
15.21900
 30
 0
 11
62.83717
 21
17.78200
  0
LINE
  8
Engraving
 62
   7
 39
0.400
  6
CONTINUOUS
 10
62.83717
 20
17.78200
 30
 0
 11
63.01880
 21
17.78200
  0
LINE
  8
Engraving
 62
   7
 39
0.400
  6
CONTINUOUS
 10
63.01880
 20
17.78200
 30
 0
 11
64.22967
 21
15.21900
  0
LINE
  8
Engraving
 62
   7
 39
0.400
  6
CONTINUOUS
 10
64.22967
 20
15.21900
 30
 0
 11
64.22967
 21
17.78200
  0
LINE
  8
Engraving
 62
   7
 39
0.400
  6
CONTINUOUS
 10
71.57817
 20
16.51059
 30
 0
 11
71.57817
 21
15.68317
  0
LINE
  8
Engraving
 62
   7
 39
0.400
  6
CONTINUOUS
 10
71.57817
 20
15.68317
 30
 0
 11
71.61854
 21
15.48135
  0
LINE
  8
Engraving
 62
   7
 39
0.400
  6
CONTINUOUS
 10
71.61854
 20
15.48135
 30
 0
 11
71.69926
 21
15.36027
  0
LINE
  8
Engraving
 62
   7
 39
0.400
  6
CONTINUOUS
 10
71.69926
 20
15.36027
 30
 0
 11
71.80017
 21
15.27954
  0
LINE
  8
Engraving
 62
   7
 39
0.400
  6
CONTINUOUS
 10
71.80017
 20
15.27954
 30
 0
 11
71.94143
 21
15.19882
  0
LINE
  8
Engraving
 62
   7
 39
0.400
  6
CONTINUOUS
 10
71.94143
 20
15.19882
 30
 0
 11
72.06252
 21
15.19882
  0
LINE
  8
Engraving
 62
   7
 39
0.400
  6
CONTINUOUS
 10
72.06252
 20
15.19882
 30
 0
 11
72.38542
 21
15.19882
  0
LINE
  8
Engraving
 62
   7
 39
0.400
  6
CONTINUOUS
 10
72.38542
 20
15.19882
 30
 0
 11
72.56705
 21
15.21900
  0
LINE
  8
Engraving
 62
   7
 39
0.400
  6
CONTINUOUS
 10
72.56705
 20
15.21900
 30
 0
 11
72.70831
 21
15.29972
  0
LINE
  8
Engraving
 62
   7
 39
0.400
  6
CONTINUOUS
 10
72.70831
 20
15.29972
 30
 0
 11
72.82940
 21
15.46117
  0
LINE
  8
Engraving
 62
   7
 39
0.400
  6
CONTINUOUS
 10
72.82940
 20
15.46117
 30
 0
 11
72.88994
 21
15.68317
  0
LINE
  8
Engraving
 62
   7
 39
0.400
  6
CONTINUOUS
 10
72.88994
 20
15.68317
 30
 0
 11
72.88994
 21
17.31783
  0
LINE
  8
Engraving
 62
   7
 39
0.400
  6
CONTINUOUS
 10
72.88994
 20
17.31783
 30
 0
 11
72.84958
 21
17.47928
  0
LINE
  8
Engraving
 62
   7
 39
0.400
  6
CONTINUOUS
 10
72.84958
 20
17.47928
 30
 0
 11
72.76886
 21
17.64073
  0
LINE
  8
Engraving
 62
   7
 39
0.400
  6
CONTINUOUS
 10
72.76886
 20
17.64073
 30
 0
 11
72.66795
 21
17.72146
  0
LINE
  8
Engraving
 62
   7
 39
0.400
  6
CONTINUOUS
 10
72.66795
 20
17.72146
 30
 0
 11
72.56705
 21
17.78200
  0
LINE
  8
Engraving
 62
   7
 39
0.400
  6
CONTINUOUS
 10
72.56705
 20
17.78200
 30
 0
 11
72.38542
 21
17.80218
  0
LINE
  8
Engraving
 62
   7
 39
0.400
  6
CONTINUOUS
 10
72.38542
 20
17.80218
 30
 0
 11
72.06252
 21
17.80218
  0
LINE
  8
Engraving
 62
   7
 39
0.400
  6
CONTINUOUS
 10
72.06252
 20
17.80218
 30
 0
 11
71.90107
 21
17.78200
  0
LINE
  8
Engraving
 62
   7
 39
0.400
  6
CONTINUOUS
 10
71.90107
 20
17.78200
 30
 0
 11
71.75980
 21
17.70128
  0
LINE
  8
Engraving
 62
   7
 39
0.400
  6
CONTINUOUS
 10
71.75980
 20
17.70128
 30
 0
 11
71.65890
 21
17.60037
  0
LINE
  8
Engraving
 62
   7
 39
0.400
  6
CONTINUOUS
 10
71.65890
 20
17.60037
 30
 0
 11
71.59835
 21
17.47928
  0
LINE
  8
Engraving
 62
   7
 39
0.400
  6
CONTINUOUS
 10
71.59835
 20
17.47928
 30
 0
 11
71.57817
 21
17.31783
  0
LINE
  8
Engraving
 62
   7
 39
0.400
  6
CONTINUOUS
 10
71.57817
 20
17.31783
 30
 0
 11
71.57817
 21
16.51059
  0
LINE
  8
Engraving
 62
   7
 39
0.400
  6
CONTINUOUS
 10
73.41535
 20
17.78200
 30
 0
 11
73.41535
 21
15.70335
  0
LINE
  8
Engraving
 62
   7
 39
0.400
  6
CONTINUOUS
 10
73.41535
 20
15.70335
 30
 0
 11
73.47590
 21
15.46117
  0
LINE
  8
Engraving
 62
   7
 39
0.400
  6
CONTINUOUS
 10
73.47590
 20
15.46117
 30
 0
 11
73.55662
 21
15.34009
  0
LINE
  8
Engraving
 62
   7
 39
0.400
  6
CONTINUOUS
 10
73.55662
 20
15.34009
 30
 0
 11
73.71807
 21
15.23918
  0
LINE
  8
Engraving
 62
   7
 39
0.400
  6
CONTINUOUS
 10
73.71807
 20
15.23918
 30
 0
 11
73.91988
 21
15.19882
  0
LINE
  8
Engraving
 62
   7
 39
0.400
  6
CONTINUOUS
 10
73.91988
 20
15.19882
 30
 0
 11
74.18224
 21
15.19882
  0
LINE
  8
Engraving
 62
   7
 39
0.400
  6
CONTINUOUS
 10
74.18224
 20
15.19882
 30
 0
 11
74.34369
 21
15.21900
  0
LINE
  8
Engraving
 62
   7
 39
0.400
  6
CONTINUOUS
 10
74.34369
 20
15.21900
 30
 0
 11
74.52531
 21
15.31991
  0
LINE
  8
Engraving
 62
   7
 39
0.400
  6
CONTINUOUS
 10
74.52531
 20
15.31991
 30
 0
 11
74.66658
 21
15.50154
  0
LINE
  8
Engraving
 62
   7
 39
0.400
  6
CONTINUOUS
 10
74.66658
 20
15.50154
 30
 0
 11
74.70694
 21
15.70335
  0
LINE
  8
Engraving
 62
   7
 39
0.400
  6
CONTINUOUS
 10
74.70694
 20
15.70335
 30
 0
 11
74.70694
 21
17.78200
  0
LINE
  8
Engraving
 62
   7
 39
0.400
  6
CONTINUOUS
 10
75.89733
 20
15.22000
 30
 0
 11
75.89733
 21
17.78300
  0
LINE
  8
Engraving
 62
   7
 39
0.400
  6
CONTINUOUS
 10
75.21117
 20
17.78300
 30
 0
 11
76.60367
 21
17.78300
  0
LINE
  8
Engraving
 62
   7
 39
0.400
  6
CONTINUOUS
 10
27.93867
 20
5.02949
 30
 0
 11
28.51456
 21
3.79475
  0
LINE
  8
Engraving
 62
   7
 39
0.400
  6
CONTINUOUS
 10
28.51456
 20
3.79475
 30
 0
 11
28.56861
 21
3.67481
  0
LINE
  8
Engraving
 62
   7
 39
0.400
  6
CONTINUOUS
 10
28.56861
 20
3.67481
 30
 0
 11
28.57655
 21
3.65759
  0
LINE
  8
Engraving
 62
   7
 39
0.400
  6
CONTINUOUS
 10
28.57655
 20
3.65759
 30
 0
 11
28.57655
 21
3.65759
  0
LINE
  8
Engraving
 62
   7
 39
0.400
  6
CONTINUOUS
 10
28.57655
 20
3.65759
 30
 0
 11
28.70235
 21
3.41688
  0
LINE
  8
Engraving
 62
   7
 39
0.400
  6
CONTINUOUS
 10
28.70235
 20
3.41688
 30
 0
 11
28.73005
 21
3.37430
  0
LINE
  8
Engraving
 62
   7
 39
0.400
  6
CONTINUOUS
 10
28.73005
 20
3.37430
 30
 0
 11
28.73182
 21
3.23741
  0
LINE
  8
Engraving
 62
   7
 39
0.400
  6
CONTINUOUS
 10
28.73182
 20
3.23741
 30
 0
 11
28.73182
 21
2.94158
  0
LINE
  8
Engraving
 62
   7
 39
0.400
  6
CONTINUOUS
 10
28.73182
 20
2.94158
 30
 0
 11
28.73182
 21
1.98123
  0
LINE
  8
Engraving
 62
   7
 39
0.400
  6
CONTINUOUS
 10
29.52497
 20
5.02949
 30
 0
 11
28.96901
 21
3.84620
  0
LINE
  8
Engraving
 62
   7
 39
0.400
  6
CONTINUOUS
 10
28.96901
 20
3.84620
 30
 0
 11
28.81436
 21
3.51608
  0
LINE
  8
Engraving
 62
   7
 39
0.400
  6
CONTINUOUS
 10
28.81436
 20
3.51608
 30
 0
 11
28.72850
 21
3.37752
  0
LINE
  8
Engraving
 62
   7
 39
0.400
  6
CONTINUOUS
 10
30.81908
 20
4.16160
 30
 0
 11
30.99823
 21
4.15870
  0
LINE
  8
Engraving
 62
   7
 39
0.400
  6
CONTINUOUS
 10
30.99823
 20
4.15870
 30
 0
 11
31.03277
 21
4.15235
  0
LINE
  8
Engraving
 62
   7
 39
0.400
  6
CONTINUOUS
 10
31.03277
 20
4.15235
 30
 0
 11
31.19561
 21
4.09384
  0
LINE
  8
Engraving
 62
   7
 39
0.400
  6
CONTINUOUS
 10
31.19561
 20
4.09384
 30
 0
 11
31.22577
 21
4.07706
  0
LINE
  8
Engraving
 62
   7
 39
0.400
  6
CONTINUOUS
 10
31.22577
 20
4.07706
 30
 0
 11
31.22577
 21
4.07706
  0
LINE
  8
Engraving
 62
   7
 39
0.400
  6
CONTINUOUS
 10
31.22577
 20
4.07706
 30
 0
 11
31.28275
 21
4.03905
  0
LINE
  8
Engraving
 62
   7
 39
0.400
  6
CONTINUOUS
 10
31.28275
 20
4.03905
 30
 0
 11
31.33551
 21
3.99501
  0
LINE
  8
Engraving
 62
   7
 39
0.400
  6
CONTINUOUS
 10
31.33551
 20
3.99501
 30
 0
 11
31.38354
 21
3.94526
  0
LINE
  8
Engraving
 62
   7
 39
0.400
  6
CONTINUOUS
 10
31.38354
 20
3.94526
 30
 0
 11
31.42637
 21
3.89010
  0
LINE
  8
Engraving
 62
   7
 39
0.400
  6
CONTINUOUS
 10
31.42637
 20
3.89010
 30
 0
 11
31.46350
 21
3.82983
  0
LINE
  8
Engraving
 62
   7
 39
0.400
  6
CONTINUOUS
 10
31.46350
 20
3.82983
 30
 0
 11
31.49445
 21
3.76474
  0
LINE
  8
Engraving
 62
   7
 39
0.400
  6
CONTINUOUS
 10
31.49445
 20
3.76474
 30
 0
 11
31.50865
 21
3.72809
  0
LINE
  8
Engraving
 62
   7
 39
0.400
  6
CONTINUOUS
 10
31.50865
 20
3.72809
 30
 0
 11
31.51306
 21
3.71576
  0
LINE
  8
Engraving
 62
   7
 39
0.400
  6
CONTINUOUS
 10
31.51306
 20
3.71576
 30
 0
 11
31.51306
 21
3.71576
  0
LINE
  8
Engraving
 62
   7
 39
0.400
  6
CONTINUOUS
 10
31.51306
 20
3.71576
 30
 0
 11
31.54203
 21
3.61919
  0
LINE
  8
Engraving
 62
   7
 39
0.400
  6
CONTINUOUS
 10
31.54203
 20
3.61919
 30
 0
 11
31.56337
 21
3.52045
  0
LINE
  8
Engraving
 62
   7
 39
0.400
  6
CONTINUOUS
 10
31.56337
 20
3.52045
 30
 0
 11
31.56337
 21
3.52045
  0
LINE
  8
Engraving
 62
   7
 39
0.400
  6
CONTINUOUS
 10
31.56337
 20
3.52045
 30
 0
 11
31.57713
 21
3.43258
  0
LINE
  8
Engraving
 62
   7
 39
0.400
  6
CONTINUOUS
 10
31.57713
 20
3.43258
 30
 0
 11
31.58733
 21
3.34459
  0
LINE
  8
Engraving
 62
   7
 39
0.400
  6
CONTINUOUS
 10
31.58733
 20
3.34459
 30
 0
 11
31.60021
 21
3.12594
  0
LINE
  8
Engraving
 62
   7
 39
0.400
  6
CONTINUOUS
 10
31.60021
 20
3.12594
 30
 0
 11
31.60376
 21
2.98820
  0
LINE
  8
Engraving
 62
   7
 39
0.400
  6
CONTINUOUS
 10
31.60376
 20
2.98820
 30
 0
 11
31.60337
 21
2.97559
  0
LINE
  8
Engraving
 62
   7
 39
0.400
  6
CONTINUOUS
 10
31.60337
 20
2.97559
 30
 0
 11
31.60337
 21
2.97559
  0
LINE
  8
Engraving
 62
   7
 39
0.400
  6
CONTINUOUS
 10
31.60337
 20
2.97559
 30
 0
 11
31.59715
 21
2.86486
  0
LINE
  8
Engraving
 62
   7
 39
0.400
  6
CONTINUOUS
 10
31.59715
 20
2.86486
 30
 0
 11
31.59557
 21
2.84298
  0
LINE
  8
Engraving
 62
   7
 39
0.400
  6
CONTINUOUS
 10
31.59557
 20
2.84298
 30
 0
 11
31.56860
 21
2.61145
  0
LINE
  8
Engraving
 62
   7
 39
0.400
  6
CONTINUOUS
 10
31.56860
 20
2.61145
 30
 0
 11
31.55992
 21
2.56468
  0
LINE
  8
Engraving
 62
   7
 39
0.400
  6
CONTINUOUS
 10
31.55992
 20
2.56468
 30
 0
 11
31.55992
 21
2.56468
  0
LINE
  8
Engraving
 62
   7
 39
0.400
  6
CONTINUOUS
 10
31.55992
 20
2.56468
 30
 0
 11
31.53370
 21
2.45575
  0
LINE
  8
Engraving
 62
   7
 39
0.400
  6
CONTINUOUS
 10
31.53370
 20
2.45575
 30
 0
 11
31.49807
 21
2.35083
  0
LINE
  8
Engraving
 62
   7
 39
0.400
  6
CONTINUOUS
 10
31.49807
 20
2.35083
 30
 0
 11
31.45136
 21
2.25236
  0
LINE
  8
Engraving
 62
   7
 39
0.400
  6
CONTINUOUS
 10
31.45136
 20
2.25236
 30
 0
 11
31.39190
 21
2.16278
  0
LINE
  8
Engraving
 62
   7
 39
0.400
  6
CONTINUOUS
 10
31.39190
 20
2.16278
 30
 0
 11
31.39190
 21
2.16278
  0
LINE
  8
Engraving
 62
   7
 39
0.400
  6
CONTINUOUS
 10
31.39190
 20
2.16278
 30
 0
 11
31.29307
 21
2.06385
  0
LINE
  8
Engraving
 62
   7
 39
0.400
  6
CONTINUOUS
 10
31.29307
 20
2.06385
 30
 0
 11
31.16635
 21
1.98935
  0
LINE
  8
Engraving
 62
   7
 39
0.400
  6
CONTINUOUS
 10
31.16635
 20
1.98935
 30
 0
 11
31.07875
 21
1.96046
  0
LINE
  8
Engraving
 62
   7
 39
0.400
  6
CONTINUOUS
 10
31.07875
 20
1.96046
 30
 0
 11
31.06886
 21
1.95810
  0
LINE
  8
Engraving
 62
   7
 39
0.400
  6
CONTINUOUS
 10
31.06886
 20
1.95810
 30
 0
 11
31.06886
 21
1.95810
  0
LINE
  8
Engraving
 62
   7
 39
0.400
  6
CONTINUOUS
 10
31.06886
 20
1.95810
 30
 0
 11
30.97535
 21
1.94197
  0
LINE
  8
Engraving
 62
   7
 39
0.400
  6
CONTINUOUS
 10
30.97535
 20
1.94197
 30
 0
 11
30.95628
 21
1.93967
  0
LINE
  8
Engraving
 62
   7
 39
0.400
  6
CONTINUOUS
 10
30.95628
 20
1.93967
 30
 0
 11
30.86317
 21
1.93562
  0
LINE
  8
Engraving
 62
   7
 39
0.400
  6
CONTINUOUS
 10
30.86317
 20
1.93562
 30
 0
 11
30.85293
 21
1.93591
  0
LINE
  8
Engraving
 62
   7
 39
0.400
  6
CONTINUOUS
 10
30.85293
 20
1.93591
 30
 0
 11
30.85293
 21
1.93591
  0
LINE
  8
Engraving
 62
   7
 39
0.400
  6
CONTINUOUS
 10
30.85293
 20
1.93591
 30
 0
 11
30.76062
 21
1.94337
  0
LINE
  8
Engraving
 62
   7
 39
0.400
  6
CONTINUOUS
 10
30.76062
 20
1.94337
 30
 0
 11
30.74191
 21
1.94567
  0
LINE
  8
Engraving
 62
   7
 39
0.400
  6
CONTINUOUS
 10
30.74191
 20
1.94567
 30
 0
 11
30.67241
 21
1.95925
  0
LINE
  8
Engraving
 62
   7
 39
0.400
  6
CONTINUOUS
 10
30.67241
 20
1.95925
 30
 0
 11
30.66490
 21
1.96126
  0
LINE
  8
Engraving
 62
   7
 39
0.400
  6
CONTINUOUS
 10
30.66490
 20
1.96126
 30
 0
 11
30.66490
 21
1.96126
  0
LINE
  8
Engraving
 62
   7
 39
0.400
  6
CONTINUOUS
 10
30.66490
 20
1.96126
 30
 0
 11
30.60053
 21
1.98206
  0
LINE
  8
Engraving
 62
   7
 39
0.400
  6
CONTINUOUS
 10
30.60053
 20
1.98206
 30
 0
 11
30.58757
 21
1.98689
  0
LINE
  8
Engraving
 62
   7
 39
0.400
  6
CONTINUOUS
 10
30.58757
 20
1.98689
 30
 0
 11
30.47149
 21
2.04814
  0
LINE
  8
Engraving
 62
   7
 39
0.400
  6
CONTINUOUS
 10
30.47149
 20
2.04814
 30
 0
 11
30.43793
 21
2.07376
  0
LINE
  8
Engraving
 62
   7
 39
0.400
  6
CONTINUOUS
 10
30.43793
 20
2.07376
 30
 0
 11
30.40680
 21
2.10170
  0
LINE
  8
Engraving
 62
   7
 39
0.400
  6
CONTINUOUS
 10
30.40680
 20
2.10170
 30
 0
 11
30.37798
 21
2.13179
  0
LINE
  8
Engraving
 62
   7
 39
0.400
  6
CONTINUOUS
 10
30.37798
 20
2.13179
 30
 0
 11
30.37798
 21
2.13179
  0
LINE
  8
Engraving
 62
   7
 39
0.400
  6
CONTINUOUS
 10
30.37798
 20
2.13179
 30
 0
 11
30.31531
 21
2.21569
  0
LINE
  8
Engraving
 62
   7
 39
0.400
  6
CONTINUOUS
 10
30.31531
 20
2.21569
 30
 0
 11
30.26525
 21
2.30945
  0
LINE
  8
Engraving
 62
   7
 39
0.400
  6
CONTINUOUS
 10
30.26525
 20
2.30945
 30
 0
 11
30.22635
 21
2.41042
  0
LINE
  8
Engraving
 62
   7
 39
0.400
  6
CONTINUOUS
 10
30.22635
 20
2.41042
 30
 0
 11
30.19715
 21
2.51596
  0
LINE
  8
Engraving
 62
   7
 39
0.400
  6
CONTINUOUS
 10
30.19715
 20
2.51596
 30
 0
 11
30.19715
 21
2.51596
  0
LINE
  8
Engraving
 62
   7
 39
0.400
  6
CONTINUOUS
 10
30.19715
 20
2.51596
 30
 0
 11
30.16922
 21
2.67072
  0
LINE
  8
Engraving
 62
   7
 39
0.400
  6
CONTINUOUS
 10
30.16922
 20
2.67072
 30
 0
 11
30.15406
 21
2.82154
  0
LINE
  8
Engraving
 62
   7
 39
0.400
  6
CONTINUOUS
 10
30.15406
 20
2.82154
 30
 0
 11
30.14598
 21
3.06163
  0
LINE
  8
Engraving
 62
   7
 39
0.400
  6
CONTINUOUS
 10
30.14598
 20
3.06163
 30
 0
 11
30.16414
 21
3.41457
  0
LINE
  8
Engraving
 62
   7
 39
0.400
  6
CONTINUOUS
 10
30.16414
 20
3.41457
 30
 0
 11
30.17126
 21
3.46663
  0
LINE
  8
Engraving
 62
   7
 39
0.400
  6
CONTINUOUS
 10
30.17126
 20
3.46663
 30
 0
 11
30.17126
 21
3.46663
  0
LINE
  8
Engraving
 62
   7
 39
0.400
  6
CONTINUOUS
 10
30.17126
 20
3.46663
 30
 0
 11
30.19605
 21
3.59445
  0
LINE
  8
Engraving
 62
   7
 39
0.400
  6
CONTINUOUS
 10
30.19605
 20
3.59445
 30
 0
 11
30.23277
 21
3.71748
  0
LINE
  8
Engraving
 62
   7
 39
0.400
  6
CONTINUOUS
 10
30.23277
 20
3.71748
 30
 0
 11
30.28367
 21
3.83242
  0
LINE
  8
Engraving
 62
   7
 39
0.400
  6
CONTINUOUS
 10
30.28367
 20
3.83242
 30
 0
 11
30.35100
 21
3.93595
  0
LINE
  8
Engraving
 62
   7
 39
0.400
  6
CONTINUOUS
 10
30.35100
 20
3.93595
 30
 0
 11
30.35100
 21
3.93595
  0
LINE
  8
Engraving
 62
   7
 39
0.400
  6
CONTINUOUS
 10
30.35100
 20
3.93595
 30
 0
 11
30.43206
 21
4.02060
  0
LINE
  8
Engraving
 62
   7
 39
0.400
  6
CONTINUOUS
 10
30.43206
 20
4.02060
 30
 0
 11
30.53184
 21
4.08918
  0
LINE
  8
Engraving
 62
   7
 39
0.400
  6
CONTINUOUS
 10
30.53184
 20
4.08918
 30
 0
 11
30.64820
 21
4.13379
  0
LINE
  8
Engraving
 62
   7
 39
0.400
  6
CONTINUOUS
 10
30.64820
 20
4.13379
 30
 0
 11
30.66144
 21
4.13702
  0
LINE
  8
Engraving
 62
   7
 39
0.400
  6
CONTINUOUS
 10
30.66144
 20
4.13702
 30
 0
 11
30.66144
 21
4.13702
  0
LINE
  8
Engraving
 62
   7
 39
0.400
  6
CONTINUOUS
 10
30.66144
 20
4.13702
 30
 0
 11
30.79226
 21
4.15835
  0
LINE
  8
Engraving
 62
   7
 39
0.400
  6
CONTINUOUS
 10
30.79226
 20
4.15835
 30
 0
 11
30.81908
 21
4.16160
  0
LINE
  8
Engraving
 62
   7
 39
0.400
  6
CONTINUOUS
 10
32.54622
 20
1.98123
 30
 0
 11
32.54622
 21
2.98874
  0
LINE
  8
Engraving
 62
   7
 39
0.400
  6
CONTINUOUS
 10
32.54622
 20
2.98874
 30
 0
 11
32.55039
 21
3.31029
  0
LINE
  8
Engraving
 62
   7
 39
0.400
  6
CONTINUOUS
 10
32.55039
 20
3.31029
 30
 0
 11
32.56536
 21
3.39669
  0
LINE
  8
Engraving
 62
   7
 39
0.400
  6
CONTINUOUS
 10
32.56536
 20
3.39669
 30
 0
 11
32.56820
 21
3.40810
  0
LINE
  8
Engraving
 62
   7
 39
0.400
  6
CONTINUOUS
 10
32.56820
 20
3.40810
 30
 0
 11
32.56820
 21
3.40810
  0
LINE
  8
Engraving
 62
   7
 39
0.400
  6
CONTINUOUS
 10
32.56820
 20
3.40810
 30
 0
 11
32.62233
 21
3.55268
  0
LINE
  8
Engraving
 62
   7
 39
0.400
  6
CONTINUOUS
 10
32.62233
 20
3.55268
 30
 0
 11
32.63918
 21
3.58896
  0
LINE
  8
Engraving
 62
   7
 39
0.400
  6
CONTINUOUS
 10
32.63918
 20
3.58896
 30
 0
 11
32.64753
 21
3.60702
  0
LINE
  8
Engraving
 62
   7
 39
0.400
  6
CONTINUOUS
 10
32.64753
 20
3.60702
 30
 0
 11
32.65618
 21
3.62494
  0
LINE
  8
Engraving
 62
   7
 39
0.400
  6
CONTINUOUS
 10
32.65618
 20
3.62494
 30
 0
 11
32.65618
 21
3.62494
  0
LINE
  8
Engraving
 62
   7
 39
0.400
  6
CONTINUOUS
 10
32.65618
 20
3.62494
 30
 0
 11
32.80533
 21
3.85406
  0
LINE
  8
Engraving
 62
   7
 39
0.400
  6
CONTINUOUS
 10
32.80533
 20
3.85406
 30
 0
 11
33.00620
 21
4.03361
  0
LINE
  8
Engraving
 62
   7
 39
0.400
  6
CONTINUOUS
 10
33.00620
 20
4.03361
 30
 0
 11
33.00620
 21
4.03361
  0
LINE
  8
Engraving
 62
   7
 39
0.400
  6
CONTINUOUS
 10
33.00620
 20
4.03361
 30
 0
 11
33.16347
 21
4.11404
  0
LINE
  8
Engraving
 62
   7
 39
0.400
  6
CONTINUOUS
 10
33.16347
 20
4.11404
 30
 0
 11
33.33937
 21
4.15782
  0
LINE
  8
Engraving
 62
   7
 39
0.400
  6
CONTINUOUS
 10
33.33937
 20
4.15782
 30
 0
 11
33.49468
 21
4.16084
  0
LINE
  8
Engraving
 62
   7
 39
0.400
  6
CONTINUOUS
 10
33.49468
 20
4.16084
 30
 0
 11
33.51169
 21
4.15950
  0
LINE
  8
Engraving
 62
   7
 39
0.400
  6
CONTINUOUS
 10
33.51169
 20
4.15950
 30
 0
 11
33.51169
 21
4.15950
  0
LINE
  8
Engraving
 62
   7
 39
0.400
  6
CONTINUOUS
 10
33.51169
 20
4.15950
 30
 0
 11
33.67505
 21
4.13831
  0
LINE
  8
Engraving
 62
   7
 39
0.400
  6
CONTINUOUS
 10
33.67505
 20
4.13831
 30
 0
 11
33.70807
 21
4.13345
  0
LINE
  8
Engraving
 62
   7
 39
0.400
  6
CONTINUOUS
 10
32.54622
 20
4.12059
 30
 0
 11
32.54962
 21
3.26916
  0
LINE
  8
Engraving
 62
   7
 39
0.400
  6
CONTINUOUS
 10
34.56060
 20
5.10666
 30
 0
 11
34.56060
 21
1.98123
  0
LINE
  8
Engraving
 62
   7
 39
0.400
  6
CONTINUOUS
 10
35.85536
 20
1.96409
 30
 0
 11
35.82926
 21
1.97434
  0
LINE
  8
Engraving
 62
   7
 39
0.400
  6
CONTINUOUS
 10
35.82926
 20
1.97434
 30
 0
 11
35.82592
 21
1.97640
  0
LINE
  8
Engraving
 62
   7
 39
0.400
  6
CONTINUOUS
 10
35.82592
 20
1.97640
 30
 0
 11
35.82592
 21
1.97640
  0
LINE
  8
Engraving
 62
   7
 39
0.400
  6
CONTINUOUS
 10
35.82592
 20
1.97640
 30
 0
 11
35.78903
 21
2.00844
  0
LINE
  8
Engraving
 62
   7
 39
0.400
  6
CONTINUOUS
 10
35.78903
 20
2.00844
 30
 0
 11
35.78190
 21
2.01539
  0
LINE
  8
Engraving
 62
   7
 39
0.400
  6
CONTINUOUS
 10
35.78190
 20
2.01539
 30
 0
 11
35.78190
 21
2.01539
  0
LINE
  8
Engraving
 62
   7
 39
0.400
  6
CONTINUOUS
 10
35.78190
 20
2.01539
 30
 0
 11
35.77793
 21
2.01913
  0
LINE
  8
Engraving
 62
   7
 39
0.400
  6
CONTINUOUS
 10
35.77793
 20
2.01913
 30
 0
 11
35.77390
 21
2.02280
  0
LINE
  8
Engraving
 62
   7
 39
0.400
  6
CONTINUOUS
 10
35.77390
 20
2.02280
 30
 0
 11
35.59812
 21
2.18618
  0
LINE
  8
Engraving
 62
   7
 39
0.400
  6
CONTINUOUS
 10
35.59812
 20
2.18618
 30
 0
 11
35.31917
 21
2.44680
  0
LINE
  8
Engraving
 62
   7
 39
0.400
  6
CONTINUOUS
 10
35.31917
 20
2.44680
 30
 0
 11
35.28838
 21
2.47601
  0
LINE
  8
Engraving
 62
   7
 39
0.400
  6
CONTINUOUS
 10
35.28838
 20
2.47601
 30
 0
 11
35.28838
 21
2.47601
  0
LINE
  8
Engraving
 62
   7
 39
0.400
  6
CONTINUOUS
 10
35.28838
 20
2.47601
 30
 0
 11
34.97947
 21
2.76363
  0
LINE
  8
Engraving
 62
   7
 39
0.400
  6
CONTINUOUS
 10
34.97947
 20
2.76363
 30
 0
 11
34.91644
 21
2.81969
  0
LINE
  8
Engraving
 62
   7
 39
0.400
  6
CONTINUOUS
 10
34.91644
 20
2.81969
 30
 0
 11
34.69399
 21
3.01352
  0
LINE
  8
Engraving
 62
   7
 39
0.400
  6
CONTINUOUS
 10
34.69399
 20
3.01352
 30
 0
 11
34.67736
 21
3.02439
  0
LINE
  8
Engraving
 62
   7
 39
0.400
  6
CONTINUOUS
 10
34.67736
 20
3.02439
 30
 0
 11
34.66055
 21
3.03473
  0
LINE
  8
Engraving
 62
   7
 39
0.400
  6
CONTINUOUS
 10
34.66055
 20
3.03473
 30
 0
 11
34.64350
 21
3.04454
  0
LINE
  8
Engraving
 62
   7
 39
0.400
  6
CONTINUOUS
 10
34.64350
 20
3.04454
 30
 0
 11
34.64350
 21
3.04454
  0
LINE
  8
Engraving
 62
   7
 39
0.400
  6
CONTINUOUS
 10
34.64350
 20
3.04454
 30
 0
 11
34.58397
 21
3.07378
  0
LINE
  8
Engraving
 62
   7
 39
0.400
  6
CONTINUOUS
 10
34.58397
 20
3.07378
 30
 0
 11
34.56308
 21
3.08230
  0
LINE
  8
Engraving
 62
   7
 39
0.400
  6
CONTINUOUS
 10
34.56308
 20
3.08230
 30
 0
 11
34.77762
 21
3.22421
  0
LINE
  8
Engraving
 62
   7
 39
0.400
  6
CONTINUOUS
 10
34.77762
 20
3.22421
 30
 0
 11
34.79523
 21
3.23908
  0
LINE
  8
Engraving
 62
   7
 39
0.400
  6
CONTINUOUS
 10
34.79523
 20
3.23908
 30
 0
 11
34.91303
 21
3.34276
  0
LINE
  8
Engraving
 62
   7
 39
0.400
  6
CONTINUOUS
 10
34.91303
 20
3.34276
 30
 0
 11
34.92931
 21
3.35686
  0
LINE
  8
Engraving
 62
   7
 39
0.400
  6
CONTINUOUS
 10
34.92931
 20
3.35686
 30
 0
 11
35.59383
 21
3.93075
  0
LINE
  8
Engraving
 62
   7
 39
0.400
  6
CONTINUOUS
 10
35.59383
 20
3.93075
 30
 0
 11
35.69926
 21
4.02999
  0
LINE
  8
Engraving
 62
   7
 39
0.400
  6
CONTINUOUS
 10
35.69926
 20
4.02999
 30
 0
 11
35.71170
 21
4.04146
  0
LINE
  8
Engraving
 62
   7
 39
0.400
  6
CONTINUOUS
 10
35.71170
 20
4.04146
 30
 0
 11
35.71170
 21
4.04146
  0
LINE
  8
Engraving
 62
   7
 39
0.400
  6
CONTINUOUS
 10
35.71170
 20
4.04146
 30
 0
 11
35.79887
 21
4.11014
  0
LINE
  8
Engraving
 62
   7
 39
0.400
  6
CONTINUOUS
 10
35.79887
 20
4.11014
 30
 0
 11
35.82967
 21
4.12766
  0
LINE
  8
Engraving
 62
   7
 39
0.400
  6
CONTINUOUS
 10
35.82967
 20
4.12766
 30
 0
 11
35.86141
 21
4.14117
  0
LINE
  8
Engraving
 62
   7
 39
0.400
  6
CONTINUOUS
 10
35.86141
 20
4.14117
 30
 0
 11
35.89412
 21
4.14989
  0
LINE
  8
Engraving
 62
   7
 39
0.400
  6
CONTINUOUS
 10
35.89412
 20
4.14989
 30
 0
 11
35.89412
 21
4.14989
  0
LINE
  8
Engraving
 62
   7
 39
0.400
  6
CONTINUOUS
 10
35.89412
 20
4.14989
 30
 0
 11
35.89618
 21
4.15025
  0
LINE
  8
Engraving
 62
   7
 39
0.400
  6
CONTINUOUS
 10
35.89618
 20
4.15025
 30
 0
 11
35.89823
 21
4.15060
  0
LINE
  8
Engraving
 62
   7
 39
0.400
  6
CONTINUOUS
 10
38.67511
 20
1.98123
 30
 0
 11
38.67511
 21
4.30065
  0
LINE
  8
Engraving
 62
   7
 39
0.400
  6
CONTINUOUS
 10
38.67511
 20
4.30065
 30
 0
 11
38.67511
 21
4.85800
  0
LINE
  8
Engraving
 62
   7
 39
0.400
  6
CONTINUOUS
 10
38.67511
 20
4.85800
 30
 0
 11
38.67244
 21
4.92015
  0
LINE
  8
Engraving
 62
   7
 39
0.400
  6
CONTINUOUS
 10
38.67244
 20
4.92015
 30
 0
 11
38.67235
 21
4.93090
  0
LINE
  8
Engraving
 62
   7
 39
0.400
  6
CONTINUOUS
 10
38.67235
 20
4.93090
 30
 0
 11
38.67235
 21
4.93090
  0
LINE
  8
Engraving
 62
   7
 39
0.400
  6
CONTINUOUS
 10
38.67235
 20
4.93090
 30
 0
 11
38.68393
 21
4.99870
  0
LINE
  8
Engraving
 62
   7
 39
0.400
  6
CONTINUOUS
 10
38.68393
 20
4.99870
 30
 0
 11
38.69533
 21
5.01126
  0
LINE
  8
Engraving
 62
   7
 39
0.400
  6
CONTINUOUS
 10
38.69533
 20
5.01126
 30
 0
 11
38.69533
 21
5.01126
  0
LINE
  8
Engraving
 62
   7
 39
0.400
  6
CONTINUOUS
 10
38.69533
 20
5.01126
 30
 0
 11
38.71361
 21
5.01511
  0
LINE
  8
Engraving
 62
   7
 39
0.400
  6
CONTINUOUS
 10
38.71361
 20
5.01511
 30
 0
 11
38.73924
 21
5.00628
  0
LINE
  8
Engraving
 62
   7
 39
0.400
  6
CONTINUOUS
 10
38.73924
 20
5.00628
 30
 0
 11
38.73986
 21
5.00594
  0
LINE
  8
Engraving
 62
   7
 39
0.400
  6
CONTINUOUS
 10
38.73986
 20
5.00594
 30
 0
 11
38.74048
 21
5.00559
  0
LINE
  8
Engraving
 62
   7
 39
0.400
  6
CONTINUOUS
 10
38.74048
 20
5.00559
 30
 0
 11
38.74048
 21
5.00559
  0
LINE
  8
Engraving
 62
   7
 39
0.400
  6
CONTINUOUS
 10
38.74048
 20
5.00559
 30
 0
 11
38.76188
 21
4.98133
  0
LINE
  8
Engraving
 62
   7
 39
0.400
  6
CONTINUOUS
 10
38.76188
 20
4.98133
 30
 0
 11
38.77511
 21
4.94630
  0
LINE
  8
Engraving
 62
   7
 39
0.400
  6
CONTINUOUS
 10
38.77511
 20
4.94630
 30
 0
 11
38.77511
 21
4.94630
  0
LINE
  8
Engraving
 62
   7
 39
0.400
  6
CONTINUOUS
 10
38.77511
 20
4.94630
 30
 0
 11
38.78223
 21
4.91735
  0
LINE
  8
Engraving
 62
   7
 39
0.400
  6
CONTINUOUS
 10
38.78223
 20
4.91735
 30
 0
 11
38.78843
 21
4.89230
  0
LINE
  8
Engraving
 62
   7
 39
0.400
  6
CONTINUOUS
 10
38.78843
 20
4.89230
 30
 0
 11
38.88275
 21
4.57932
  0
LINE
  8
Engraving
 62
   7
 39
0.400
  6
CONTINUOUS
 10
38.88275
 20
4.57932
 30
 0
 11
39.25832
 21
3.33173
  0
LINE
  8
Engraving
 62
   7
 39
0.400
  6
CONTINUOUS
 10
39.25832
 20
3.33173
 30
 0
 11
39.37332
 21
2.95016
  0
LINE
  8
Engraving
 62
   7
 39
0.400
  6
CONTINUOUS
 10
39.37332
 20
2.95016
 30
 0
 11
39.38359
 21
2.90764
  0
LINE
  8
Engraving
 62
   7
 39
0.400
  6
CONTINUOUS
 10
39.38359
 20
2.90764
 30
 0
 11
39.38526
 21
2.90110
  0
LINE
  8
Engraving
 62
   7
 39
0.400
  6
CONTINUOUS
 10
39.38526
 20
2.90110
 30
 0
 11
39.38526
 21
2.90110
  0
LINE
  8
Engraving
 62
   7
 39
0.400
  6
CONTINUOUS
 10
39.38526
 20
2.90110
 30
 0
 11
39.40623
 21
2.85271
  0
LINE
  8
Engraving
 62
   7
 39
0.400
  6
CONTINUOUS
 10
39.40623
 20
2.85271
 30
 0
 11
39.41755
 21
2.84196
  0
LINE
  8
Engraving
 62
   7
 39
0.400
  6
CONTINUOUS
 10
39.41755
 20
2.84196
 30
 0
 11
39.41755
 21
2.84196
  0
LINE
  8
Engraving
 62
   7
 39
0.400
  6
CONTINUOUS
 10
39.41755
 20
2.84196
 30
 0
 11
39.42891
 21
2.83646
  0
LINE
  8
Engraving
 62
   7
 39
0.400
  6
CONTINUOUS
 10
39.42891
 20
2.83646
 30
 0
 11
39.44253
 21
2.83442
  0
LINE
  8
Engraving
 62
   7
 39
0.400
  6
CONTINUOUS
 10
39.44253
 20
2.83442
 30
 0
 11
39.46980
 21
2.84150
  0
LINE
  8
Engraving
 62
   7
 39
0.400
  6
CONTINUOUS
 10
39.46980
 20
2.84150
 30
 0
 11
39.47408
 21
2.84447
  0
LINE
  8
Engraving
 62
   7
 39
0.400
  6
CONTINUOUS
 10
39.47408
 20
2.84447
 30
 0
 11
39.47408
 21
2.84447
  0
LINE
  8
Engraving
 62
   7
 39
0.400
  6
CONTINUOUS
 10
39.47408
 20
2.84447
 30
 0
 11
39.50015
 21
2.88797
  0
LINE
  8
Engraving
 62
   7
 39
0.400
  6
CONTINUOUS
 10
39.50015
 20
2.88797
 30
 0
 11
39.50527
 21
2.90613
  0
LINE
  8
Engraving
 62
   7
 39
0.400
  6
CONTINUOUS
 10
39.50527
 20
2.90613
 30
 0
 11
39.50527
 21
2.90613
  0
LINE
  8
Engraving
 62
   7
 39
0.400
  6
CONTINUOUS
 10
39.50527
 20
2.90613
 30
 0
 11
39.51066
 21
2.92895
  0
LINE
  8
Engraving
 62
   7
 39
0.400
  6
CONTINUOUS
 10
39.51066
 20
2.92895
 30
 0
 11
39.51603
 21
2.95016
  0
LINE
  8
Engraving
 62
   7
 39
0.400
  6
CONTINUOUS
 10
39.51603
 20
2.95016
 30
 0
 11
39.62970
 21
3.32744
  0
LINE
  8
Engraving
 62
   7
 39
0.400
  6
CONTINUOUS
 10
39.62970
 20
3.32744
 30
 0
 11
40.00660
 21
4.57932
  0
LINE
  8
Engraving
 62
   7
 39
0.400
  6
CONTINUOUS
 10
40.00660
 20
4.57932
 30
 0
 11
40.10262
 21
4.89658
  0
LINE
  8
Engraving
 62
   7
 39
0.400
  6
CONTINUOUS
 10
40.10262
 20
4.89658
 30
 0
 11
40.11402
 21
4.94252
  0
LINE
  8
Engraving
 62
   7
 39
0.400
  6
CONTINUOUS
 10
40.11402
 20
4.94252
 30
 0
 11
40.11551
 21
4.94809
  0
LINE
  8
Engraving
 62
   7
 39
0.400
  6
CONTINUOUS
 10
40.11551
 20
4.94809
 30
 0
 11
40.11551
 21
4.94809
  0
LINE
  8
Engraving
 62
   7
 39
0.400
  6
CONTINUOUS
 10
40.11551
 20
4.94809
 30
 0
 11
40.13988
 21
4.99834
  0
LINE
  8
Engraving
 62
   7
 39
0.400
  6
CONTINUOUS
 10
40.13988
 20
4.99834
 30
 0
 11
40.14759
 21
5.00469
  0
LINE
  8
Engraving
 62
   7
 39
0.400
  6
CONTINUOUS
 10
40.14759
 20
5.00469
 30
 0
 11
40.14759
 21
5.00469
  0
LINE
  8
Engraving
 62
   7
 39
0.400
  6
CONTINUOUS
 10
40.14759
 20
5.00469
 30
 0
 11
40.14890
 21
5.00551
  0
LINE
  8
Engraving
 62
   7
 39
0.400
  6
CONTINUOUS
 10
40.14890
 20
5.00551
 30
 0
 11
40.15025
 21
5.00628
  0
LINE
  8
Engraving
 62
   7
 39
0.400
  6
CONTINUOUS
 10
40.15025
 20
5.00628
 30
 0
 11
40.19065
 21
5.01444
  0
LINE
  8
Engraving
 62
   7
 39
0.400
  6
CONTINUOUS
 10
40.19065
 20
5.01444
 30
 0
 11
40.19626
 21
5.01182
  0
LINE
  8
Engraving
 62
   7
 39
0.400
  6
CONTINUOUS
 10
40.19626
 20
5.01182
 30
 0
 11
40.19626
 21
5.01182
  0
LINE
  8
Engraving
 62
   7
 39
0.400
  6
CONTINUOUS
 10
40.19626
 20
5.01182
 30
 0
 11
40.21927
 21
4.95692
  0
LINE
  8
Engraving
 62
   7
 39
0.400
  6
CONTINUOUS
 10
40.21927
 20
4.95692
 30
 0
 11
40.22066
 21
4.93148
  0
LINE
  8
Engraving
 62
   7
 39
0.400
  6
CONTINUOUS
 10
40.22066
 20
4.93148
 30
 0
 11
40.22066
 21
4.93148
  0
LINE
  8
Engraving
 62
   7
 39
0.400
  6
CONTINUOUS
 10
40.22066
 20
4.93148
 30
 0
 11
40.21978
 21
4.88972
  0
LINE
  8
Engraving
 62
   7
 39
0.400
  6
CONTINUOUS
 10
40.21978
 20
4.88972
 30
 0
 11
40.21853
 21
4.85800
  0
LINE
  8
Engraving
 62
   7
 39
0.400
  6
CONTINUOUS
 10
40.21853
 20
4.85800
 30
 0
 11
40.21853
 21
4.30065
  0
LINE
  8
Engraving
 62
   7
 39
0.400
  6
CONTINUOUS
 10
40.21853
 20
4.30065
 30
 0
 11
40.21853
 21
1.98123
  0
LINE
  8
Engraving
 62
   7
 39
0.400
  6
CONTINUOUS
 10
41.53408
 20
4.16160
 30
 0
 11
41.71323
 21
4.15870
  0
LINE
  8
Engraving
 62
   7
 39
0.400
  6
CONTINUOUS
 10
41.71323
 20
4.15870
 30
 0
 11
41.74777
 21
4.15235
  0
LINE
  8
Engraving
 62
   7
 39
0.400
  6
CONTINUOUS
 10
41.74777
 20
4.15235
 30
 0
 11
41.91061
 21
4.09384
  0
LINE
  8
Engraving
 62
   7
 39
0.400
  6
CONTINUOUS
 10
41.91061
 20
4.09384
 30
 0
 11
41.94077
 21
4.07706
  0
LINE
  8
Engraving
 62
   7
 39
0.400
  6
CONTINUOUS
 10
41.94077
 20
4.07706
 30
 0
 11
41.94077
 21
4.07706
  0
LINE
  8
Engraving
 62
   7
 39
0.400
  6
CONTINUOUS
 10
41.94077
 20
4.07706
 30
 0
 11
41.99775
 21
4.03905
  0
LINE
  8
Engraving
 62
   7
 39
0.400
  6
CONTINUOUS
 10
41.99775
 20
4.03905
 30
 0
 11
42.05051
 21
3.99501
  0
LINE
  8
Engraving
 62
   7
 39
0.400
  6
CONTINUOUS
 10
42.05051
 20
3.99501
 30
 0
 11
42.09854
 21
3.94526
  0
LINE
  8
Engraving
 62
   7
 39
0.400
  6
CONTINUOUS
 10
42.09854
 20
3.94526
 30
 0
 11
42.14137
 21
3.89010
  0
LINE
  8
Engraving
 62
   7
 39
0.400
  6
CONTINUOUS
 10
42.14137
 20
3.89010
 30
 0
 11
42.17850
 21
3.82983
  0
LINE
  8
Engraving
 62
   7
 39
0.400
  6
CONTINUOUS
 10
42.17850
 20
3.82983
 30
 0
 11
42.20945
 21
3.76474
  0
LINE
  8
Engraving
 62
   7
 39
0.400
  6
CONTINUOUS
 10
42.20945
 20
3.76474
 30
 0
 11
42.22365
 21
3.72809
  0
LINE
  8
Engraving
 62
   7
 39
0.400
  6
CONTINUOUS
 10
42.22365
 20
3.72809
 30
 0
 11
42.22806
 21
3.71576
  0
LINE
  8
Engraving
 62
   7
 39
0.400
  6
CONTINUOUS
 10
42.22806
 20
3.71576
 30
 0
 11
42.22806
 21
3.71576
  0
LINE
  8
Engraving
 62
   7
 39
0.400
  6
CONTINUOUS
 10
42.22806
 20
3.71576
 30
 0
 11
42.25703
 21
3.61919
  0
LINE
  8
Engraving
 62
   7
 39
0.400
  6
CONTINUOUS
 10
42.25703
 20
3.61919
 30
 0
 11
42.27837
 21
3.52045
  0
LINE
  8
Engraving
 62
   7
 39
0.400
  6
CONTINUOUS
 10
42.27837
 20
3.52045
 30
 0
 11
42.27837
 21
3.52045
  0
LINE
  8
Engraving
 62
   7
 39
0.400
  6
CONTINUOUS
 10
42.27837
 20
3.52045
 30
 0
 11
42.29213
 21
3.43258
  0
LINE
  8
Engraving
 62
   7
 39
0.400
  6
CONTINUOUS
 10
42.29213
 20
3.43258
 30
 0
 11
42.30233
 21
3.34459
  0
LINE
  8
Engraving
 62
   7
 39
0.400
  6
CONTINUOUS
 10
42.30233
 20
3.34459
 30
 0
 11
42.31521
 21
3.12594
  0
LINE
  8
Engraving
 62
   7
 39
0.400
  6
CONTINUOUS
 10
42.31521
 20
3.12594
 30
 0
 11
42.31876
 21
2.98820
  0
LINE
  8
Engraving
 62
   7
 39
0.400
  6
CONTINUOUS
 10
42.31876
 20
2.98820
 30
 0
 11
42.31837
 21
2.97559
  0
LINE
  8
Engraving
 62
   7
 39
0.400
  6
CONTINUOUS
 10
42.31837
 20
2.97559
 30
 0
 11
42.31837
 21
2.97559
  0
LINE
  8
Engraving
 62
   7
 39
0.400
  6
CONTINUOUS
 10
42.31837
 20
2.97559
 30
 0
 11
42.31215
 21
2.86486
  0
LINE
  8
Engraving
 62
   7
 39
0.400
  6
CONTINUOUS
 10
42.31215
 20
2.86486
 30
 0
 11
42.31057
 21
2.84298
  0
LINE
  8
Engraving
 62
   7
 39
0.400
  6
CONTINUOUS
 10
42.31057
 20
2.84298
 30
 0
 11
42.28360
 21
2.61145
  0
LINE
  8
Engraving
 62
   7
 39
0.400
  6
CONTINUOUS
 10
42.28360
 20
2.61145
 30
 0
 11
42.27492
 21
2.56468
  0
LINE
  8
Engraving
 62
   7
 39
0.400
  6
CONTINUOUS
 10
42.27492
 20
2.56468
 30
 0
 11
42.27492
 21
2.56468
  0
LINE
  8
Engraving
 62
   7
 39
0.400
  6
CONTINUOUS
 10
42.27492
 20
2.56468
 30
 0
 11
42.24870
 21
2.45575
  0
LINE
  8
Engraving
 62
   7
 39
0.400
  6
CONTINUOUS
 10
42.24870
 20
2.45575
 30
 0
 11
42.21307
 21
2.35083
  0
LINE
  8
Engraving
 62
   7
 39
0.400
  6
CONTINUOUS
 10
42.21307
 20
2.35083
 30
 0
 11
42.16636
 21
2.25236
  0
LINE
  8
Engraving
 62
   7
 39
0.400
  6
CONTINUOUS
 10
42.16636
 20
2.25236
 30
 0
 11
42.10690
 21
2.16278
  0
LINE
  8
Engraving
 62
   7
 39
0.400
  6
CONTINUOUS
 10
42.10690
 20
2.16278
 30
 0
 11
42.10690
 21
2.16278
  0
LINE
  8
Engraving
 62
   7
 39
0.400
  6
CONTINUOUS
 10
42.10690
 20
2.16278
 30
 0
 11
42.00807
 21
2.06385
  0
LINE
  8
Engraving
 62
   7
 39
0.400
  6
CONTINUOUS
 10
42.00807
 20
2.06385
 30
 0
 11
41.88135
 21
1.98935
  0
LINE
  8
Engraving
 62
   7
 39
0.400
  6
CONTINUOUS
 10
41.88135
 20
1.98935
 30
 0
 11
41.79375
 21
1.96046
  0
LINE
  8
Engraving
 62
   7
 39
0.400
  6
CONTINUOUS
 10
41.79375
 20
1.96046
 30
 0
 11
41.78386
 21
1.95810
  0
LINE
  8
Engraving
 62
   7
 39
0.400
  6
CONTINUOUS
 10
41.78386
 20
1.95810
 30
 0
 11
41.78386
 21
1.95810
  0
LINE
  8
Engraving
 62
   7
 39
0.400
  6
CONTINUOUS
 10
41.78386
 20
1.95810
 30
 0
 11
41.69035
 21
1.94197
  0
LINE
  8
Engraving
 62
   7
 39
0.400
  6
CONTINUOUS
 10
41.69035
 20
1.94197
 30
 0
 11
41.67128
 21
1.93967
  0
LINE
  8
Engraving
 62
   7
 39
0.400
  6
CONTINUOUS
 10
41.67128
 20
1.93967
 30
 0
 11
41.57817
 21
1.93562
  0
LINE
  8
Engraving
 62
   7
 39
0.400
  6
CONTINUOUS
 10
41.57817
 20
1.93562
 30
 0
 11
41.56793
 21
1.93591
  0
LINE
  8
Engraving
 62
   7
 39
0.400
  6
CONTINUOUS
 10
41.56793
 20
1.93591
 30
 0
 11
41.56793
 21
1.93591
  0
LINE
  8
Engraving
 62
   7
 39
0.400
  6
CONTINUOUS
 10
41.56793
 20
1.93591
 30
 0
 11
41.47562
 21
1.94337
  0
LINE
  8
Engraving
 62
   7
 39
0.400
  6
CONTINUOUS
 10
41.47562
 20
1.94337
 30
 0
 11
41.45691
 21
1.94567
  0
LINE
  8
Engraving
 62
   7
 39
0.400
  6
CONTINUOUS
 10
41.45691
 20
1.94567
 30
 0
 11
41.38741
 21
1.95925
  0
LINE
  8
Engraving
 62
   7
 39
0.400
  6
CONTINUOUS
 10
41.38741
 20
1.95925
 30
 0
 11
41.37990
 21
1.96126
  0
LINE
  8
Engraving
 62
   7
 39
0.400
  6
CONTINUOUS
 10
41.37990
 20
1.96126
 30
 0
 11
41.37990
 21
1.96126
  0
LINE
  8
Engraving
 62
   7
 39
0.400
  6
CONTINUOUS
 10
41.37990
 20
1.96126
 30
 0
 11
41.31553
 21
1.98206
  0
LINE
  8
Engraving
 62
   7
 39
0.400
  6
CONTINUOUS
 10
41.31553
 20
1.98206
 30
 0
 11
41.30257
 21
1.98689
  0
LINE
  8
Engraving
 62
   7
 39
0.400
  6
CONTINUOUS
 10
41.30257
 20
1.98689
 30
 0
 11
41.18649
 21
2.04814
  0
LINE
  8
Engraving
 62
   7
 39
0.400
  6
CONTINUOUS
 10
41.18649
 20
2.04814
 30
 0
 11
41.15293
 21
2.07376
  0
LINE
  8
Engraving
 62
   7
 39
0.400
  6
CONTINUOUS
 10
41.15293
 20
2.07376
 30
 0
 11
41.12180
 21
2.10170
  0
LINE
  8
Engraving
 62
   7
 39
0.400
  6
CONTINUOUS
 10
41.12180
 20
2.10170
 30
 0
 11
41.09298
 21
2.13179
  0
LINE
  8
Engraving
 62
   7
 39
0.400
  6
CONTINUOUS
 10
41.09298
 20
2.13179
 30
 0
 11
41.09298
 21
2.13179
  0
LINE
  8
Engraving
 62
   7
 39
0.400
  6
CONTINUOUS
 10
41.09298
 20
2.13179
 30
 0
 11
41.03031
 21
2.21569
  0
LINE
  8
Engraving
 62
   7
 39
0.400
  6
CONTINUOUS
 10
41.03031
 20
2.21569
 30
 0
 11
40.98025
 21
2.30945
  0
LINE
  8
Engraving
 62
   7
 39
0.400
  6
CONTINUOUS
 10
40.98025
 20
2.30945
 30
 0
 11
40.94135
 21
2.41042
  0
LINE
  8
Engraving
 62
   7
 39
0.400
  6
CONTINUOUS
 10
40.94135
 20
2.41042
 30
 0
 11
40.91215
 21
2.51596
  0
LINE
  8
Engraving
 62
   7
 39
0.400
  6
CONTINUOUS
 10
40.91215
 20
2.51596
 30
 0
 11
40.91215
 21
2.51596
  0
LINE
  8
Engraving
 62
   7
 39
0.400
  6
CONTINUOUS
 10
40.91215
 20
2.51596
 30
 0
 11
40.88422
 21
2.67072
  0
LINE
  8
Engraving
 62
   7
 39
0.400
  6
CONTINUOUS
 10
40.88422
 20
2.67072
 30
 0
 11
40.86906
 21
2.82154
  0
LINE
  8
Engraving
 62
   7
 39
0.400
  6
CONTINUOUS
 10
40.86906
 20
2.82154
 30
 0
 11
40.86098
 21
3.06163
  0
LINE
  8
Engraving
 62
   7
 39
0.400
  6
CONTINUOUS
 10
40.86098
 20
3.06163
 30
 0
 11
40.87914
 21
3.41457
  0
LINE
  8
Engraving
 62
   7
 39
0.400
  6
CONTINUOUS
 10
40.87914
 20
3.41457
 30
 0
 11
40.88626
 21
3.46663
  0
LINE
  8
Engraving
 62
   7
 39
0.400
  6
CONTINUOUS
 10
40.88626
 20
3.46663
 30
 0
 11
40.88626
 21
3.46663
  0
LINE
  8
Engraving
 62
   7
 39
0.400
  6
CONTINUOUS
 10
40.88626
 20
3.46663
 30
 0
 11
40.91105
 21
3.59445
  0
LINE
  8
Engraving
 62
   7
 39
0.400
  6
CONTINUOUS
 10
40.91105
 20
3.59445
 30
 0
 11
40.94777
 21
3.71748
  0
LINE
  8
Engraving
 62
   7
 39
0.400
  6
CONTINUOUS
 10
40.94777
 20
3.71748
 30
 0
 11
40.99867
 21
3.83242
  0
LINE
  8
Engraving
 62
   7
 39
0.400
  6
CONTINUOUS
 10
40.99867
 20
3.83242
 30
 0
 11
41.06600
 21
3.93595
  0
LINE
  8
Engraving
 62
   7
 39
0.400
  6
CONTINUOUS
 10
41.06600
 20
3.93595
 30
 0
 11
41.06600
 21
3.93595
  0
LINE
  8
Engraving
 62
   7
 39
0.400
  6
CONTINUOUS
 10
41.06600
 20
3.93595
 30
 0
 11
41.14706
 21
4.02060
  0
LINE
  8
Engraving
 62
   7
 39
0.400
  6
CONTINUOUS
 10
41.14706
 20
4.02060
 30
 0
 11
41.24684
 21
4.08918
  0
LINE
  8
Engraving
 62
   7
 39
0.400
  6
CONTINUOUS
 10
41.24684
 20
4.08918
 30
 0
 11
41.36320
 21
4.13379
  0
LINE
  8
Engraving
 62
   7
 39
0.400
  6
CONTINUOUS
 10
41.36320
 20
4.13379
 30
 0
 11
41.37644
 21
4.13702
  0
LINE
  8
Engraving
 62
   7
 39
0.400
  6
CONTINUOUS
 10
41.37644
 20
4.13702
 30
 0
 11
41.37644
 21
4.13702
  0
LINE
  8
Engraving
 62
   7
 39
0.400
  6
CONTINUOUS
 10
41.37644
 20
4.13702
 30
 0
 11
41.50726
 21
4.15835
  0
LINE
  8
Engraving
 62
   7
 39
0.400
  6
CONTINUOUS
 10
41.50726
 20
4.15835
 30
 0
 11
41.53408
 21
4.16160
  0
LINE
  8
Engraving
 62
   7
 39
0.400
  6
CONTINUOUS
 10
44.32734
 20
2.58326
 30
 0
 11
44.24760
 21
2.35820
  0
LINE
  8
Engraving
 62
   7
 39
0.400
  6
CONTINUOUS
 10
44.24760
 20
2.35820
 30
 0
 11
44.23556
 21
2.33394
  0
LINE
  8
Engraving
 62
   7
 39
0.400
  6
CONTINUOUS
 10
44.23556
 20
2.33394
 30
 0
 11
44.10340
 21
2.14814
  0
LINE
  8
Engraving
 62
   7
 39
0.400
  6
CONTINUOUS
 10
44.10340
 20
2.14814
 30
 0
 11
44.09209
 21
2.13558
  0
LINE
  8
Engraving
 62
   7
 39
0.400
  6
CONTINUOUS
 10
44.09209
 20
2.13558
 30
 0
 11
43.94863
 21
2.01861
  0
LINE
  8
Engraving
 62
   7
 39
0.400
  6
CONTINUOUS
 10
43.94863
 20
2.01861
 30
 0
 11
43.91658
 21
2.00112
  0
LINE
  8
Engraving
 62
   7
 39
0.400
  6
CONTINUOUS
 10
43.91658
 20
2.00112
 30
 0
 11
43.81551
 21
1.96077
  0
LINE
  8
Engraving
 62
   7
 39
0.400
  6
CONTINUOUS
 10
43.81551
 20
1.96077
 30
 0
 11
43.78051
 21
1.95142
  0
LINE
  8
Engraving
 62
   7
 39
0.400
  6
CONTINUOUS
 10
43.78051
 20
1.95142
 30
 0
 11
43.78051
 21
1.95142
  0
LINE
  8
Engraving
 62
   7
 39
0.400
  6
CONTINUOUS
 10
43.78051
 20
1.95142
 30
 0
 11
43.71450
 21
1.93961
  0
LINE
  8
Engraving
 62
   7
 39
0.400
  6
CONTINUOUS
 10
43.71450
 20
1.93961
 30
 0
 11
43.64743
 21
1.93502
  0
LINE
  8
Engraving
 62
   7
 39
0.400
  6
CONTINUOUS
 10
43.64743
 20
1.93502
 30
 0
 11
43.57995
 21
1.93778
  0
LINE
  8
Engraving
 62
   7
 39
0.400
  6
CONTINUOUS
 10
43.57995
 20
1.93778
 30
 0
 11
43.51267
 21
1.94799
  0
LINE
  8
Engraving
 62
   7
 39
0.400
  6
CONTINUOUS
 10
43.51267
 20
1.94799
 30
 0
 11
43.44623
 21
1.96576
  0
LINE
  8
Engraving
 62
   7
 39
0.400
  6
CONTINUOUS
 10
43.44623
 20
1.96576
 30
 0
 11
43.38126
 21
1.99120
  0
LINE
  8
Engraving
 62
   7
 39
0.400
  6
CONTINUOUS
 10
43.38126
 20
1.99120
 30
 0
 11
43.25976
 21
2.06952
  0
LINE
  8
Engraving
 62
   7
 39
0.400
  6
CONTINUOUS
 10
43.25976
 20
2.06952
 30
 0
 11
43.23850
 21
2.08878
  0
LINE
  8
Engraving
 62
   7
 39
0.400
  6
CONTINUOUS
 10
43.23850
 20
2.08878
 30
 0
 11
43.23850
 21
2.08878
  0
LINE
  8
Engraving
 62
   7
 39
0.400
  6
CONTINUOUS
 10
43.23850
 20
2.08878
 30
 0
 11
43.19739
 21
2.13205
  0
LINE
  8
Engraving
 62
   7
 39
0.400
  6
CONTINUOUS
 10
43.19739
 20
2.13205
 30
 0
 11
43.16040
 21
2.17914
  0
LINE
  8
Engraving
 62
   7
 39
0.400
  6
CONTINUOUS
 10
43.16040
 20
2.17914
 30
 0
 11
43.12740
 21
2.22940
  0
LINE
  8
Engraving
 62
   7
 39
0.400
  6
CONTINUOUS
 10
43.12740
 20
2.22940
 30
 0
 11
43.09825
 21
2.28220
  0
LINE
  8
Engraving
 62
   7
 39
0.400
  6
CONTINUOUS
 10
43.09825
 20
2.28220
 30
 0
 11
43.09825
 21
2.28220
  0
LINE
  8
Engraving
 62
   7
 39
0.400
  6
CONTINUOUS
 10
43.09825
 20
2.28220
 30
 0
 11
43.06415
 21
2.35799
  0
LINE
  8
Engraving
 62
   7
 39
0.400
  6
CONTINUOUS
 10
43.06415
 20
2.35799
 30
 0
 11
43.03681
 21
2.43569
  0
LINE
  8
Engraving
 62
   7
 39
0.400
  6
CONTINUOUS
 10
43.03681
 20
2.43569
 30
 0
 11
43.02634
 21
2.47128
  0
LINE
  8
Engraving
 62
   7
 39
0.400
  6
CONTINUOUS
 10
43.02634
 20
2.47128
 30
 0
 11
43.01677
 21
2.50712
  0
LINE
  8
Engraving
 62
   7
 39
0.400
  6
CONTINUOUS
 10
43.01677
 20
2.50712
 30
 0
 11
43.01677
 21
2.50712
  0
LINE
  8
Engraving
 62
   7
 39
0.400
  6
CONTINUOUS
 10
43.01677
 20
2.50712
 30
 0
 11
42.98121
 21
2.69117
  0
LINE
  8
Engraving
 62
   7
 39
0.400
  6
CONTINUOUS
 10
42.98121
 20
2.69117
 30
 0
 11
42.96400
 21
2.87841
  0
LINE
  8
Engraving
 62
   7
 39
0.400
  6
CONTINUOUS
 10
42.96400
 20
2.87841
 30
 0
 11
42.96400
 21
2.87841
  0
LINE
  8
Engraving
 62
   7
 39
0.400
  6
CONTINUOUS
 10
42.96400
 20
2.87841
 30
 0
 11
42.96077
 21
3.03479
  0
LINE
  8
Engraving
 62
   7
 39
0.400
  6
CONTINUOUS
 10
42.96077
 20
3.03479
 30
 0
 11
42.96514
 21
3.19025
  0
LINE
  8
Engraving
 62
   7
 39
0.400
  6
CONTINUOUS
 10
42.96514
 20
3.19025
 30
 0
 11
42.98327
 21
3.41323
  0
LINE
  8
Engraving
 62
   7
 39
0.400
  6
CONTINUOUS
 10
42.98327
 20
3.41323
 30
 0
 11
42.98590
 21
3.43335
  0
LINE
  8
Engraving
 62
   7
 39
0.400
  6
CONTINUOUS
 10
42.98590
 20
3.43335
 30
 0
 11
42.98590
 21
3.43335
  0
LINE
  8
Engraving
 62
   7
 39
0.400
  6
CONTINUOUS
 10
42.98590
 20
3.43335
 30
 0
 11
43.02109
 21
3.61690
  0
LINE
  8
Engraving
 62
   7
 39
0.400
  6
CONTINUOUS
 10
43.02109
 20
3.61690
 30
 0
 11
43.03094
 21
3.65327
  0
LINE
  8
Engraving
 62
   7
 39
0.400
  6
CONTINUOUS
 10
43.03094
 20
3.65327
 30
 0
 11
43.05499
 21
3.72693
  0
LINE
  8
Engraving
 62
   7
 39
0.400
  6
CONTINUOUS
 10
43.05499
 20
3.72693
 30
 0
 11
43.06428
 21
3.75111
  0
LINE
  8
Engraving
 62
   7
 39
0.400
  6
CONTINUOUS
 10
43.06428
 20
3.75111
 30
 0
 11
43.06428
 21
3.75111
  0
LINE
  8
Engraving
 62
   7
 39
0.400
  6
CONTINUOUS
 10
43.06428
 20
3.75111
 30
 0
 11
43.13305
 21
3.88737
  0
LINE
  8
Engraving
 62
   7
 39
0.400
  6
CONTINUOUS
 10
43.13305
 20
3.88737
 30
 0
 11
43.22682
 21
4.00539
  0
LINE
  8
Engraving
 62
   7
 39
0.400
  6
CONTINUOUS
 10
43.22682
 20
4.00539
 30
 0
 11
43.22682
 21
4.00539
  0
LINE
  8
Engraving
 62
   7
 39
0.400
  6
CONTINUOUS
 10
43.22682
 20
4.00539
 30
 0
 11
43.30788
 21
4.07195
  0
LINE
  8
Engraving
 62
   7
 39
0.400
  6
CONTINUOUS
 10
43.30788
 20
4.07195
 30
 0
 11
43.40270
 21
4.12225
  0
LINE
  8
Engraving
 62
   7
 39
0.400
  6
CONTINUOUS
 10
43.40270
 20
4.12225
 30
 0
 11
43.58331
 21
4.16443
  0
LINE
  8
Engraving
 62
   7
 39
0.400
  6
CONTINUOUS
 10
43.58331
 20
4.16443
 30
 0
 11
43.62024
 21
4.16624
  0
LINE
  8
Engraving
 62
   7
 39
0.400
  6
CONTINUOUS
 10
43.62024
 20
4.16624
 30
 0
 11
43.80247
 21
4.14335
  0
LINE
  8
Engraving
 62
   7
 39
0.400
  6
CONTINUOUS
 10
43.80247
 20
4.14335
 30
 0
 11
43.83761
 21
4.13255
  0
LINE
  8
Engraving
 62
   7
 39
0.400
  6
CONTINUOUS
 10
43.83761
 20
4.13255
 30
 0
 11
43.87205
 21
4.11973
  0
LINE
  8
Engraving
 62
   7
 39
0.400
  6
CONTINUOUS
 10
43.87205
 20
4.11973
 30
 0
 11
43.90566
 21
4.10492
  0
LINE
  8
Engraving
 62
   7
 39
0.400
  6
CONTINUOUS
 10
43.90566
 20
4.10492
 30
 0
 11
43.90566
 21
4.10492
  0
LINE
  8
Engraving
 62
   7
 39
0.400
  6
CONTINUOUS
 10
43.90566
 20
4.10492
 30
 0
 11
44.02056
 21
4.03342
  0
LINE
  8
Engraving
 62
   7
 39
0.400
  6
CONTINUOUS
 10
44.02056
 20
4.03342
 30
 0
 11
44.05500
 21
4.00382
  0
LINE
  8
Engraving
 62
   7
 39
0.400
  6
CONTINUOUS
 10
44.05500
 20
4.00382
 30
 0
 11
44.08716
 21
3.97141
  0
LINE
  8
Engraving
 62
   7
 39
0.400
  6
CONTINUOUS
 10
44.08716
 20
3.97141
 30
 0
 11
44.11680
 21
3.93623
  0
LINE
  8
Engraving
 62
   7
 39
0.400
  6
CONTINUOUS
 10
44.11680
 20
3.93623
 30
 0
 11
44.17936
 21
3.86800
  0
LINE
  8
Engraving
 62
   7
 39
0.400
  6
CONTINUOUS
 10
44.17936
 20
3.86800
 30
 0
 11
44.18701
 21
3.85828
  0
LINE
  8
Engraving
 62
   7
 39
0.400
  6
CONTINUOUS
 10
44.18701
 20
3.85828
 30
 0
 11
44.18701
 21
3.85828
  0
LINE
  8
Engraving
 62
   7
 39
0.400
  6
CONTINUOUS
 10
44.18701
 20
3.85828
 30
 0
 11
44.28442
 21
3.68953
  0
LINE
  8
Engraving
 62
   7
 39
0.400
  6
CONTINUOUS
 10
44.28442
 20
3.68953
 30
 0
 11
44.30731
 21
3.64041
  0
LINE
  8
Engraving
 62
   7
 39
0.400
  6
CONTINUOUS
 10
44.29399
 20
5.12181
 30
 0
 11
44.33304
 21
1.98123
  0
LINE
  8
Engraving
 62
   7
 39
0.400
  6
CONTINUOUS
 10
45.23273
 20
4.12059
 30
 0
 11
45.23273
 21
3.18167
  0
LINE
  8
Engraving
 62
   7
 39
0.400
  6
CONTINUOUS
 10
45.23273
 20
3.18167
 30
 0
 11
45.23055
 21
2.96996
  0
LINE
  8
Engraving
 62
   7
 39
0.400
  6
CONTINUOUS
 10
45.23055
 20
2.96996
 30
 0
 11
45.23030
 21
2.94638
  0
LINE
  8
Engraving
 62
   7
 39
0.400
  6
CONTINUOUS
 10
45.23030
 20
2.94638
 30
 0
 11
45.23030
 21
2.94638
  0
LINE
  8
Engraving
 62
   7
 39
0.400
  6
CONTINUOUS
 10
45.23030
 20
2.94638
 30
 0
 11
45.23365
 21
2.70277
  0
LINE
  8
Engraving
 62
   7
 39
0.400
  6
CONTINUOUS
 10
45.23365
 20
2.70277
 30
 0
 11
45.23652
 21
2.65434
  0
LINE
  8
Engraving
 62
   7
 39
0.400
  6
CONTINUOUS
 10
45.23652
 20
2.65434
 30
 0
 11
45.25231
 21
2.45323
  0
LINE
  8
Engraving
 62
   7
 39
0.400
  6
CONTINUOUS
 10
45.25231
 20
2.45323
 30
 0
 11
45.25585
 21
2.42398
  0
LINE
  8
Engraving
 62
   7
 39
0.400
  6
CONTINUOUS
 10
45.25585
 20
2.42398
 30
 0
 11
45.25585
 21
2.42398
  0
LINE
  8
Engraving
 62
   7
 39
0.400
  6
CONTINUOUS
 10
45.25585
 20
2.42398
 30
 0
 11
45.26677
 21
2.35491
  0
LINE
  8
Engraving
 62
   7
 39
0.400
  6
CONTINUOUS
 10
45.26677
 20
2.35491
 30
 0
 11
45.28211
 21
2.28719
  0
LINE
  8
Engraving
 62
   7
 39
0.400
  6
CONTINUOUS
 10
45.28211
 20
2.28719
 30
 0
 11
45.30304
 21
2.22174
  0
LINE
  8
Engraving
 62
   7
 39
0.400
  6
CONTINUOUS
 10
45.30304
 20
2.22174
 30
 0
 11
45.33071
 21
2.15947
  0
LINE
  8
Engraving
 62
   7
 39
0.400
  6
CONTINUOUS
 10
45.33071
 20
2.15947
 30
 0
 11
45.33071
 21
2.15947
  0
LINE
  8
Engraving
 62
   7
 39
0.400
  6
CONTINUOUS
 10
45.33071
 20
2.15947
 30
 0
 11
45.36552
 21
2.10237
  0
LINE
  8
Engraving
 62
   7
 39
0.400
  6
CONTINUOUS
 10
45.36552
 20
2.10237
 30
 0
 11
45.40901
 21
2.05009
  0
LINE
  8
Engraving
 62
   7
 39
0.400
  6
CONTINUOUS
 10
45.40901
 20
2.05009
 30
 0
 11
45.45448
 21
2.01258
  0
LINE
  8
Engraving
 62
   7
 39
0.400
  6
CONTINUOUS
 10
45.45448
 20
2.01258
 30
 0
 11
45.46436
 21
2.00630
  0
LINE
  8
Engraving
 62
   7
 39
0.400
  6
CONTINUOUS
 10
45.46436
 20
2.00630
 30
 0
 11
45.46436
 21
2.00630
  0
LINE
  8
Engraving
 62
   7
 39
0.400
  6
CONTINUOUS
 10
45.46436
 20
2.00630
 30
 0
 11
45.55106
 21
1.96820
  0
LINE
  8
Engraving
 62
   7
 39
0.400
  6
CONTINUOUS
 10
45.55106
 20
1.96820
 30
 0
 11
45.58180
 21
1.95967
  0
LINE
  8
Engraving
 62
   7
 39
0.400
  6
CONTINUOUS
 10
45.58180
 20
1.95967
 30
 0
 11
45.58180
 21
1.95967
  0
LINE
  8
Engraving
 62
   7
 39
0.400
  6
CONTINUOUS
 10
45.58180
 20
1.95967
 30
 0
 11
45.63248
 21
1.94920
  0
LINE
  8
Engraving
 62
   7
 39
0.400
  6
CONTINUOUS
 10
45.63248
 20
1.94920
 30
 0
 11
45.68289
 21
1.94192
  0
LINE
  8
Engraving
 62
   7
 39
0.400
  6
CONTINUOUS
 10
45.68289
 20
1.94192
 30
 0
 11
45.88111
 21
1.94697
  0
LINE
  8
Engraving
 62
   7
 39
0.400
  6
CONTINUOUS
 10
45.88111
 20
1.94697
 30
 0
 11
45.91739
 21
1.95512
  0
LINE
  8
Engraving
 62
   7
 39
0.400
  6
CONTINUOUS
 10
45.91739
 20
1.95512
 30
 0
 11
45.95268
 21
1.96552
  0
LINE
  8
Engraving
 62
   7
 39
0.400
  6
CONTINUOUS
 10
45.95268
 20
1.96552
 30
 0
 11
45.98705
 21
1.97814
  0
LINE
  8
Engraving
 62
   7
 39
0.400
  6
CONTINUOUS
 10
45.98705
 20
1.97814
 30
 0
 11
45.98705
 21
1.97814
  0
LINE
  8
Engraving
 62
   7
 39
0.400
  6
CONTINUOUS
 10
45.98705
 20
1.97814
 30
 0
 11
46.05367
 21
2.01002
  0
LINE
  8
Engraving
 62
   7
 39
0.400
  6
CONTINUOUS
 10
46.05367
 20
2.01002
 30
 0
 11
46.11724
 21
2.05021
  0
LINE
  8
Engraving
 62
   7
 39
0.400
  6
CONTINUOUS
 10
46.11724
 20
2.05021
 30
 0
 11
46.17823
 21
2.09829
  0
LINE
  8
Engraving
 62
   7
 39
0.400
  6
CONTINUOUS
 10
46.17823
 20
2.09829
 30
 0
 11
46.23711
 21
2.15384
  0
LINE
  8
Engraving
 62
   7
 39
0.400
  6
CONTINUOUS
 10
46.23711
 20
2.15384
 30
 0
 11
46.29436
 21
2.21643
  0
LINE
  8
Engraving
 62
   7
 39
0.400
  6
CONTINUOUS
 10
46.29436
 20
2.21643
 30
 0
 11
46.35046
 21
2.28563
  0
LINE
  8
Engraving
 62
   7
 39
0.400
  6
CONTINUOUS
 10
46.35046
 20
2.28563
 30
 0
 11
46.44435
 21
2.47609
  0
LINE
  8
Engraving
 62
   7
 39
0.400
  6
CONTINUOUS
 10
46.44435
 20
2.47609
 30
 0
 11
46.44835
 21
2.49094
  0
LINE
  8
Engraving
 62
   7
 39
0.400
  6
CONTINUOUS
 10
46.44835
 20
2.49094
 30
 0
 11
46.45181
 21
2.50572
  0
LINE
  8
Engraving
 62
   7
 39
0.400
  6
CONTINUOUS
 10
46.45181
 20
2.50572
 30
 0
 11
46.45479
 21
2.52050
  0
LINE
  8
Engraving
 62
   7
 39
0.400
  6
CONTINUOUS
 10
46.45479
 20
2.52050
 30
 0
 11
46.45479
 21
2.52050
  0
LINE
  8
Engraving
 62
   7
 39
0.400
  6
CONTINUOUS
 10
46.45479
 20
2.52050
 30
 0
 11
46.46650
 21
2.63986
  0
LINE
  8
Engraving
 62
   7
 39
0.400
  6
CONTINUOUS
 10
46.46650
 20
2.63986
 30
 0
 11
46.46772
 21
2.66720
  0
LINE
  8
Engraving
 62
   7
 39
0.400
  6
CONTINUOUS
 10
46.46772
 20
2.66720
 30
 0
 11
46.47142
 21
2.75963
  0
LINE
  8
Engraving
 62
   7
 39
0.400
  6
CONTINUOUS
 10
46.47142
 20
2.75963
 30
 0
 11
46.47200
 21
2.77812
  0
LINE
  8
Engraving
 62
   7
 39
0.400
  6
CONTINUOUS
 10
46.47200
 20
2.77812
 30
 0
 11
46.47200
 21
2.77812
  0
LINE
  8
Engraving
 62
   7
 39
0.400
  6
CONTINUOUS
 10
46.47200
 20
2.77812
 30
 0
 11
46.47598
 21
3.06434
  0
LINE
  8
Engraving
 62
   7
 39
0.400
  6
CONTINUOUS
 10
46.47598
 20
3.06434
 30
 0
 11
46.47604
 21
3.12165
  0
LINE
  8
Engraving
 62
   7
 39
0.400
  6
CONTINUOUS
 10
46.47604
 20
3.12165
 30
 0
 11
46.47604
 21
4.12059
  0
LINE
  8
Engraving
 62
   7
 39
0.400
  6
CONTINUOUS
 10
46.46442
 20
2.60515
 30
 0
 11
46.46583
 21
1.98123
  0
LINE
  8
Engraving
 62
   7
 39
0.400
  6
CONTINUOUS
 10
47.37144
 20
5.02091
 30
 0
 11
47.81303
 21
5.02091
  0
LINE
  8
Engraving
 62
   7
 39
0.400
  6
CONTINUOUS
 10
47.81303
 20
5.02091
 30
 0
 11
47.92450
 21
5.02091
  0
LINE
  8
Engraving
 62
   7
 39
0.400
  6
CONTINUOUS
 10
47.92450
 20
5.02091
 30
 0
 11
47.94241
 21
5.02164
  0
LINE
  8
Engraving
 62
   7
 39
0.400
  6
CONTINUOUS
 10
47.94241
 20
5.02164
 30
 0
 11
47.94458
 21
5.02167
  0
LINE
  8
Engraving
 62
   7
 39
0.400
  6
CONTINUOUS
 10
47.94458
 20
5.02167
 30
 0
 11
47.94458
 21
5.02167
  0
LINE
  8
Engraving
 62
   7
 39
0.400
  6
CONTINUOUS
 10
47.94458
 20
5.02167
 30
 0
 11
47.96539
 21
5.01806
  0
LINE
  8
Engraving
 62
   7
 39
0.400
  6
CONTINUOUS
 10
47.96539
 20
5.01806
 30
 0
 11
47.96859
 21
5.01599
  0
LINE
  8
Engraving
 62
   7
 39
0.400
  6
CONTINUOUS
 10
47.96859
 20
5.01599
 30
 0
 11
47.96952
 21
5.01517
  0
LINE
  8
Engraving
 62
   7
 39
0.400
  6
CONTINUOUS
 10
47.96952
 20
5.01517
 30
 0
 11
47.97038
 21
5.01429
  0
LINE
  8
Engraving
 62
   7
 39
0.400
  6
CONTINUOUS
 10
47.97038
 20
5.01429
 30
 0
 11
47.97038
 21
5.01429
  0
LINE
  8
Engraving
 62
   7
 39
0.400
  6
CONTINUOUS
 10
47.97038
 20
5.01429
 30
 0
 11
47.97544
 21
5.00365
  0
LINE
  8
Engraving
 62
   7
 39
0.400
  6
CONTINUOUS
 10
47.97544
 20
5.00365
 30
 0
 11
47.97670
 21
4.99036
  0
LINE
  8
Engraving
 62
   7
 39
0.400
  6
CONTINUOUS
 10
47.97670
 20
4.99036
 30
 0
 11
47.97670
 21
4.99036
  0
LINE
  8
Engraving
 62
   7
 39
0.400
  6
CONTINUOUS
 10
47.97670
 20
4.99036
 30
 0
 11
47.97634
 21
4.97915
  0
LINE
  8
Engraving
 62
   7
 39
0.400
  6
CONTINUOUS
 10
47.97634
 20
4.97915
 30
 0
 11
47.97595
 21
4.96947
  0
LINE
  8
Engraving
 62
   7
 39
0.400
  6
CONTINUOUS
 10
47.97595
 20
4.96947
 30
 0
 11
47.97595
 21
4.83656
  0
LINE
  8
Engraving
 62
   7
 39
0.400
  6
CONTINUOUS
 10
47.97595
 20
4.83656
 30
 0
 11
47.97595
 21
4.28779
  0
LINE
  8
Engraving
 62
   7
 39
0.400
  6
CONTINUOUS
 10
47.97595
 20
4.28779
 30
 0
 11
47.97595
 21
2.65862
  0
LINE
  8
Engraving
 62
   7
 39
0.400
  6
CONTINUOUS
 10
47.97595
 20
2.65862
 30
 0
 11
47.97863
 21
2.39201
  0
LINE
  8
Engraving
 62
   7
 39
0.400
  6
CONTINUOUS
 10
47.97863
 20
2.39201
 30
 0
 11
47.97973
 21
2.37157
  0
LINE
  8
Engraving
 62
   7
 39
0.400
  6
CONTINUOUS
 10
47.97973
 20
2.37157
 30
 0
 11
47.97973
 21
2.37157
  0
LINE
  8
Engraving
 62
   7
 39
0.400
  6
CONTINUOUS
 10
47.97973
 20
2.37157
 30
 0
 11
47.99181
 21
2.24988
  0
LINE
  8
Engraving
 62
   7
 39
0.400
  6
CONTINUOUS
 10
47.99181
 20
2.24988
 30
 0
 11
47.99560
 21
2.22561
  0
LINE
  8
Engraving
 62
   7
 39
0.400
  6
CONTINUOUS
 10
47.99560
 20
2.22561
 30
 0
 11
48.01248
 21
2.14811
  0
LINE
  8
Engraving
 62
   7
 39
0.400
  6
CONTINUOUS
 10
48.01248
 20
2.14811
 30
 0
 11
48.01507
 21
2.13946
  0
LINE
  8
Engraving
 62
   7
 39
0.400
  6
CONTINUOUS
 10
48.01507
 20
2.13946
 30
 0
 11
48.01507
 21
2.13946
  0
LINE
  8
Engraving
 62
   7
 39
0.400
  6
CONTINUOUS
 10
48.01507
 20
2.13946
 30
 0
 11
48.05604
 21
2.05348
  0
LINE
  8
Engraving
 62
   7
 39
0.400
  6
CONTINUOUS
 10
48.05604
 20
2.05348
 30
 0
 11
48.06778
 21
2.03888
  0
LINE
  8
Engraving
 62
   7
 39
0.400
  6
CONTINUOUS
 10
48.06778
 20
2.03888
 30
 0
 11
48.06778
 21
2.03888
  0
LINE
  8
Engraving
 62
   7
 39
0.400
  6
CONTINUOUS
 10
48.06778
 20
2.03888
 30
 0
 11
48.07177
 21
2.03452
  0
LINE
  8
Engraving
 62
   7
 39
0.400
  6
CONTINUOUS
 10
48.07177
 20
2.03452
 30
 0
 11
48.07591
 21
2.03029
  0
LINE
  8
Engraving
 62
   7
 39
0.400
  6
CONTINUOUS
 10
48.07591
 20
2.03029
 30
 0
 11
48.13023
 21
1.98829
  0
LINE
  8
Engraving
 62
   7
 39
0.400
  6
CONTINUOUS
 10
48.13023
 20
1.98829
 30
 0
 11
48.14999
 21
1.97744
  0
LINE
  8
Engraving
 62
   7
 39
0.400
  6
CONTINUOUS
 10
48.14999
 20
1.97744
 30
 0
 11
48.14999
 21
1.97744
  0
LINE
  8
Engraving
 62
   7
 39
0.400
  6
CONTINUOUS
 10
48.14999
 20
1.97744
 30
 0
 11
48.27969
 21
1.93981
  0
LINE
  8
Engraving
 62
   7
 39
0.400
  6
CONTINUOUS
 10
48.27969
 20
1.93981
 30
 0
 11
48.42176
 21
1.93480
  0
LINE
  8
Engraving
 62
   7
 39
0.400
  6
CONTINUOUS
 10
48.42176
 20
1.93480
 30
 0
 11
48.42176
 21
1.93480
  0
LINE
  8
Engraving
 62
   7
 39
0.400
  6
CONTINUOUS
 10
48.42176
 20
1.93480
 30
 0
 11
48.54884
 21
1.94344
  0
LINE
  8
Engraving
 62
   7
 39
0.400
  6
CONTINUOUS
 10
48.54884
 20
1.94344
 30
 0
 11
48.66620
 21
1.95122
  0
LINE
  8
Engraving
 62
   7
 39
0.400
  6
CONTINUOUS
 10
49.52730
 20
4.02627
 30
 0
 11
49.91119
 21
4.13492
  0
LINE
  8
Engraving
 62
   7
 39
0.400
  6
CONTINUOUS
 10
49.91119
 20
4.13492
 30
 0
 11
49.94661
 21
4.14141
  0
LINE
  8
Engraving
 62
   7
 39
0.400
  6
CONTINUOUS
 10
49.94661
 20
4.14141
 30
 0
 11
49.94661
 21
4.14141
  0
LINE
  8
Engraving
 62
   7
 39
0.400
  6
CONTINUOUS
 10
49.94661
 20
4.14141
 30
 0
 11
50.21067
 21
4.16218
  0
LINE
  8
Engraving
 62
   7
 39
0.400
  6
CONTINUOUS
 10
50.21067
 20
4.16218
 30
 0
 11
50.26471
 21
4.15966
  0
LINE
  8
Engraving
 62
   7
 39
0.400
  6
CONTINUOUS
 10
50.26471
 20
4.15966
 30
 0
 11
50.29654
 21
4.15711
  0
LINE
  8
Engraving
 62
   7
 39
0.400
  6
CONTINUOUS
 10
50.29654
 20
4.15711
 30
 0
 11
50.30715
 21
4.15610
  0
LINE
  8
Engraving
 62
   7
 39
0.400
  6
CONTINUOUS
 10
50.30715
 20
4.15610
 30
 0
 11
50.30715
 21
4.15610
  0
LINE
  8
Engraving
 62
   7
 39
0.400
  6
CONTINUOUS
 10
50.30715
 20
4.15610
 30
 0
 11
50.45957
 21
4.12751
  0
LINE
  8
Engraving
 62
   7
 39
0.400
  6
CONTINUOUS
 10
50.45957
 20
4.12751
 30
 0
 11
50.50776
 21
4.11029
  0
LINE
  8
Engraving
 62
   7
 39
0.400
  6
CONTINUOUS
 10
50.50776
 20
4.11029
 30
 0
 11
50.50776
 21
4.11029
  0
LINE
  8
Engraving
 62
   7
 39
0.400
  6
CONTINUOUS
 10
50.50776
 20
4.11029
 30
 0
 11
50.57343
 21
4.07645
  0
LINE
  8
Engraving
 62
   7
 39
0.400
  6
CONTINUOUS
 10
50.57343
 20
4.07645
 30
 0
 11
50.63338
 21
4.03006
  0
LINE
  8
Engraving
 62
   7
 39
0.400
  6
CONTINUOUS
 10
50.63338
 20
4.03006
 30
 0
 11
50.68232
 21
3.97356
  0
LINE
  8
Engraving
 62
   7
 39
0.400
  6
CONTINUOUS
 10
50.68232
 20
3.97356
 30
 0
 11
50.69592
 21
3.95299
  0
LINE
  8
Engraving
 62
   7
 39
0.400
  6
CONTINUOUS
 10
50.69592
 20
3.95299
 30
 0
 11
50.69592
 21
3.95299
  0
LINE
  8
Engraving
 62
   7
 39
0.400
  6
CONTINUOUS
 10
50.69592
 20
3.95299
 30
 0
 11
50.75568
 21
3.80592
  0
LINE
  8
Engraving
 62
   7
 39
0.400
  6
CONTINUOUS
 10
50.75568
 20
3.80592
 30
 0
 11
50.77991
 21
3.64237
  0
LINE
  8
Engraving
 62
   7
 39
0.400
  6
CONTINUOUS
 10
50.77991
 20
3.64237
 30
 0
 11
50.77991
 21
3.64237
  0
LINE
  8
Engraving
 62
   7
 39
0.400
  6
CONTINUOUS
 10
50.77991
 20
3.64237
 30
 0
 11
50.78415
 21
3.50227
  0
LINE
  8
Engraving
 62
   7
 39
0.400
  6
CONTINUOUS
 10
50.78415
 20
3.50227
 30
 0
 11
50.78347
 21
3.37031
  0
LINE
  8
Engraving
 62
   7
 39
0.400
  6
CONTINUOUS
 10
50.78347
 20
3.37031
 30
 0
 11
50.78370
 21
3.19507
  0
LINE
  8
Engraving
 62
   7
 39
0.400
  6
CONTINUOUS
 10
50.78370
 20
3.19507
 30
 0
 11
50.78373
 21
3.17003
  0
LINE
  8
Engraving
 62
   7
 39
0.400
  6
CONTINUOUS
 10
50.78373
 20
3.17003
 30
 0
 11
50.78373
 21
3.17003
  0
LINE
  8
Engraving
 62
   7
 39
0.400
  6
CONTINUOUS
 10
50.78373
 20
3.17003
 30
 0
 11
50.78104
 21
2.82954
  0
LINE
  8
Engraving
 62
   7
 39
0.400
  6
CONTINUOUS
 10
50.78104
 20
2.82954
 30
 0
 11
50.77930
 21
2.76152
  0
LINE
  8
Engraving
 62
   7
 39
0.400
  6
CONTINUOUS
 10
50.77930
 20
2.76152
 30
 0
 11
50.75765
 21
2.54069
  0
LINE
  8
Engraving
 62
   7
 39
0.400
  6
CONTINUOUS
 10
50.75765
 20
2.54069
 30
 0
 11
50.75373
 21
2.52759
  0
LINE
  8
Engraving
 62
   7
 39
0.400
  6
CONTINUOUS
 10
50.75373
 20
2.52759
 30
 0
 11
50.74940
 21
2.51498
  0
LINE
  8
Engraving
 62
   7
 39
0.400
  6
CONTINUOUS
 10
50.74940
 20
2.51498
 30
 0
 11
50.74463
 21
2.50271
  0
LINE
  8
Engraving
 62
   7
 39
0.400
  6
CONTINUOUS
 10
50.74463
 20
2.50271
 30
 0
 11
50.74463
 21
2.50271
  0
LINE
  8
Engraving
 62
   7
 39
0.400
  6
CONTINUOUS
 10
50.74463
 20
2.50271
 30
 0
 11
50.70719
 21
2.43034
  0
LINE
  8
Engraving
 62
   7
 39
0.400
  6
CONTINUOUS
 10
50.70719
 20
2.43034
 30
 0
 11
50.69748
 21
2.41398
  0
LINE
  8
Engraving
 62
   7
 39
0.400
  6
CONTINUOUS
 10
50.69748
 20
2.41398
 30
 0
 11
50.68590
 21
2.39299
  0
LINE
  8
Engraving
 62
   7
 39
0.400
  6
CONTINUOUS
 10
50.68590
 20
2.39299
 30
 0
 11
50.67417
 21
2.37206
  0
LINE
  8
Engraving
 62
   7
 39
0.400
  6
CONTINUOUS
 10
50.67417
 20
2.37206
 30
 0
 11
50.67417
 21
2.37206
  0
LINE
  8
Engraving
 62
   7
 39
0.400
  6
CONTINUOUS
 10
50.67417
 20
2.37206
 30
 0
 11
50.59299
 21
2.24128
  0
LINE
  8
Engraving
 62
   7
 39
0.400
  6
CONTINUOUS
 10
50.59299
 20
2.24128
 30
 0
 11
50.49639
 21
2.12431
  0
LINE
  8
Engraving
 62
   7
 39
0.400
  6
CONTINUOUS
 10
50.49639
 20
2.12431
 30
 0
 11
50.49639
 21
2.12431
  0
LINE
  8
Engraving
 62
   7
 39
0.400
  6
CONTINUOUS
 10
50.49639
 20
2.12431
 30
 0
 11
50.40825
 21
2.05089
  0
LINE
  8
Engraving
 62
   7
 39
0.400
  6
CONTINUOUS
 10
50.40825
 20
2.05089
 30
 0
 11
50.30330
 21
1.99500
  0
LINE
  8
Engraving
 62
   7
 39
0.400
  6
CONTINUOUS
 10
50.30330
 20
1.99500
 30
 0
 11
50.17150
 21
1.95414
  0
LINE
  8
Engraving
 62
   7
 39
0.400
  6
CONTINUOUS
 10
50.17150
 20
1.95414
 30
 0
 11
50.14430
 21
1.94855
  0
LINE
  8
Engraving
 62
   7
 39
0.400
  6
CONTINUOUS
 10
50.14430
 20
1.94855
 30
 0
 11
50.14430
 21
1.94855
  0
LINE
  8
Engraving
 62
   7
 39
0.400
  6
CONTINUOUS
 10
50.14430
 20
1.94855
 30
 0
 11
50.07567
 21
1.93875
  0
LINE
  8
Engraving
 62
   7
 39
0.400
  6
CONTINUOUS
 10
50.07567
 20
1.93875
 30
 0
 11
50.00665
 21
1.93531
  0
LINE
  8
Engraving
 62
   7
 39
0.400
  6
CONTINUOUS
 10
50.00665
 20
1.93531
 30
 0
 11
49.93795
 21
1.93873
  0
LINE
  8
Engraving
 62
   7
 39
0.400
  6
CONTINUOUS
 10
49.93795
 20
1.93873
 30
 0
 11
49.87026
 21
1.94952
  0
LINE
  8
Engraving
 62
   7
 39
0.400
  6
CONTINUOUS
 10
49.87026
 20
1.94952
 30
 0
 11
49.87026
 21
1.94952
  0
LINE
  8
Engraving
 62
   7
 39
0.400
  6
CONTINUOUS
 10
49.87026
 20
1.94952
 30
 0
 11
49.77751
 21
1.97840
  0
LINE
  8
Engraving
 62
   7
 39
0.400
  6
CONTINUOUS
 10
49.77751
 20
1.97840
 30
 0
 11
49.69022
 21
2.02453
  0
LINE
  8
Engraving
 62
   7
 39
0.400
  6
CONTINUOUS
 10
49.69022
 20
2.02453
 30
 0
 11
49.59830
 21
2.10384
  0
LINE
  8
Engraving
 62
   7
 39
0.400
  6
CONTINUOUS
 10
49.59830
 20
2.10384
 30
 0
 11
49.57278
 21
2.13472
  0
LINE
  8
Engraving
 62
   7
 39
0.400
  6
CONTINUOUS
 10
49.57278
 20
2.13472
 30
 0
 11
49.57278
 21
2.13472
  0
LINE
  8
Engraving
 62
   7
 39
0.400
  6
CONTINUOUS
 10
49.57278
 20
2.13472
 30
 0
 11
49.51655
 21
2.22677
  0
LINE
  8
Engraving
 62
   7
 39
0.400
  6
CONTINUOUS
 10
49.51655
 20
2.22677
 30
 0
 11
49.47799
 21
2.32908
  0
LINE
  8
Engraving
 62
   7
 39
0.400
  6
CONTINUOUS
 10
49.47799
 20
2.32908
 30
 0
 11
49.45658
 21
2.43808
  0
LINE
  8
Engraving
 62
   7
 39
0.400
  6
CONTINUOUS
 10
49.45658
 20
2.43808
 30
 0
 11
49.45180
 21
2.55017
  0
LINE
  8
Engraving
 62
   7
 39
0.400
  6
CONTINUOUS
 10
49.45180
 20
2.55017
 30
 0
 11
49.45180
 21
2.55017
  0
LINE
  8
Engraving
 62
   7
 39
0.400
  6
CONTINUOUS
 10
49.45180
 20
2.55017
 30
 0
 11
49.48758
 21
2.76174
  0
LINE
  8
Engraving
 62
   7
 39
0.400
  6
CONTINUOUS
 10
49.48758
 20
2.76174
 30
 0
 11
49.57947
 21
2.94587
  0
LINE
  8
Engraving
 62
   7
 39
0.400
  6
CONTINUOUS
 10
49.57947
 20
2.94587
 30
 0
 11
49.62098
 21
2.99681
  0
LINE
  8
Engraving
 62
   7
 39
0.400
  6
CONTINUOUS
 10
49.62098
 20
2.99681
 30
 0
 11
49.66628
 21
3.04206
  0
LINE
  8
Engraving
 62
   7
 39
0.400
  6
CONTINUOUS
 10
49.66628
 20
3.04206
 30
 0
 11
49.71506
 21
3.08197
  0
LINE
  8
Engraving
 62
   7
 39
0.400
  6
CONTINUOUS
 10
49.71506
 20
3.08197
 30
 0
 11
49.76699
 21
3.11685
  0
LINE
  8
Engraving
 62
   7
 39
0.400
  6
CONTINUOUS
 10
49.76699
 20
3.11685
 30
 0
 11
49.76699
 21
3.11685
  0
LINE
  8
Engraving
 62
   7
 39
0.400
  6
CONTINUOUS
 10
49.76699
 20
3.11685
 30
 0
 11
49.89090
 21
3.17760
  0
LINE
  8
Engraving
 62
   7
 39
0.400
  6
CONTINUOUS
 10
49.89090
 20
3.17760
 30
 0
 11
50.02531
 21
3.21918
  0
LINE
  8
Engraving
 62
   7
 39
0.400
  6
CONTINUOUS
 10
50.02531
 20
3.21918
 30
 0
 11
50.16688
 21
3.24512
  0
LINE
  8
Engraving
 62
   7
 39
0.400
  6
CONTINUOUS
 10
50.16688
 20
3.24512
 30
 0
 11
50.31229
 21
3.25896
  0
LINE
  8
Engraving
 62
   7
 39
0.400
  6
CONTINUOUS
 10
50.31229
 20
3.25896
 30
 0
 11
50.31229
 21
3.25896
  0
LINE
  8
Engraving
 62
   7
 39
0.400
  6
CONTINUOUS
 10
50.31229
 20
3.25896
 30
 0
 11
50.55255
 21
3.26476
  0
LINE
  8
Engraving
 62
   7
 39
0.400
  6
CONTINUOUS
 10
50.55255
 20
3.26476
 30
 0
 11
50.77919
 21
3.26313
  0
LINE
  8
Engraving
 62
   7
 39
0.400
  6
CONTINUOUS
 10
50.77837
 20
2.70491
 30
 0
 11
50.77490
 21
1.98123
  0
LINE
  8
Engraving
 62
   7
 39
0.400
  6
CONTINUOUS
 10
51.83322
 20
1.98123
 30
 0
 11
51.83322
 21
2.98874
  0
LINE
  8
Engraving
 62
   7
 39
0.400
  6
CONTINUOUS
 10
51.83322
 20
2.98874
 30
 0
 11
51.83739
 21
3.31029
  0
LINE
  8
Engraving
 62
   7
 39
0.400
  6
CONTINUOUS
 10
51.83739
 20
3.31029
 30
 0
 11
51.85236
 21
3.39669
  0
LINE
  8
Engraving
 62
   7
 39
0.400
  6
CONTINUOUS
 10
51.85236
 20
3.39669
 30
 0
 11
51.85520
 21
3.40810
  0
LINE
  8
Engraving
 62
   7
 39
0.400
  6
CONTINUOUS
 10
51.85520
 20
3.40810
 30
 0
 11
51.85520
 21
3.40810
  0
LINE
  8
Engraving
 62
   7
 39
0.400
  6
CONTINUOUS
 10
51.85520
 20
3.40810
 30
 0
 11
51.90933
 21
3.55268
  0
LINE
  8
Engraving
 62
   7
 39
0.400
  6
CONTINUOUS
 10
51.90933
 20
3.55268
 30
 0
 11
51.92618
 21
3.58896
  0
LINE
  8
Engraving
 62
   7
 39
0.400
  6
CONTINUOUS
 10
51.92618
 20
3.58896
 30
 0
 11
51.93453
 21
3.60702
  0
LINE
  8
Engraving
 62
   7
 39
0.400
  6
CONTINUOUS
 10
51.93453
 20
3.60702
 30
 0
 11
51.94318
 21
3.62494
  0
LINE
  8
Engraving
 62
   7
 39
0.400
  6
CONTINUOUS
 10
51.94318
 20
3.62494
 30
 0
 11
51.94318
 21
3.62494
  0
LINE
  8
Engraving
 62
   7
 39
0.400
  6
CONTINUOUS
 10
51.94318
 20
3.62494
 30
 0
 11
52.09233
 21
3.85406
  0
LINE
  8
Engraving
 62
   7
 39
0.400
  6
CONTINUOUS
 10
52.09233
 20
3.85406
 30
 0
 11
52.29320
 21
4.03361
  0
LINE
  8
Engraving
 62
   7
 39
0.400
  6
CONTINUOUS
 10
52.29320
 20
4.03361
 30
 0
 11
52.29320
 21
4.03361
  0
LINE
  8
Engraving
 62
   7
 39
0.400
  6
CONTINUOUS
 10
52.29320
 20
4.03361
 30
 0
 11
52.45047
 21
4.11404
  0
LINE
  8
Engraving
 62
   7
 39
0.400
  6
CONTINUOUS
 10
52.45047
 20
4.11404
 30
 0
 11
52.62637
 21
4.15782
  0
LINE
  8
Engraving
 62
   7
 39
0.400
  6
CONTINUOUS
 10
52.62637
 20
4.15782
 30
 0
 11
52.78168
 21
4.16084
  0
LINE
  8
Engraving
 62
   7
 39
0.400
  6
CONTINUOUS
 10
52.78168
 20
4.16084
 30
 0
 11
52.79869
 21
4.15950
  0
LINE
  8
Engraving
 62
   7
 39
0.400
  6
CONTINUOUS
 10
52.79869
 20
4.15950
 30
 0
 11
52.79869
 21
4.15950
  0
LINE
  8
Engraving
 62
   7
 39
0.400
  6
CONTINUOUS
 10
52.79869
 20
4.15950
 30
 0
 11
52.96205
 21
4.13831
  0
LINE
  8
Engraving
 62
   7
 39
0.400
  6
CONTINUOUS
 10
52.96205
 20
4.13831
 30
 0
 11
52.99507
 21
4.13345
  0
LINE
  8
Engraving
 62
   7
 39
0.400
  6
CONTINUOUS
 10
51.83322
 20
4.12059
 30
 0
 11
51.83662
 21
3.26916
  0
LINE
  8
Engraving
 62
   7
 39
0.200
  6
CONTINUOUS
 10
30.09217
 20
119.82665
 30
 0
 11
30.09217
 21
124.53635
  0
LINE
  8
Engraving
 62
   7
 39
0.200
  6
CONTINUOUS
 10
30.09217
 20
124.53635
 30
 0
 11
30.22299
 21
124.53635
  0
LINE
  8
Engraving
 62
   7
 39
0.200
  6
CONTINUOUS
 10
30.22299
 20
124.53635
 30
 0
 11
32.05454
 21
119.73943
  0
LINE
  8
Engraving
 62
   7
 39
0.200
  6
CONTINUOUS
 10
32.05454
 20
119.73943
 30
 0
 11
32.27258
 21
119.73943
  0
LINE
  8
Engraving
 62
   7
 39
0.200
  6
CONTINUOUS
 10
32.27258
 20
119.73943
 30
 0
 11
34.10413
 21
124.53635
  0
LINE
  8
Engraving
 62
   7
 39
0.200
  6
CONTINUOUS
 10
34.10413
 20
124.53635
 30
 0
 11
34.27857
 21
124.53635
  0
LINE
  8
Engraving
 62
   7
 39
0.200
  6
CONTINUOUS
 10
34.27857
 20
124.53635
 30
 0
 11
34.27857
 21
119.82665
  0
LINE
  8
Engraving
 62
   7
 39
0.200
  6
CONTINUOUS
 10
34.27857
 20
119.82665
 30
 0
 11
34.19135
 21
119.73943
  0
LINE
  8
Engraving
 62
   7
 39
0.200
  6
CONTINUOUS
 10
34.19135
 20
119.73943
 30
 0
 11
34.19135
 21
124.44913
  0
LINE
  8
Engraving
 62
   7
 39
0.200
  6
CONTINUOUS
 10
34.19135
 20
124.44913
 30
 0
 11
34.14774
 21
124.44913
  0
LINE
  8
Engraving
 62
   7
 39
0.200
  6
CONTINUOUS
 10
34.14774
 20
124.44913
 30
 0
 11
32.35980
 21
119.69582
  0
LINE
  8
Engraving
 62
   7
 39
0.200
  6
CONTINUOUS
 10
32.35980
 20
119.69582
 30
 0
 11
31.96732
 21
119.69582
  0
LINE
  8
Engraving
 62
   7
 39
0.200
  6
CONTINUOUS
 10
31.96732
 20
119.69582
 30
 0
 11
30.22299
 21
124.40552
  0
LINE
  8
Engraving
 62
   7
 39
0.200
  6
CONTINUOUS
 10
30.22299
 20
124.40552
 30
 0
 11
30.17938
 21
124.40552
  0
LINE
  8
Engraving
 62
   7
 39
0.200
  6
CONTINUOUS
 10
30.17938
 20
124.40552
 30
 0
 11
30.17938
 21
119.73943
  0
LINE
  8
Engraving
 62
   7
 39
0.200
  6
CONTINUOUS
 10
30.17938
 20
119.73943
 30
 0
 11
30.00495
 21
119.73943
  0
LINE
  8
Engraving
 62
   7
 39
0.200
  6
CONTINUOUS
 10
30.00495
 20
119.73943
 30
 0
 11
30.00495
 21
124.62357
  0
LINE
  8
Engraving
 62
   7
 39
0.200
  6
CONTINUOUS
 10
30.00495
 20
124.62357
 30
 0
 11
30.26660
 21
124.62357
  0
LINE
  8
Engraving
 62
   7
 39
0.200
  6
CONTINUOUS
 10
30.26660
 20
124.62357
 30
 0
 11
32.14176
 21
119.82665
  0
LINE
  8
Engraving
 62
   7
 39
0.200
  6
CONTINUOUS
 10
32.14176
 20
119.82665
 30
 0
 11
32.22897
 21
119.82665
  0
LINE
  8
Engraving
 62
   7
 39
0.200
  6
CONTINUOUS
 10
32.22897
 20
119.82665
 30
 0
 11
34.06052
 21
124.62357
  0
LINE
  8
Engraving
 62
   7
 39
0.200
  6
CONTINUOUS
 10
34.06052
 20
124.62357
 30
 0
 11
34.36578
 21
124.62357
  0
LINE
  8
Engraving
 62
   7
 39
0.200
  6
CONTINUOUS
 10
34.36578
 20
124.62357
 30
 0
 11
34.36578
 21
119.73943
  0
LINE
  8
Engraving
 62
   7
 39
0.200
  6
CONTINUOUS
 10
34.36578
 20
119.73943
 30
 0
 11
34.19135
 21
119.73943
  0
LINE
  8
Engraving
 62
   7
 39
0.200
  6
CONTINUOUS
 10
34.19135
 20
119.73943
 30
 0
 11
34.10413
 21
119.65222
  0
LINE
  8
Engraving
 62
   7
 39
0.200
  6
CONTINUOUS
 10
34.10413
 20
119.65222
 30
 0
 11
34.10413
 21
123.92583
  0
LINE
  8
Engraving
 62
   7
 39
0.200
  6
CONTINUOUS
 10
34.10413
 20
123.92583
 30
 0
 11
34.10413
 21
124.18748
  0
LINE
  8
Engraving
 62
   7
 39
0.200
  6
CONTINUOUS
 10
34.10413
 20
124.18748
 30
 0
 11
33.97331
 21
123.66418
  0
LINE
  8
Engraving
 62
   7
 39
0.200
  6
CONTINUOUS
 10
33.97331
 20
123.66418
 30
 0
 11
32.44702
 21
119.65222
  0
LINE
  8
Engraving
 62
   7
 39
0.200
  6
CONTINUOUS
 10
32.44702
 20
119.65222
 30
 0
 11
31.88011
 21
119.65222
  0
LINE
  8
Engraving
 62
   7
 39
0.200
  6
CONTINUOUS
 10
31.88011
 20
119.65222
 30
 0
 11
30.39742
 21
123.66418
  0
LINE
  8
Engraving
 62
   7
 39
0.200
  6
CONTINUOUS
 10
30.39742
 20
123.66418
 30
 0
 11
30.26660
 21
124.18748
  0
LINE
  8
Engraving
 62
   7
 39
0.200
  6
CONTINUOUS
 10
30.26660
 20
124.18748
 30
 0
 11
30.26660
 21
119.65222
  0
LINE
  8
Engraving
 62
   7
 39
0.200
  6
CONTINUOUS
 10
30.26660
 20
119.65222
 30
 0
 11
29.91773
 21
119.65222
  0
LINE
  8
Engraving
 62
   7
 39
0.200
  6
CONTINUOUS
 10
29.91773
 20
119.65222
 30
 0
 11
29.91773
 21
124.71078
  0
LINE
  8
Engraving
 62
   7
 39
0.200
  6
CONTINUOUS
 10
29.91773
 20
124.71078
 30
 0
 11
30.35382
 21
124.71078
  0
LINE
  8
Engraving
 62
   7
 39
0.200
  6
CONTINUOUS
 10
30.35382
 20
124.71078
 30
 0
 11
32.18537
 21
119.91387
  0
LINE
  8
Engraving
 62
   7
 39
0.200
  6
CONTINUOUS
 10
32.18537
 20
119.91387
 30
 0
 11
34.01692
 21
124.71078
  0
LINE
  8
Engraving
 62
   7
 39
0.200
  6
CONTINUOUS
 10
34.01692
 20
124.71078
 30
 0
 11
34.45300
 21
124.71078
  0
LINE
  8
Engraving
 62
   7
 39
0.200
  6
CONTINUOUS
 10
34.45300
 20
124.71078
 30
 0
 11
34.45300
 21
119.65222
  0
LINE
  8
Engraving
 62
   7
 39
0.200
  6
CONTINUOUS
 10
34.45300
 20
119.65222
 30
 0
 11
34.10413
 21
119.65222
  0
LINE
  8
Engraving
 62
   7
 39
0.200
  6
CONTINUOUS
 10
34.10413
 20
119.65222
 30
 0
 11
34.01692
 21
119.56500
  0
LINE
  8
Engraving
 62
   7
 39
0.200
  6
CONTINUOUS
 10
34.01692
 20
119.56500
 30
 0
 11
34.01692
 21
123.57697
  0
LINE
  8
Engraving
 62
   7
 39
0.200
  6
CONTINUOUS
 10
34.01692
 20
123.57697
 30
 0
 11
32.53423
 21
119.56500
  0
LINE
  8
Engraving
 62
   7
 39
0.200
  6
CONTINUOUS
 10
32.53423
 20
119.56500
 30
 0
 11
31.83650
 21
119.56500
  0
LINE
  8
Engraving
 62
   7
 39
0.200
  6
CONTINUOUS
 10
31.83650
 20
119.56500
 30
 0
 11
30.35382
 21
123.57697
  0
LINE
  8
Engraving
 62
   7
 39
0.200
  6
CONTINUOUS
 10
30.35382
 20
123.57697
 30
 0
 11
30.35382
 21
119.56500
  0
LINE
  8
Engraving
 62
   7
 39
0.200
  6
CONTINUOUS
 10
30.35382
 20
119.56500
 30
 0
 11
29.83052
 21
119.56500
  0
LINE
  8
Engraving
 62
   7
 39
0.200
  6
CONTINUOUS
 10
29.83052
 20
119.56500
 30
 0
 11
29.83052
 21
124.79800
  0
LINE
  8
Engraving
 62
   7
 39
0.200
  6
CONTINUOUS
 10
29.83052
 20
124.79800
 30
 0
 11
30.44103
 21
124.79800
  0
LINE
  8
Engraving
 62
   7
 39
0.200
  6
CONTINUOUS
 10
30.44103
 20
124.79800
 30
 0
 11
32.18537
 21
120.08830
  0
LINE
  8
Engraving
 62
   7
 39
0.200
  6
CONTINUOUS
 10
32.18537
 20
120.08830
 30
 0
 11
33.92970
 21
124.79800
  0
LINE
  8
Engraving
 62
   7
 39
0.200
  6
CONTINUOUS
 10
33.92970
 20
124.79800
 30
 0
 11
34.54022
 21
124.79800
  0
LINE
  8
Engraving
 62
   7
 39
0.200
  6
CONTINUOUS
 10
34.54022
 20
124.79800
 30
 0
 11
34.54022
 21
119.56500
  0
LINE
  8
Engraving
 62
   7
 39
0.200
  6
CONTINUOUS
 10
34.54022
 20
119.56500
 30
 0
 11
34.01692
 21
119.56500
  0
LINE
  8
Engraving
 62
   7
 39
0.200
  6
CONTINUOUS
 10
36.24121
 20
124.27470
 30
 0
 11
36.24121
 21
120.08830
  0
LINE
  8
Engraving
 62
   7
 39
0.200
  6
CONTINUOUS
 10
36.24121
 20
120.08830
 30
 0
 11
37.98554
 21
120.08830
  0
ARC
  8
Engraving
 62
   7
 39
0.200
  6
CONTINUOUS
 10
37.98554
 20
122.18150
 30
 0
 40
2.09320
 50
270.00000
 51
450.00000
  0
LINE
  8
Engraving
 62
   7
 39
0.200
  6
CONTINUOUS
 10
37.98554
 20
124.27470
 30
 0
 11
36.24121
 21
124.27470
  0
LINE
  8
Engraving
 62
   7
 39
0.200
  6
CONTINUOUS
 10
36.24121
 20
124.27470
 30
 0
 11
36.15399
 21
124.36192
  0
LINE
  8
Engraving
 62
   7
 39
0.200
  6
CONTINUOUS
 10
36.15399
 20
124.36192
 30
 0
 11
36.15399
 21
120.00108
  0
LINE
  8
Engraving
 62
   7
 39
0.200
  6
CONTINUOUS
 10
36.15399
 20
120.00108
 30
 0
 11
37.98554
 21
120.00108
  0
ARC
  8
Engraving
 62
   7
 39
0.200
  6
CONTINUOUS
 10
37.98554
 20
122.18150
 30
 0
 40
2.18042
 50
270.00000
 51
450.00000
  0
LINE
  8
Engraving
 62
   7
 39
0.200
  6
CONTINUOUS
 10
37.98554
 20
124.36192
 30
 0
 11
36.15399
 21
124.36192
  0
LINE
  8
Engraving
 62
   7
 39
0.200
  6
CONTINUOUS
 10
36.15399
 20
124.36192
 30
 0
 11
36.06677
 21
124.44913
  0
LINE
  8
Engraving
 62
   7
 39
0.200
  6
CONTINUOUS
 10
36.06677
 20
124.44913
 30
 0
 11
36.06677
 21
119.91387
  0
LINE
  8
Engraving
 62
   7
 39
0.200
  6
CONTINUOUS
 10
36.06677
 20
119.91387
 30
 0
 11
37.98554
 21
119.91387
  0
ARC
  8
Engraving
 62
   7
 39
0.200
  6
CONTINUOUS
 10
37.98554
 20
122.18150
 30
 0
 40
2.26763
 50
270.00000
 51
450.00000
  0
LINE
  8
Engraving
 62
   7
 39
0.200
  6
CONTINUOUS
 10
37.98554
 20
124.44913
 30
 0
 11
36.06677
 21
124.44913
  0
LINE
  8
Engraving
 62
   7
 39
0.200
  6
CONTINUOUS
 10
36.06677
 20
124.44913
 30
 0
 11
35.97956
 21
124.53635
  0
LINE
  8
Engraving
 62
   7
 39
0.200
  6
CONTINUOUS
 10
35.97956
 20
124.53635
 30
 0
 11
35.97956
 21
119.82665
  0
LINE
  8
Engraving
 62
   7
 39
0.200
  6
CONTINUOUS
 10
35.97956
 20
119.82665
 30
 0
 11
37.98554
 21
119.82665
  0
ARC
  8
Engraving
 62
   7
 39
0.200
  6
CONTINUOUS
 10
37.98554
 20
122.18150
 30
 0
 40
2.35485
 50
270.00000
 51
450.00000
  0
LINE
  8
Engraving
 62
   7
 39
0.200
  6
CONTINUOUS
 10
37.98554
 20
124.53635
 30
 0
 11
35.97956
 21
124.53635
  0
LINE
  8
Engraving
 62
   7
 39
0.200
  6
CONTINUOUS
 10
35.97956
 20
124.53635
 30
 0
 11
35.89234
 21
124.62357
  0
LINE
  8
Engraving
 62
   7
 39
0.200
  6
CONTINUOUS
 10
35.89234
 20
124.62357
 30
 0
 11
35.89234
 21
119.73943
  0
LINE
  8
Engraving
 62
   7
 39
0.200
  6
CONTINUOUS
 10
35.89234
 20
119.73943
 30
 0
 11
37.98554
 21
119.73943
  0
ARC
  8
Engraving
 62
   7
 39
0.200
  6
CONTINUOUS
 10
37.98554
 20
122.18150
 30
 0
 40
2.44207
 50
270.00000
 51
450.00000
  0
LINE
  8
Engraving
 62
   7
 39
0.200
  6
CONTINUOUS
 10
37.98554
 20
124.62357
 30
 0
 11
35.89234
 21
124.62357
  0
LINE
  8
Engraving
 62
   7
 39
0.200
  6
CONTINUOUS
 10
35.89234
 20
124.62357
 30
 0
 11
35.80513
 21
124.71078
  0
LINE
  8
Engraving
 62
   7
 39
0.200
  6
CONTINUOUS
 10
35.80513
 20
124.71078
 30
 0
 11
35.80513
 21
119.65222
  0
LINE
  8
Engraving
 62
   7
 39
0.200
  6
CONTINUOUS
 10
35.80513
 20
119.65222
 30
 0
 11
37.98554
 21
119.65222
  0
ARC
  8
Engraving
 62
   7
 39
0.200
  6
CONTINUOUS
 10
37.98554
 20
122.18150
 30
 0
 40
2.52928
 50
270.00000
 51
450.00000
  0
LINE
  8
Engraving
 62
   7
 39
0.200
  6
CONTINUOUS
 10
37.98554
 20
124.71078
 30
 0
 11
35.80513
 21
124.71078
  0
LINE
  8
Engraving
 62
   7
 39
0.200
  6
CONTINUOUS
 10
35.80513
 20
124.71078
 30
 0
 11
35.71791
 21
124.79800
  0
LINE
  8
Engraving
 62
   7
 39
0.200
  6
CONTINUOUS
 10
35.71791
 20
124.79800
 30
 0
 11
35.71791
 21
119.56500
  0
LINE
  8
Engraving
 62
   7
 39
0.200
  6
CONTINUOUS
 10
35.71791
 20
119.56500
 30
 0
 11
37.98554
 21
119.56500
  0
ARC
  8
Engraving
 62
   7
 39
0.200
  6
CONTINUOUS
 10
37.98554
 20
122.18150
 30
 0
 40
2.61650
 50
270.00000
 51
450.00000
  0
LINE
  8
Engraving
 62
   7
 39
0.200
  6
CONTINUOUS
 10
37.98554
 20
124.79800
 30
 0
 11
35.71791
 21
124.79800
  0
LINE
  8
Engraving
 62
   7
 39
0.200
  6
CONTINUOUS
 10
42.04017
 20
119.82665
 30
 0
 11
42.04017
 21
124.53635
  0
LINE
  8
Engraving
 62
   7
 39
0.200
  6
CONTINUOUS
 10
42.04017
 20
124.53635
 30
 0
 11
42.17099
 21
124.53635
  0
LINE
  8
Engraving
 62
   7
 39
0.200
  6
CONTINUOUS
 10
42.17099
 20
124.53635
 30
 0
 11
44.00254
 21
119.73943
  0
LINE
  8
Engraving
 62
   7
 39
0.200
  6
CONTINUOUS
 10
44.00254
 20
119.73943
 30
 0
 11
44.22058
 21
119.73943
  0
LINE
  8
Engraving
 62
   7
 39
0.200
  6
CONTINUOUS
 10
44.22058
 20
119.73943
 30
 0
 11
46.05213
 21
124.53635
  0
LINE
  8
Engraving
 62
   7
 39
0.200
  6
CONTINUOUS
 10
46.05213
 20
124.53635
 30
 0
 11
46.22657
 21
124.53635
  0
LINE
  8
Engraving
 62
   7
 39
0.200
  6
CONTINUOUS
 10
46.22657
 20
124.53635
 30
 0
 11
46.22657
 21
119.82665
  0
LINE
  8
Engraving
 62
   7
 39
0.200
  6
CONTINUOUS
 10
46.22657
 20
119.82665
 30
 0
 11
46.13935
 21
119.73943
  0
LINE
  8
Engraving
 62
   7
 39
0.200
  6
CONTINUOUS
 10
46.13935
 20
119.73943
 30
 0
 11
46.13935
 21
124.44913
  0
LINE
  8
Engraving
 62
   7
 39
0.200
  6
CONTINUOUS
 10
46.13935
 20
124.44913
 30
 0
 11
46.09574
 21
124.44913
  0
LINE
  8
Engraving
 62
   7
 39
0.200
  6
CONTINUOUS
 10
46.09574
 20
124.44913
 30
 0
 11
44.30780
 21
119.69582
  0
LINE
  8
Engraving
 62
   7
 39
0.200
  6
CONTINUOUS
 10
44.30780
 20
119.69582
 30
 0
 11
43.91532
 21
119.69582
  0
LINE
  8
Engraving
 62
   7
 39
0.200
  6
CONTINUOUS
 10
43.91532
 20
119.69582
 30
 0
 11
42.17099
 21
124.40552
  0
LINE
  8
Engraving
 62
   7
 39
0.200
  6
CONTINUOUS
 10
42.17099
 20
124.40552
 30
 0
 11
42.12738
 21
124.40552
  0
LINE
  8
Engraving
 62
   7
 39
0.200
  6
CONTINUOUS
 10
42.12738
 20
124.40552
 30
 0
 11
42.12738
 21
119.73943
  0
LINE
  8
Engraving
 62
   7
 39
0.200
  6
CONTINUOUS
 10
42.12738
 20
119.73943
 30
 0
 11
41.95295
 21
119.73943
  0
LINE
  8
Engraving
 62
   7
 39
0.200
  6
CONTINUOUS
 10
41.95295
 20
119.73943
 30
 0
 11
41.95295
 21
124.62357
  0
LINE
  8
Engraving
 62
   7
 39
0.200
  6
CONTINUOUS
 10
41.95295
 20
124.62357
 30
 0
 11
42.21460
 21
124.62357
  0
LINE
  8
Engraving
 62
   7
 39
0.200
  6
CONTINUOUS
 10
42.21460
 20
124.62357
 30
 0
 11
44.08976
 21
119.82665
  0
LINE
  8
Engraving
 62
   7
 39
0.200
  6
CONTINUOUS
 10
44.08976
 20
119.82665
 30
 0
 11
44.17697
 21
119.82665
  0
LINE
  8
Engraving
 62
   7
 39
0.200
  6
CONTINUOUS
 10
44.17697
 20
119.82665
 30
 0
 11
46.00852
 21
124.62357
  0
LINE
  8
Engraving
 62
   7
 39
0.200
  6
CONTINUOUS
 10
46.00852
 20
124.62357
 30
 0
 11
46.31378
 21
124.62357
  0
LINE
  8
Engraving
 62
   7
 39
0.200
  6
CONTINUOUS
 10
46.31378
 20
124.62357
 30
 0
 11
46.31378
 21
119.73943
  0
LINE
  8
Engraving
 62
   7
 39
0.200
  6
CONTINUOUS
 10
46.31378
 20
119.73943
 30
 0
 11
46.13935
 21
119.73943
  0
LINE
  8
Engraving
 62
   7
 39
0.200
  6
CONTINUOUS
 10
46.13935
 20
119.73943
 30
 0
 11
46.05213
 21
119.65222
  0
LINE
  8
Engraving
 62
   7
 39
0.200
  6
CONTINUOUS
 10
46.05213
 20
119.65222
 30
 0
 11
46.05213
 21
123.92583
  0
LINE
  8
Engraving
 62
   7
 39
0.200
  6
CONTINUOUS
 10
46.05213
 20
123.92583
 30
 0
 11
46.05213
 21
124.18748
  0
LINE
  8
Engraving
 62
   7
 39
0.200
  6
CONTINUOUS
 10
46.05213
 20
124.18748
 30
 0
 11
45.92131
 21
123.66418
  0
LINE
  8
Engraving
 62
   7
 39
0.200
  6
CONTINUOUS
 10
45.92131
 20
123.66418
 30
 0
 11
44.39502
 21
119.65222
  0
LINE
  8
Engraving
 62
   7
 39
0.200
  6
CONTINUOUS
 10
44.39502
 20
119.65222
 30
 0
 11
43.82811
 21
119.65222
  0
LINE
  8
Engraving
 62
   7
 39
0.200
  6
CONTINUOUS
 10
43.82811
 20
119.65222
 30
 0
 11
42.34542
 21
123.66418
  0
LINE
  8
Engraving
 62
   7
 39
0.200
  6
CONTINUOUS
 10
42.34542
 20
123.66418
 30
 0
 11
42.21460
 21
124.18748
  0
LINE
  8
Engraving
 62
   7
 39
0.200
  6
CONTINUOUS
 10
42.21460
 20
124.18748
 30
 0
 11
42.21460
 21
119.65222
  0
LINE
  8
Engraving
 62
   7
 39
0.200
  6
CONTINUOUS
 10
42.21460
 20
119.65222
 30
 0
 11
41.86573
 21
119.65222
  0
LINE
  8
Engraving
 62
   7
 39
0.200
  6
CONTINUOUS
 10
41.86573
 20
119.65222
 30
 0
 11
41.86573
 21
124.71078
  0
LINE
  8
Engraving
 62
   7
 39
0.200
  6
CONTINUOUS
 10
41.86573
 20
124.71078
 30
 0
 11
42.30182
 21
124.71078
  0
LINE
  8
Engraving
 62
   7
 39
0.200
  6
CONTINUOUS
 10
42.30182
 20
124.71078
 30
 0
 11
44.13337
 21
119.91387
  0
LINE
  8
Engraving
 62
   7
 39
0.200
  6
CONTINUOUS
 10
44.13337
 20
119.91387
 30
 0
 11
45.96492
 21
124.71078
  0
LINE
  8
Engraving
 62
   7
 39
0.200
  6
CONTINUOUS
 10
45.96492
 20
124.71078
 30
 0
 11
46.40100
 21
124.71078
  0
LINE
  8
Engraving
 62
   7
 39
0.200
  6
CONTINUOUS
 10
46.40100
 20
124.71078
 30
 0
 11
46.40100
 21
119.65222
  0
LINE
  8
Engraving
 62
   7
 39
0.200
  6
CONTINUOUS
 10
46.40100
 20
119.65222
 30
 0
 11
46.05213
 21
119.65222
  0
LINE
  8
Engraving
 62
   7
 39
0.200
  6
CONTINUOUS
 10
46.05213
 20
119.65222
 30
 0
 11
45.96492
 21
119.56500
  0
LINE
  8
Engraving
 62
   7
 39
0.200
  6
CONTINUOUS
 10
45.96492
 20
119.56500
 30
 0
 11
45.96492
 21
123.57697
  0
LINE
  8
Engraving
 62
   7
 39
0.200
  6
CONTINUOUS
 10
45.96492
 20
123.57697
 30
 0
 11
44.48223
 21
119.56500
  0
LINE
  8
Engraving
 62
   7
 39
0.200
  6
CONTINUOUS
 10
44.48223
 20
119.56500
 30
 0
 11
43.78450
 21
119.56500
  0
LINE
  8
Engraving
 62
   7
 39
0.200
  6
CONTINUOUS
 10
43.78450
 20
119.56500
 30
 0
 11
42.30182
 21
123.57697
  0
LINE
  8
Engraving
 62
   7
 39
0.200
  6
CONTINUOUS
 10
42.30182
 20
123.57697
 30
 0
 11
42.30182
 21
119.56500
  0
LINE
  8
Engraving
 62
   7
 39
0.200
  6
CONTINUOUS
 10
42.30182
 20
119.56500
 30
 0
 11
41.77852
 21
119.56500
  0
LINE
  8
Engraving
 62
   7
 39
0.200
  6
CONTINUOUS
 10
41.77852
 20
119.56500
 30
 0
 11
41.77852
 21
124.79800
  0
LINE
  8
Engraving
 62
   7
 39
0.200
  6
CONTINUOUS
 10
41.77852
 20
124.79800
 30
 0
 11
42.38903
 21
124.79800
  0
LINE
  8
Engraving
 62
   7
 39
0.200
  6
CONTINUOUS
 10
42.38903
 20
124.79800
 30
 0
 11
44.13337
 21
120.08830
  0
LINE
  8
Engraving
 62
   7
 39
0.200
  6
CONTINUOUS
 10
44.13337
 20
120.08830
 30
 0
 11
45.87770
 21
124.79800
  0
LINE
  8
Engraving
 62
   7
 39
0.200
  6
CONTINUOUS
 10
45.87770
 20
124.79800
 30
 0
 11
46.48822
 21
124.79800
  0
LINE
  8
Engraving
 62
   7
 39
0.200
  6
CONTINUOUS
 10
46.48822
 20
124.79800
 30
 0
 11
46.48822
 21
119.56500
  0
LINE
  8
Engraving
 62
   7
 39
0.200
  6
CONTINUOUS
 10
46.48822
 20
119.56500
 30
 0
 11
45.96492
 21
119.56500
  0
ARC
  8
Engraving
 62
   7
 39
0.200
  6
CONTINUOUS
 10
49.51204
 20
123.22866
 30
 0
 40
1.36744
 50
135.47836
 51
180.02360
  0
ARC
  8
Engraving
 62
   7
 39
0.200
  6
CONTINUOUS
 10
49.45285
 20
123.24990
 30
 0
 40
1.31061
 50
-45.67403
 51
134.32596
  0
LINE
  8
Engraving
 62
   7
 39
0.200
  6
CONTINUOUS
 10
50.36862
 20
122.31233
 30
 0
 11
48.36264
 21
120.61160
  0
ARC
  8
Engraving
 62
   7
 39
0.200
  6
CONTINUOUS
 10
49.38161
 20
119.61152
 30
 0
 40
1.42774
 50
135.53603
 51
171.33386
  0
LINE
  8
Engraving
 62
   7
 39
0.200
  6
CONTINUOUS
 10
47.97017
 20
119.82665
 30
 0
 11
50.80471
 21
119.82665
  0
LINE
  8
Engraving
 62
   7
 39
0.200
  6
CONTINUOUS
 10
50.80471
 20
119.82665
 30
 0
 11
50.89193
 21
119.91387
  0
LINE
  8
Engraving
 62
   7
 39
0.200
  6
CONTINUOUS
 10
50.89193
 20
119.91387
 30
 0
 11
48.05738
 21
119.91387
  0
ARC
  8
Engraving
 62
   7
 39
0.200
  6
CONTINUOUS
 10
49.45341
 20
119.52106
 30
 0
 40
1.45023
 50
133.78786
 51
164.28463
  0
LINE
  8
Engraving
 62
   7
 39
0.200
  6
CONTINUOUS
 10
48.44986
 20
120.56799
 30
 0
 11
50.45584
 21
122.26872
  0
ARC
  8
Engraving
 62
   7
 39
0.200
  6
CONTINUOUS
 10
49.45285
 20
123.24990
 30
 0
 40
1.40311
 50
315.62960
 51
495.62960
  0
ARC
  8
Engraving
 62
   7
 39
0.200
  6
CONTINUOUS
 10
49.47806
 20
123.25047
 30
 0
 40
1.42085
 50
136.35676
 51
180.90200
  0
LINE
  8
Engraving
 62
   7
 39
0.200
  6
CONTINUOUS
 10
48.05738
 20
123.22810
 30
 0
 11
48.05738
 21
123.14088
  0
LINE
  8
Engraving
 62
   7
 39
0.200
  6
CONTINUOUS
 10
48.05738
 20
123.14088
 30
 0
 11
48.23182
 21
123.14088
  0
LINE
  8
Engraving
 62
   7
 39
0.200
  6
CONTINUOUS
 10
48.23182
 20
123.14088
 30
 0
 11
48.23182
 21
123.22810
  0
ARC
  8
Engraving
 62
   7
 39
0.200
  6
CONTINUOUS
 10
49.47098
 20
123.23829
 30
 0
 40
1.23921
 50
135.92597
 51
180.47121
  0
ARC
  8
Engraving
 62
   7
 39
0.200
  6
CONTINUOUS
 10
49.45285
 20
123.24990
 30
 0
 40
1.21811
 50
-44.27477
 51
135.72522
  0
LINE
  8
Engraving
 62
   7
 39
0.200
  6
CONTINUOUS
 10
50.32502
 20
122.39954
 30
 0
 11
48.31903
 21
120.69882
  0
ARC
  8
Engraving
 62
   7
 39
0.200
  6
CONTINUOUS
 10
49.38192
 20
119.63688
 30
 0
 40
1.50247
 50
135.02576
 51
176.08633
  0
LINE
  8
Engraving
 62
   7
 39
0.200
  6
CONTINUOUS
 10
47.88295
 20
119.73943
 30
 0
 11
50.89193
 21
119.73943
  0
LINE
  8
Engraving
 62
   7
 39
0.200
  6
CONTINUOUS
 10
50.89193
 20
119.73943
 30
 0
 11
50.89193
 21
119.91387
  0
LINE
  8
Engraving
 62
   7
 39
0.200
  6
CONTINUOUS
 10
50.89193
 20
119.91387
 30
 0
 11
50.97914
 21
120.00108
  0
LINE
  8
Engraving
 62
   7
 39
0.200
  6
CONTINUOUS
 10
50.97914
 20
120.00108
 30
 0
 11
48.18821
 21
120.00108
  0
ARC
  8
Engraving
 62
   7
 39
0.200
  6
CONTINUOUS
 10
49.41549
 20
119.55706
 30
 0
 40
1.30513
 50
134.94747
 51
160.11015
  0
LINE
  8
Engraving
 62
   7
 39
0.200
  6
CONTINUOUS
 10
48.49347
 20
120.48077
 30
 0
 11
50.49945
 21
122.18150
  0
ARC
  8
Engraving
 62
   7
 39
0.200
  6
CONTINUOUS
 10
49.45285
 20
123.22810
 30
 0
 40
1.48012
 50
315.00000
 51
495.00000
  0
ARC
  8
Engraving
 62
   7
 39
0.200
  6
CONTINUOUS
 10
49.46588
 20
123.21903
 30
 0
 40
1.49575
 50
135.10752
 51
179.65275
  0
LINE
  8
Engraving
 62
   7
 39
0.200
  6
CONTINUOUS
 10
47.97017
 20
123.22810
 30
 0
 11
47.97017
 21
123.05367
  0
LINE
  8
Engraving
 62
   7
 39
0.200
  6
CONTINUOUS
 10
47.97017
 20
123.05367
 30
 0
 11
48.31903
 21
123.05367
  0
LINE
  8
Engraving
 62
   7
 39
0.200
  6
CONTINUOUS
 10
48.31903
 20
123.05367
 30
 0
 11
48.31903
 21
123.22810
  0
ARC
  8
Engraving
 62
   7
 39
0.200
  6
CONTINUOUS
 10
49.45285
 20
123.22810
 30
 0
 40
1.13382
 50
0.00000
 51
180.00000
  0
ARC
  8
Engraving
 62
   7
 39
0.200
  6
CONTINUOUS
 10
49.45398
 20
123.26152
 30
 0
 40
1.13318
 50
313.76489
 51
358.31013
  0
LINE
  8
Engraving
 62
   7
 39
0.200
  6
CONTINUOUS
 10
50.23780
 20
122.44315
 30
 0
 11
48.23182
 21
120.74242
  0
ARC
  8
Engraving
 62
   7
 39
0.200
  6
CONTINUOUS
 10
49.77299
 20
119.41367
 30
 0
 40
2.03490
 50
139.23310
 51
173.26791
  0
LINE
  8
Engraving
 62
   7
 39
0.200
  6
CONTINUOUS
 10
47.75212
 20
119.65222
 30
 0
 11
50.97914
 21
119.65222
  0
LINE
  8
Engraving
 62
   7
 39
0.200
  6
CONTINUOUS
 10
50.97914
 20
119.65222
 30
 0
 11
50.97914
 21
120.00108
  0
LINE
  8
Engraving
 62
   7
 39
0.200
  6
CONTINUOUS
 10
50.97914
 20
120.00108
 30
 0
 11
51.10997
 21
120.08830
  0
LINE
  8
Engraving
 62
   7
 39
0.200
  6
CONTINUOUS
 10
51.10997
 20
120.08830
 30
 0
 11
48.31903
 21
120.08830
  0
ARC
  8
Engraving
 62
   7
 39
0.200
  6
CONTINUOUS
 10
49.44926
 20
119.51318
 30
 0
 40
1.26814
 50
133.22956
 51
153.03065
  0
LINE
  8
Engraving
 62
   7
 39
0.200
  6
CONTINUOUS
 10
48.58068
 20
120.43717
 30
 0
 11
50.58667
 21
122.13789
  0
ARC
  8
Engraving
 62
   7
 39
0.200
  6
CONTINUOUS
 10
49.47380
 20
123.21536
 30
 0
 40
1.54901
 50
315.92597
 51
360.47121
  0
ARC
  8
Engraving
 62
   7
 39
0.200
  6
CONTINUOUS
 10
49.45285
 20
123.22810
 30
 0
 40
1.56990
 50
0.00000
 51
180.00000
  0
LINE
  8
Engraving
 62
   7
 39
0.200
  6
CONTINUOUS
 10
47.88295
 20
123.22810
 30
 0
 11
47.88295
 21
122.96645
  0
LINE
  8
Engraving
 62
   7
 39
0.200
  6
CONTINUOUS
 10
47.88295
 20
122.96645
 30
 0
 11
48.40625
 21
122.96645
  0
LINE
  8
Engraving
 62
   7
 39
0.200
  6
CONTINUOUS
 10
48.40625
 20
122.96645
 30
 0
 11
48.40625
 21
123.22810
  0
ARC
  8
Engraving
 62
   7
 39
0.200
  6
CONTINUOUS
 10
49.46390
 20
123.22612
 30
 0
 40
1.05765
 50
135.34725
 51
179.89248
  0
ARC
  8
Engraving
 62
   7
 39
0.200
  6
CONTINUOUS
 10
49.45285
 20
123.22810
 30
 0
 40
1.04842
 50
-45.00000
 51
135.00000
  0
LINE
  8
Engraving
 62
   7
 39
0.200
  6
CONTINUOUS
 10
50.19419
 20
122.48676
 30
 0
 11
48.18821
 21
120.78603
  0
ARC
  8
Engraving
 62
   7
 39
0.200
  6
CONTINUOUS
 10
49.41718
 20
119.53668
 30
 0
 40
1.75250
 50
134.52879
 51
179.07403
  0
LINE
  8
Engraving
 62
   7
 39
0.200
  6
CONTINUOUS
 10
47.66491
 20
119.56500
 30
 0
 11
51.10997
 21
119.56500
  0
LINE
  8
Engraving
 62
   7
 39
0.200
  6
CONTINUOUS
 10
51.10997
 20
119.56500
 30
 0
 11
51.10997
 21
120.08830
  0
LINE
  8
Engraving
 62
   7
 39
0.400
  6
CONTINUOUS
 10
40.38726
 20
46.62200
 30
 0
 11
40.38726
 21
49.67900
  0
LINE
  8
Engraving
 62
   7
 39
0.400
  6
CONTINUOUS
 10
39.56885
 20
49.67900
 30
 0
 11
41.22974
 21
49.67900
  0
LINE
  8
Engraving
 62
   7
 39
0.400
  6
CONTINUOUS
 10
41.85592
 20
48.76431
 30
 0
 11
42.50583
 21
46.62200
  0
LINE
  8
Engraving
 62
   7
 39
0.400
  6
CONTINUOUS
 10
42.50583
 20
46.62200
 30
 0
 11
43.10761
 21
48.76431
  0
LINE
  8
Engraving
 62
   7
 39
0.400
  6
CONTINUOUS
 10
43.10761
 20
48.76431
 30
 0
 11
43.70938
 21
46.62200
  0
LINE
  8
Engraving
 62
   7
 39
0.400
  6
CONTINUOUS
 10
43.70938
 20
46.62200
 30
 0
 11
44.35929
 21
48.76431
  0
LINE
  8
Engraving
 62
   7
 39
0.400
  6
CONTINUOUS
 10
44.96185
 20
49.41422
 30
 0
 11
44.96185
 21
49.67900
  0
LINE
  8
Engraving
 62
   7
 39
0.400
  6
CONTINUOUS
 10
44.96185
 20
49.67900
 30
 0
 11
45.22663
 21
49.67900
  0
LINE
  8
Engraving
 62
   7
 39
0.400
  6
CONTINUOUS
 10
45.22663
 20
49.67900
 30
 0
 11
45.22663
 21
49.41422
  0
LINE
  8
Engraving
 62
   7
 39
0.400
  6
CONTINUOUS
 10
45.22663
 20
49.41422
 30
 0
 11
44.96185
 21
49.41422
  0
LINE
  8
Engraving
 62
   7
 39
0.400
  6
CONTINUOUS
 10
45.10628
 20
48.76431
 30
 0
 11
45.10628
 21
46.62200
  0
LINE
  8
Engraving
 62
   7
 39
0.400
  6
CONTINUOUS
 10
45.82885
 20
46.62300
 30
 0
 11
45.82885
 21
48.76531
  0
LINE
  8
Engraving
 62
   7
 39
0.400
  6
CONTINUOUS
 10
45.82885
 20
48.76531
 30
 0
 11
45.82885
 21
48.54867
  0
LINE
  8
Engraving
 62
   7
 39
0.400
  6
CONTINUOUS
 10
45.82885
 20
48.54867
 30
 0
 11
45.99735
 21
48.64495
  0
LINE
  8
Engraving
 62
   7
 39
0.400
  6
CONTINUOUS
 10
45.99735
 20
48.64495
 30
 0
 11
46.16584
 21
48.71717
  0
LINE
  8
Engraving
 62
   7
 39
0.400
  6
CONTINUOUS
 10
46.16584
 20
48.71717
 30
 0
 11
46.26213
 21
48.76531
  0
LINE
  8
Engraving
 62
   7
 39
0.400
  6
CONTINUOUS
 10
46.26213
 20
48.76531
 30
 0
 11
46.47876
 21
48.78938
  0
LINE
  8
Engraving
 62
   7
 39
0.400
  6
CONTINUOUS
 10
46.47876
 20
48.78938
 30
 0
 11
46.69540
 21
48.76531
  0
LINE
  8
Engraving
 62
   7
 39
0.400
  6
CONTINUOUS
 10
46.69540
 20
48.76531
 30
 0
 11
46.88797
 21
48.64495
  0
LINE
  8
Engraving
 62
   7
 39
0.400
  6
CONTINUOUS
 10
46.88797
 20
48.64495
 30
 0
 11
47.00832
 21
48.50053
  0
LINE
  8
Engraving
 62
   7
 39
0.400
  6
CONTINUOUS
 10
47.00832
 20
48.50053
 30
 0
 11
47.05646
 21
48.23575
  0
LINE
  8
Engraving
 62
   7
 39
0.400
  6
CONTINUOUS
 10
47.05646
 20
48.23575
 30
 0
 11
47.05646
 21
46.62300
  0
LINE
  8
Engraving
 62
   7
 39
0.400
  6
CONTINUOUS
 10
47.65785
 20
47.92283
 30
 0
 11
49.27060
 21
47.92283
  0
LINE
  8
Engraving
 62
   7
 39
0.400
  6
CONTINUOUS
 10
50.69026
 20
46.62300
 30
 0
 11
50.69026
 21
49.68000
  0
LINE
  8
Engraving
 62
   7
 39
0.400
  6
CONTINUOUS
 10
49.87185
 20
49.68000
 30
 0
 11
51.53274
 21
49.68000
  0
LINE
  8
Engraving
 62
   7
 39
0.400
  6
CONTINUOUS
 10
62.54517
 20
114.56759
 30
 0
 11
62.54517
 21
113.74017
  0
LINE
  8
Engraving
 62
   7
 39
0.400
  6
CONTINUOUS
 10
62.54517
 20
113.74017
 30
 0
 11
62.58554
 21
113.53835
  0
LINE
  8
Engraving
 62
   7
 39
0.400
  6
CONTINUOUS
 10
62.58554
 20
113.53835
 30
 0
 11
62.66626
 21
113.41727
  0
LINE
  8
Engraving
 62
   7
 39
0.400
  6
CONTINUOUS
 10
62.66626
 20
113.41727
 30
 0
 11
62.76717
 21
113.33654
  0
LINE
  8
Engraving
 62
   7
 39
0.400
  6
CONTINUOUS
 10
62.76717
 20
113.33654
 30
 0
 11
62.90843
 21
113.25582
  0
LINE
  8
Engraving
 62
   7
 39
0.400
  6
CONTINUOUS
 10
62.90843
 20
113.25582
 30
 0
 11
63.02952
 21
113.25582
  0
LINE
  8
Engraving
 62
   7
 39
0.400
  6
CONTINUOUS
 10
63.02952
 20
113.25582
 30
 0
 11
63.35242
 21
113.25582
  0
LINE
  8
Engraving
 62
   7
 39
0.400
  6
CONTINUOUS
 10
63.35242
 20
113.25582
 30
 0
 11
63.53405
 21
113.27600
  0
LINE
  8
Engraving
 62
   7
 39
0.400
  6
CONTINUOUS
 10
63.53405
 20
113.27600
 30
 0
 11
63.67531
 21
113.35672
  0
LINE
  8
Engraving
 62
   7
 39
0.400
  6
CONTINUOUS
 10
63.67531
 20
113.35672
 30
 0
 11
63.79640
 21
113.51817
  0
LINE
  8
Engraving
 62
   7
 39
0.400
  6
CONTINUOUS
 10
63.79640
 20
113.51817
 30
 0
 11
63.85694
 21
113.74017
  0
LINE
  8
Engraving
 62
   7
 39
0.400
  6
CONTINUOUS
 10
63.85694
 20
113.74017
 30
 0
 11
63.85694
 21
115.37483
  0
LINE
  8
Engraving
 62
   7
 39
0.400
  6
CONTINUOUS
 10
63.85694
 20
115.37483
 30
 0
 11
63.81658
 21
115.53628
  0
LINE
  8
Engraving
 62
   7
 39
0.400
  6
CONTINUOUS
 10
63.81658
 20
115.53628
 30
 0
 11
63.73586
 21
115.69773
  0
LINE
  8
Engraving
 62
   7
 39
0.400
  6
CONTINUOUS
 10
63.73586
 20
115.69773
 30
 0
 11
63.63495
 21
115.77846
  0
LINE
  8
Engraving
 62
   7
 39
0.400
  6
CONTINUOUS
 10
63.63495
 20
115.77846
 30
 0
 11
63.53405
 21
115.83900
  0
LINE
  8
Engraving
 62
   7
 39
0.400
  6
CONTINUOUS
 10
63.53405
 20
115.83900
 30
 0
 11
63.35242
 21
115.85918
  0
LINE
  8
Engraving
 62
   7
 39
0.400
  6
CONTINUOUS
 10
63.35242
 20
115.85918
 30
 0
 11
63.02952
 21
115.85918
  0
LINE
  8
Engraving
 62
   7
 39
0.400
  6
CONTINUOUS
 10
63.02952
 20
115.85918
 30
 0
 11
62.86807
 21
115.83900
  0
LINE
  8
Engraving
 62
   7
 39
0.400
  6
CONTINUOUS
 10
62.86807
 20
115.83900
 30
 0
 11
62.72680
 21
115.75828
  0
LINE
  8
Engraving
 62
   7
 39
0.400
  6
CONTINUOUS
 10
62.72680
 20
115.75828
 30
 0
 11
62.62590
 21
115.65737
  0
LINE
  8
Engraving
 62
   7
 39
0.400
  6
CONTINUOUS
 10
62.62590
 20
115.65737
 30
 0
 11
62.56535
 21
115.53628
  0
LINE
  8
Engraving
 62
   7
 39
0.400
  6
CONTINUOUS
 10
62.56535
 20
115.53628
 30
 0
 11
62.54517
 21
115.37483
  0
LINE
  8
Engraving
 62
   7
 39
0.400
  6
CONTINUOUS
 10
62.54517
 20
115.37483
 30
 0
 11
62.54517
 21
114.56759
  0
LINE
  8
Engraving
 62
   7
 39
0.400
  6
CONTINUOUS
 10
64.38235
 20
114.08324
 30
 0
 11
64.38235
 21
113.74017
  0
LINE
  8
Engraving
 62
   7
 39
0.400
  6
CONTINUOUS
 10
64.38235
 20
113.74017
 30
 0
 11
64.42272
 21
113.55854
  0
LINE
  8
Engraving
 62
   7
 39
0.400
  6
CONTINUOUS
 10
64.42272
 20
113.55854
 30
 0
 11
64.52362
 21
113.39709
  0
LINE
  8
Engraving
 62
   7
 39
0.400
  6
CONTINUOUS
 10
64.52362
 20
113.39709
 30
 0
 11
64.66489
 21
113.29618
  0
LINE
  8
Engraving
 62
   7
 39
0.400
  6
CONTINUOUS
 10
64.66489
 20
113.29618
 30
 0
 11
64.86670
 21
113.25582
  0
LINE
  8
Engraving
 62
   7
 39
0.400
  6
CONTINUOUS
 10
64.86670
 20
113.25582
 30
 0
 11
65.10887
 21
113.25582
  0
LINE
  8
Engraving
 62
   7
 39
0.400
  6
CONTINUOUS
 10
65.10887
 20
113.25582
 30
 0
 11
65.25014
 21
113.27600
  0
LINE
  8
Engraving
 62
   7
 39
0.400
  6
CONTINUOUS
 10
65.25014
 20
113.27600
 30
 0
 11
65.43177
 21
113.37691
  0
LINE
  8
Engraving
 62
   7
 39
0.400
  6
CONTINUOUS
 10
65.43177
 20
113.37691
 30
 0
 11
65.55286
 21
113.53835
  0
LINE
  8
Engraving
 62
   7
 39
0.400
  6
CONTINUOUS
 10
65.55286
 20
113.53835
 30
 0
 11
65.59322
 21
113.74017
  0
LINE
  8
Engraving
 62
   7
 39
0.400
  6
CONTINUOUS
 10
65.59322
 20
113.74017
 30
 0
 11
65.59322
 21
113.88143
  0
LINE
  8
Engraving
 62
   7
 39
0.400
  6
CONTINUOUS
 10
65.59322
 20
113.88143
 30
 0
 11
65.55286
 21
114.02270
  0
LINE
  8
Engraving
 62
   7
 39
0.400
  6
CONTINUOUS
 10
65.55286
 20
114.02270
 30
 0
 11
65.47213
 21
114.18415
  0
LINE
  8
Engraving
 62
   7
 39
0.400
  6
CONTINUOUS
 10
65.47213
 20
114.18415
 30
 0
 11
65.39141
 21
114.26487
  0
LINE
  8
Engraving
 62
   7
 39
0.400
  6
CONTINUOUS
 10
65.39141
 20
114.26487
 30
 0
 11
65.27032
 21
114.36578
  0
LINE
  8
Engraving
 62
   7
 39
0.400
  6
CONTINUOUS
 10
65.27032
 20
114.36578
 30
 0
 11
64.68507
 21
114.89049
  0
LINE
  8
Engraving
 62
   7
 39
0.400
  6
CONTINUOUS
 10
64.68507
 20
114.89049
 30
 0
 11
64.58417
 21
114.97121
  0
LINE
  8
Engraving
 62
   7
 39
0.400
  6
CONTINUOUS
 10
64.58417
 20
114.97121
 30
 0
 11
64.48326
 21
115.09230
  0
LINE
  8
Engraving
 62
   7
 39
0.400
  6
CONTINUOUS
 10
64.48326
 20
115.09230
 30
 0
 11
64.44290
 21
115.15284
  0
LINE
  8
Engraving
 62
   7
 39
0.400
  6
CONTINUOUS
 10
64.44290
 20
115.15284
 30
 0
 11
64.42272
 21
115.25375
  0
LINE
  8
Engraving
 62
   7
 39
0.400
  6
CONTINUOUS
 10
64.42272
 20
115.25375
 30
 0
 11
64.42272
 21
115.43538
  0
LINE
  8
Engraving
 62
   7
 39
0.400
  6
CONTINUOUS
 10
64.42272
 20
115.43538
 30
 0
 11
64.48326
 21
115.61701
  0
LINE
  8
Engraving
 62
   7
 39
0.400
  6
CONTINUOUS
 10
64.48326
 20
115.61701
 30
 0
 11
64.56398
 21
115.73809
  0
LINE
  8
Engraving
 62
   7
 39
0.400
  6
CONTINUOUS
 10
64.56398
 20
115.73809
 30
 0
 11
64.68507
 21
115.81882
  0
LINE
  8
Engraving
 62
   7
 39
0.400
  6
CONTINUOUS
 10
64.68507
 20
115.81882
 30
 0
 11
64.88688
 21
115.85918
  0
LINE
  8
Engraving
 62
   7
 39
0.400
  6
CONTINUOUS
 10
64.88688
 20
115.85918
 30
 0
 11
65.08869
 21
115.85918
  0
LINE
  8
Engraving
 62
   7
 39
0.400
  6
CONTINUOUS
 10
65.08869
 20
115.85918
 30
 0
 11
65.20978
 21
115.83900
  0
LINE
  8
Engraving
 62
   7
 39
0.400
  6
CONTINUOUS
 10
65.20978
 20
115.83900
 30
 0
 11
65.35105
 21
115.77846
  0
LINE
  8
Engraving
 62
   7
 39
0.400
  6
CONTINUOUS
 10
65.35105
 20
115.77846
 30
 0
 11
65.45195
 21
115.67755
  0
LINE
  8
Engraving
 62
   7
 39
0.400
  6
CONTINUOUS
 10
65.45195
 20
115.67755
 30
 0
 11
65.53268
 21
115.53628
  0
LINE
  8
Engraving
 62
   7
 39
0.400
  6
CONTINUOUS
 10
65.53268
 20
115.53628
 30
 0
 11
65.55286
 21
115.39502
  0
LINE
  8
Engraving
 62
   7
 39
0.400
  6
CONTINUOUS
 10
65.55286
 20
115.39502
 30
 0
 11
65.55286
 21
115.21339
  0
LINE
  8
Engraving
 62
   7
 39
0.400
  6
CONTINUOUS
 10
67.26868
 20
115.09230
 30
 0
 11
67.26868
 21
115.39502
  0
LINE
  8
Engraving
 62
   7
 39
0.400
  6
CONTINUOUS
 10
67.26868
 20
115.39502
 30
 0
 11
67.24850
 21
115.53628
  0
LINE
  8
Engraving
 62
   7
 39
0.400
  6
CONTINUOUS
 10
67.24850
 20
115.53628
 30
 0
 11
67.18795
 21
115.67755
  0
LINE
  8
Engraving
 62
   7
 39
0.400
  6
CONTINUOUS
 10
67.18795
 20
115.67755
 30
 0
 11
67.08705
 21
115.75828
  0
LINE
  8
Engraving
 62
   7
 39
0.400
  6
CONTINUOUS
 10
67.08705
 20
115.75828
 30
 0
 11
66.98614
 21
115.81882
  0
LINE
  8
Engraving
 62
   7
 39
0.400
  6
CONTINUOUS
 10
66.98614
 20
115.81882
 30
 0
 11
66.86506
 21
115.85918
  0
LINE
  8
Engraving
 62
   7
 39
0.400
  6
CONTINUOUS
 10
66.86506
 20
115.85918
 30
 0
 11
66.58252
 21
115.85918
  0
LINE
  8
Engraving
 62
   7
 39
0.400
  6
CONTINUOUS
 10
66.58252
 20
115.85918
 30
 0
 11
66.40089
 21
115.83900
  0
LINE
  8
Engraving
 62
   7
 39
0.400
  6
CONTINUOUS
 10
66.40089
 20
115.83900
 30
 0
 11
66.25962
 21
115.73809
  0
LINE
  8
Engraving
 62
   7
 39
0.400
  6
CONTINUOUS
 10
66.25962
 20
115.73809
 30
 0
 11
66.17890
 21
115.61701
  0
LINE
  8
Engraving
 62
   7
 39
0.400
  6
CONTINUOUS
 10
66.17890
 20
115.61701
 30
 0
 11
66.11835
 21
115.45556
  0
LINE
  8
Engraving
 62
   7
 39
0.400
  6
CONTINUOUS
 10
66.11835
 20
115.45556
 30
 0
 11
66.11835
 21
113.74017
  0
LINE
  8
Engraving
 62
   7
 39
0.400
  6
CONTINUOUS
 10
66.11835
 20
113.74017
 30
 0
 11
66.15872
 21
113.55854
  0
LINE
  8
Engraving
 62
   7
 39
0.400
  6
CONTINUOUS
 10
66.15872
 20
113.55854
 30
 0
 11
66.21926
 21
113.43745
  0
LINE
  8
Engraving
 62
   7
 39
0.400
  6
CONTINUOUS
 10
66.21926
 20
113.43745
 30
 0
 11
66.34035
 21
113.33654
  0
LINE
  8
Engraving
 62
   7
 39
0.400
  6
CONTINUOUS
 10
66.34035
 20
113.33654
 30
 0
 11
66.44125
 21
113.27600
  0
LINE
  8
Engraving
 62
   7
 39
0.400
  6
CONTINUOUS
 10
66.44125
 20
113.27600
 30
 0
 11
66.60270
 21
113.25582
  0
LINE
  8
Engraving
 62
   7
 39
0.400
  6
CONTINUOUS
 10
66.60270
 20
113.25582
 30
 0
 11
66.80451
 21
113.25582
  0
LINE
  8
Engraving
 62
   7
 39
0.400
  6
CONTINUOUS
 10
66.80451
 20
113.25582
 30
 0
 11
66.94578
 21
113.27600
  0
LINE
  8
Engraving
 62
   7
 39
0.400
  6
CONTINUOUS
 10
66.94578
 20
113.27600
 30
 0
 11
67.10723
 21
113.35672
  0
LINE
  8
Engraving
 62
   7
 39
0.400
  6
CONTINUOUS
 10
67.10723
 20
113.35672
 30
 0
 11
67.20813
 21
113.45763
  0
LINE
  8
Engraving
 62
   7
 39
0.400
  6
CONTINUOUS
 10
67.20813
 20
113.45763
 30
 0
 11
67.28886
 21
113.61908
  0
LINE
  8
Engraving
 62
   7
 39
0.400
  6
CONTINUOUS
 10
67.28886
 20
113.61908
 30
 0
 11
67.28886
 21
113.74017
  0
LINE
  8
Engraving
 62
   7
 39
0.400
  6
CONTINUOUS
 10
67.28886
 20
113.74017
 30
 0
 11
67.28886
 21
113.98234
  0
LINE
  8
Engraving
 62
   7
 39
0.400
  6
CONTINUOUS
 10
69.81217
 20
114.56759
 30
 0
 11
69.81217
 21
113.74017
  0
LINE
  8
Engraving
 62
   7
 39
0.400
  6
CONTINUOUS
 10
69.81217
 20
113.74017
 30
 0
 11
69.85254
 21
113.53835
  0
LINE
  8
Engraving
 62
   7
 39
0.400
  6
CONTINUOUS
 10
69.85254
 20
113.53835
 30
 0
 11
69.93326
 21
113.41727
  0
LINE
  8
Engraving
 62
   7
 39
0.400
  6
CONTINUOUS
 10
69.93326
 20
113.41727
 30
 0
 11
70.03417
 21
113.33654
  0
LINE
  8
Engraving
 62
   7
 39
0.400
  6
CONTINUOUS
 10
70.03417
 20
113.33654
 30
 0
 11
70.17543
 21
113.25582
  0
LINE
  8
Engraving
 62
   7
 39
0.400
  6
CONTINUOUS
 10
70.17543
 20
113.25582
 30
 0
 11
70.29652
 21
113.25582
  0
LINE
  8
Engraving
 62
   7
 39
0.400
  6
CONTINUOUS
 10
70.29652
 20
113.25582
 30
 0
 11
70.61942
 21
113.25582
  0
LINE
  8
Engraving
 62
   7
 39
0.400
  6
CONTINUOUS
 10
70.61942
 20
113.25582
 30
 0
 11
70.80105
 21
113.27600
  0
LINE
  8
Engraving
 62
   7
 39
0.400
  6
CONTINUOUS
 10
70.80105
 20
113.27600
 30
 0
 11
70.94231
 21
113.35672
  0
LINE
  8
Engraving
 62
   7
 39
0.400
  6
CONTINUOUS
 10
70.94231
 20
113.35672
 30
 0
 11
71.06340
 21
113.51817
  0
LINE
  8
Engraving
 62
   7
 39
0.400
  6
CONTINUOUS
 10
71.06340
 20
113.51817
 30
 0
 11
71.12394
 21
113.74017
  0
LINE
  8
Engraving
 62
   7
 39
0.400
  6
CONTINUOUS
 10
71.12394
 20
113.74017
 30
 0
 11
71.12394
 21
115.37483
  0
LINE
  8
Engraving
 62
   7
 39
0.400
  6
CONTINUOUS
 10
71.12394
 20
115.37483
 30
 0
 11
71.08358
 21
115.53628
  0
LINE
  8
Engraving
 62
   7
 39
0.400
  6
CONTINUOUS
 10
71.08358
 20
115.53628
 30
 0
 11
71.00286
 21
115.69773
  0
LINE
  8
Engraving
 62
   7
 39
0.400
  6
CONTINUOUS
 10
71.00286
 20
115.69773
 30
 0
 11
70.90195
 21
115.77846
  0
LINE
  8
Engraving
 62
   7
 39
0.400
  6
CONTINUOUS
 10
70.90195
 20
115.77846
 30
 0
 11
70.80105
 21
115.83900
  0
LINE
  8
Engraving
 62
   7
 39
0.400
  6
CONTINUOUS
 10
70.80105
 20
115.83900
 30
 0
 11
70.61942
 21
115.85918
  0
LINE
  8
Engraving
 62
   7
 39
0.400
  6
CONTINUOUS
 10
70.61942
 20
115.85918
 30
 0
 11
70.29652
 21
115.85918
  0
LINE
  8
Engraving
 62
   7
 39
0.400
  6
CONTINUOUS
 10
70.29652
 20
115.85918
 30
 0
 11
70.13507
 21
115.83900
  0
LINE
  8
Engraving
 62
   7
 39
0.400
  6
CONTINUOUS
 10
70.13507
 20
115.83900
 30
 0
 11
69.99380
 21
115.75828
  0
LINE
  8
Engraving
 62
   7
 39
0.400
  6
CONTINUOUS
 10
69.99380
 20
115.75828
 30
 0
 11
69.89290
 21
115.65737
  0
LINE
  8
Engraving
 62
   7
 39
0.400
  6
CONTINUOUS
 10
69.89290
 20
115.65737
 30
 0
 11
69.83235
 21
115.53628
  0
LINE
  8
Engraving
 62
   7
 39
0.400
  6
CONTINUOUS
 10
69.83235
 20
115.53628
 30
 0
 11
69.81217
 21
115.37483
  0
LINE
  8
Engraving
 62
   7
 39
0.400
  6
CONTINUOUS
 10
69.81217
 20
115.37483
 30
 0
 11
69.81217
 21
114.56759
  0
LINE
  8
Engraving
 62
   7
 39
0.400
  6
CONTINUOUS
 10
71.64835
 20
115.83900
 30
 0
 11
71.64835
 21
113.76035
  0
LINE
  8
Engraving
 62
   7
 39
0.400
  6
CONTINUOUS
 10
71.64835
 20
113.76035
 30
 0
 11
71.70890
 21
113.51817
  0
LINE
  8
Engraving
 62
   7
 39
0.400
  6
CONTINUOUS
 10
71.70890
 20
113.51817
 30
 0
 11
71.78962
 21
113.39709
  0
LINE
  8
Engraving
 62
   7
 39
0.400
  6
CONTINUOUS
 10
71.78962
 20
113.39709
 30
 0
 11
71.95107
 21
113.29618
  0
LINE
  8
Engraving
 62
   7
 39
0.400
  6
CONTINUOUS
 10
71.95107
 20
113.29618
 30
 0
 11
72.15288
 21
113.25582
  0
LINE
  8
Engraving
 62
   7
 39
0.400
  6
CONTINUOUS
 10
72.15288
 20
113.25582
 30
 0
 11
72.41524
 21
113.25582
  0
LINE
  8
Engraving
 62
   7
 39
0.400
  6
CONTINUOUS
 10
72.41524
 20
113.25582
 30
 0
 11
72.57669
 21
113.27600
  0
LINE
  8
Engraving
 62
   7
 39
0.400
  6
CONTINUOUS
 10
72.57669
 20
113.27600
 30
 0
 11
72.75831
 21
113.37691
  0
LINE
  8
Engraving
 62
   7
 39
0.400
  6
CONTINUOUS
 10
72.75831
 20
113.37691
 30
 0
 11
72.89958
 21
113.55854
  0
LINE
  8
Engraving
 62
   7
 39
0.400
  6
CONTINUOUS
 10
72.89958
 20
113.55854
 30
 0
 11
72.93994
 21
113.76035
  0
LINE
  8
Engraving
 62
   7
 39
0.400
  6
CONTINUOUS
 10
72.93994
 20
113.76035
 30
 0
 11
72.93994
 21
115.83900
  0
LINE
  8
Engraving
 62
   7
 39
0.400
  6
CONTINUOUS
 10
74.13033
 20
113.27700
 30
 0
 11
74.13033
 21
115.84000
  0
LINE
  8
Engraving
 62
   7
 39
0.400
  6
CONTINUOUS
 10
73.44417
 20
115.84000
 30
 0
 11
74.83667
 21
115.84000
  0
LINE
  8
Engraving
 62
   7
 39
0.400
  6
CONTINUOUS
 10
52.06668
 20
64.03530
 30
 0
 11
52.06668
 21
64.33802
  0
LINE
  8
Engraving
 62
   7
 39
0.400
  6
CONTINUOUS
 10
52.06668
 20
64.33802
 30
 0
 11
52.04650
 21
64.47928
  0
LINE
  8
Engraving
 62
   7
 39
0.400
  6
CONTINUOUS
 10
52.04650
 20
64.47928
 30
 0
 11
51.98595
 21
64.62055
  0
LINE
  8
Engraving
 62
   7
 39
0.400
  6
CONTINUOUS
 10
51.98595
 20
64.62055
 30
 0
 11
51.88505
 21
64.70128
  0
LINE
  8
Engraving
 62
   7
 39
0.400
  6
CONTINUOUS
 10
51.88505
 20
64.70128
 30
 0
 11
51.78414
 21
64.76182
  0
LINE
  8
Engraving
 62
   7
 39
0.400
  6
CONTINUOUS
 10
51.78414
 20
64.76182
 30
 0
 11
51.66306
 21
64.80218
  0
LINE
  8
Engraving
 62
   7
 39
0.400
  6
CONTINUOUS
 10
51.66306
 20
64.80218
 30
 0
 11
51.38052
 21
64.80218
  0
LINE
  8
Engraving
 62
   7
 39
0.400
  6
CONTINUOUS
 10
51.38052
 20
64.80218
 30
 0
 11
51.19889
 21
64.78200
  0
LINE
  8
Engraving
 62
   7
 39
0.400
  6
CONTINUOUS
 10
51.19889
 20
64.78200
 30
 0
 11
51.05762
 21
64.68109
  0
LINE
  8
Engraving
 62
   7
 39
0.400
  6
CONTINUOUS
 10
51.05762
 20
64.68109
 30
 0
 11
50.97690
 21
64.56001
  0
LINE
  8
Engraving
 62
   7
 39
0.400
  6
CONTINUOUS
 10
50.97690
 20
64.56001
 30
 0
 11
50.91635
 21
64.39856
  0
LINE
  8
Engraving
 62
   7
 39
0.400
  6
CONTINUOUS
 10
50.91635
 20
64.39856
 30
 0
 11
50.91635
 21
62.68317
  0
LINE
  8
Engraving
 62
   7
 39
0.400
  6
CONTINUOUS
 10
50.91635
 20
62.68317
 30
 0
 11
50.95672
 21
62.50154
  0
LINE
  8
Engraving
 62
   7
 39
0.400
  6
CONTINUOUS
 10
50.95672
 20
62.50154
 30
 0
 11
51.01726
 21
62.38045
  0
LINE
  8
Engraving
 62
   7
 39
0.400
  6
CONTINUOUS
 10
51.01726
 20
62.38045
 30
 0
 11
51.13835
 21
62.27954
  0
LINE
  8
Engraving
 62
   7
 39
0.400
  6
CONTINUOUS
 10
51.13835
 20
62.27954
 30
 0
 11
51.23925
 21
62.21900
  0
LINE
  8
Engraving
 62
   7
 39
0.400
  6
CONTINUOUS
 10
51.23925
 20
62.21900
 30
 0
 11
51.40070
 21
62.19882
  0
LINE
  8
Engraving
 62
   7
 39
0.400
  6
CONTINUOUS
 10
51.40070
 20
62.19882
 30
 0
 11
51.60251
 21
62.19882
  0
LINE
  8
Engraving
 62
   7
 39
0.400
  6
CONTINUOUS
 10
51.60251
 20
62.19882
 30
 0
 11
51.74378
 21
62.21900
  0
LINE
  8
Engraving
 62
   7
 39
0.400
  6
CONTINUOUS
 10
51.74378
 20
62.21900
 30
 0
 11
51.90523
 21
62.29972
  0
LINE
  8
Engraving
 62
   7
 39
0.400
  6
CONTINUOUS
 10
51.90523
 20
62.29972
 30
 0
 11
52.00613
 21
62.40063
  0
LINE
  8
Engraving
 62
   7
 39
0.400
  6
CONTINUOUS
 10
52.00613
 20
62.40063
 30
 0
 11
52.08686
 21
62.56208
  0
LINE
  8
Engraving
 62
   7
 39
0.400
  6
CONTINUOUS
 10
52.08686
 20
62.56208
 30
 0
 11
52.08686
 21
62.68317
  0
LINE
  8
Engraving
 62
   7
 39
0.400
  6
CONTINUOUS
 10
52.08686
 20
62.68317
 30
 0
 11
52.08686
 21
62.92534
  0
LINE
  8
Engraving
 62
   7
 39
0.400
  6
CONTINUOUS
 10
52.61235
 20
64.78200
 30
 0
 11
53.33887
 21
62.21900
  0
LINE
  8
Engraving
 62
   7
 39
0.400
  6
CONTINUOUS
 10
53.33887
 20
62.21900
 30
 0
 11
54.06539
 21
64.78200
  0
LINE
  8
Engraving
 62
   7
 39
0.400
  6
CONTINUOUS
 10
62.34235
 20
64.78200
 30
 0
 11
62.34235
 21
62.21900
  0
LINE
  8
Engraving
 62
   7
 39
0.400
  6
CONTINUOUS
 10
62.84717
 20
62.21900
 30
 0
 11
62.84717
 21
64.78200
  0
LINE
  8
Engraving
 62
   7
 39
0.400
  6
CONTINUOUS
 10
62.84717
 20
64.78200
 30
 0
 11
63.02880
 21
64.78200
  0
LINE
  8
Engraving
 62
   7
 39
0.400
  6
CONTINUOUS
 10
63.02880
 20
64.78200
 30
 0
 11
64.23967
 21
62.21900
  0
LINE
  8
Engraving
 62
   7
 39
0.400
  6
CONTINUOUS
 10
64.23967
 20
62.21900
 30
 0
 11
64.23967
 21
64.78200
  0
LINE
  8
Engraving
 62
   7
 39
0.400
  6
CONTINUOUS
 10
71.57817
 20
63.51059
 30
 0
 11
71.57817
 21
62.68317
  0
LINE
  8
Engraving
 62
   7
 39
0.400
  6
CONTINUOUS
 10
71.57817
 20
62.68317
 30
 0
 11
71.61854
 21
62.48135
  0
LINE
  8
Engraving
 62
   7
 39
0.400
  6
CONTINUOUS
 10
71.61854
 20
62.48135
 30
 0
 11
71.69926
 21
62.36027
  0
LINE
  8
Engraving
 62
   7
 39
0.400
  6
CONTINUOUS
 10
71.69926
 20
62.36027
 30
 0
 11
71.80017
 21
62.27954
  0
LINE
  8
Engraving
 62
   7
 39
0.400
  6
CONTINUOUS
 10
71.80017
 20
62.27954
 30
 0
 11
71.94143
 21
62.19882
  0
LINE
  8
Engraving
 62
   7
 39
0.400
  6
CONTINUOUS
 10
71.94143
 20
62.19882
 30
 0
 11
72.06252
 21
62.19882
  0
LINE
  8
Engraving
 62
   7
 39
0.400
  6
CONTINUOUS
 10
72.06252
 20
62.19882
 30
 0
 11
72.38542
 21
62.19882
  0
LINE
  8
Engraving
 62
   7
 39
0.400
  6
CONTINUOUS
 10
72.38542
 20
62.19882
 30
 0
 11
72.56705
 21
62.21900
  0
LINE
  8
Engraving
 62
   7
 39
0.400
  6
CONTINUOUS
 10
72.56705
 20
62.21900
 30
 0
 11
72.70831
 21
62.29972
  0
LINE
  8
Engraving
 62
   7
 39
0.400
  6
CONTINUOUS
 10
72.70831
 20
62.29972
 30
 0
 11
72.82940
 21
62.46117
  0
LINE
  8
Engraving
 62
   7
 39
0.400
  6
CONTINUOUS
 10
72.82940
 20
62.46117
 30
 0
 11
72.88994
 21
62.68317
  0
LINE
  8
Engraving
 62
   7
 39
0.400
  6
CONTINUOUS
 10
72.88994
 20
62.68317
 30
 0
 11
72.88994
 21
64.31783
  0
LINE
  8
Engraving
 62
   7
 39
0.400
  6
CONTINUOUS
 10
72.88994
 20
64.31783
 30
 0
 11
72.84958
 21
64.47928
  0
LINE
  8
Engraving
 62
   7
 39
0.400
  6
CONTINUOUS
 10
72.84958
 20
64.47928
 30
 0
 11
72.76886
 21
64.64073
  0
LINE
  8
Engraving
 62
   7
 39
0.400
  6
CONTINUOUS
 10
72.76886
 20
64.64073
 30
 0
 11
72.66795
 21
64.72146
  0
LINE
  8
Engraving
 62
   7
 39
0.400
  6
CONTINUOUS
 10
72.66795
 20
64.72146
 30
 0
 11
72.56705
 21
64.78200
  0
LINE
  8
Engraving
 62
   7
 39
0.400
  6
CONTINUOUS
 10
72.56705
 20
64.78200
 30
 0
 11
72.38542
 21
64.80218
  0
LINE
  8
Engraving
 62
   7
 39
0.400
  6
CONTINUOUS
 10
72.38542
 20
64.80218
 30
 0
 11
72.06252
 21
64.80218
  0
LINE
  8
Engraving
 62
   7
 39
0.400
  6
CONTINUOUS
 10
72.06252
 20
64.80218
 30
 0
 11
71.90107
 21
64.78200
  0
LINE
  8
Engraving
 62
   7
 39
0.400
  6
CONTINUOUS
 10
71.90107
 20
64.78200
 30
 0
 11
71.75980
 21
64.70128
  0
LINE
  8
Engraving
 62
   7
 39
0.400
  6
CONTINUOUS
 10
71.75980
 20
64.70128
 30
 0
 11
71.65890
 21
64.60037
  0
LINE
  8
Engraving
 62
   7
 39
0.400
  6
CONTINUOUS
 10
71.65890
 20
64.60037
 30
 0
 11
71.59835
 21
64.47928
  0
LINE
  8
Engraving
 62
   7
 39
0.400
  6
CONTINUOUS
 10
71.59835
 20
64.47928
 30
 0
 11
71.57817
 21
64.31783
  0
LINE
  8
Engraving
 62
   7
 39
0.400
  6
CONTINUOUS
 10
71.57817
 20
64.31783
 30
 0
 11
71.57817
 21
63.51059
  0
LINE
  8
Engraving
 62
   7
 39
0.400
  6
CONTINUOUS
 10
73.41535
 20
64.78200
 30
 0
 11
73.41535
 21
62.70335
  0
LINE
  8
Engraving
 62
   7
 39
0.400
  6
CONTINUOUS
 10
73.41535
 20
62.70335
 30
 0
 11
73.47590
 21
62.46117
  0
LINE
  8
Engraving
 62
   7
 39
0.400
  6
CONTINUOUS
 10
73.47590
 20
62.46117
 30
 0
 11
73.55662
 21
62.34009
  0
LINE
  8
Engraving
 62
   7
 39
0.400
  6
CONTINUOUS
 10
73.55662
 20
62.34009
 30
 0
 11
73.71807
 21
62.23918
  0
LINE
  8
Engraving
 62
   7
 39
0.400
  6
CONTINUOUS
 10
73.71807
 20
62.23918
 30
 0
 11
73.91988
 21
62.19882
  0
LINE
  8
Engraving
 62
   7
 39
0.400
  6
CONTINUOUS
 10
73.91988
 20
62.19882
 30
 0
 11
74.18224
 21
62.19882
  0
LINE
  8
Engraving
 62
   7
 39
0.400
  6
CONTINUOUS
 10
74.18224
 20
62.19882
 30
 0
 11
74.34369
 21
62.21900
  0
LINE
  8
Engraving
 62
   7
 39
0.400
  6
CONTINUOUS
 10
74.34369
 20
62.21900
 30
 0
 11
74.52531
 21
62.31991
  0
LINE
  8
Engraving
 62
   7
 39
0.400
  6
CONTINUOUS
 10
74.52531
 20
62.31991
 30
 0
 11
74.66658
 21
62.50154
  0
LINE
  8
Engraving
 62
   7
 39
0.400
  6
CONTINUOUS
 10
74.66658
 20
62.50154
 30
 0
 11
74.70694
 21
62.70335
  0
LINE
  8
Engraving
 62
   7
 39
0.400
  6
CONTINUOUS
 10
74.70694
 20
62.70335
 30
 0
 11
74.70694
 21
64.78200
  0
LINE
  8
Engraving
 62
   7
 39
0.400
  6
CONTINUOUS
 10
75.89733
 20
62.22000
 30
 0
 11
75.89733
 21
64.78300
  0
LINE
  8
Engraving
 62
   7
 39
0.400
  6
CONTINUOUS
 10
75.21117
 20
64.78300
 30
 0
 11
76.60367
 21
64.78300
  0
LINE
  8
Engraving
 62
   7
 39
0.600
  6
CONTINUOUS
 10
36.56558
 20
82.16800
 30
 0
 11
37.65550
 21
78.32300
  0
LINE
  8
Engraving
 62
   7
 39
0.600
  6
CONTINUOUS
 10
37.65550
 20
78.32300
 30
 0
 11
38.74543
 21
82.16800
  0
LINE
  8
Engraving
 62
   7
 39
0.600
  6
CONTINUOUS
 10
41.25929
 20
81.04780
 30
 0
 11
41.25929
 21
81.50194
  0
LINE
  8
Engraving
 62
   7
 39
0.600
  6
CONTINUOUS
 10
41.25929
 20
81.50194
 30
 0
 11
41.22902
 21
81.71387
  0
LINE
  8
Engraving
 62
   7
 39
0.600
  6
CONTINUOUS
 10
41.22902
 20
81.71387
 30
 0
 11
41.13819
 21
81.92580
  0
LINE
  8
Engraving
 62
   7
 39
0.600
  6
CONTINUOUS
 10
41.13819
 20
81.92580
 30
 0
 11
40.98681
 21
82.04690
  0
LINE
  8
Engraving
 62
   7
 39
0.600
  6
CONTINUOUS
 10
40.98681
 20
82.04690
 30
 0
 11
40.83543
 21
82.13772
  0
LINE
  8
Engraving
 62
   7
 39
0.600
  6
CONTINUOUS
 10
40.83543
 20
82.13772
 30
 0
 11
40.65378
 21
82.19828
  0
LINE
  8
Engraving
 62
   7
 39
0.600
  6
CONTINUOUS
 10
40.65378
 20
82.19828
 30
 0
 11
40.22992
 21
82.19828
  0
LINE
  8
Engraving
 62
   7
 39
0.600
  6
CONTINUOUS
 10
40.22992
 20
82.19828
 30
 0
 11
39.95744
 21
82.16800
  0
LINE
  8
Engraving
 62
   7
 39
0.600
  6
CONTINUOUS
 10
39.95744
 20
82.16800
 30
 0
 11
39.74551
 21
82.01662
  0
LINE
  8
Engraving
 62
   7
 39
0.600
  6
CONTINUOUS
 10
39.74551
 20
82.01662
 30
 0
 11
39.62441
 21
81.83497
  0
LINE
  8
Engraving
 62
   7
 39
0.600
  6
CONTINUOUS
 10
39.62441
 20
81.83497
 30
 0
 11
39.53358
 21
81.59276
  0
LINE
  8
Engraving
 62
   7
 39
0.600
  6
CONTINUOUS
 10
39.53358
 20
81.59276
 30
 0
 11
39.53358
 21
79.01934
  0
LINE
  8
Engraving
 62
   7
 39
0.600
  6
CONTINUOUS
 10
39.53358
 20
79.01934
 30
 0
 11
39.59413
 21
78.74686
  0
LINE
  8
Engraving
 62
   7
 39
0.600
  6
CONTINUOUS
 10
39.59413
 20
78.74686
 30
 0
 11
39.68496
 21
78.56520
  0
LINE
  8
Engraving
 62
   7
 39
0.600
  6
CONTINUOUS
 10
39.68496
 20
78.56520
 30
 0
 11
39.86661
 21
78.41383
  0
LINE
  8
Engraving
 62
   7
 39
0.600
  6
CONTINUOUS
 10
39.86661
 20
78.41383
 30
 0
 11
40.01799
 21
78.32300
  0
LINE
  8
Engraving
 62
   7
 39
0.600
  6
CONTINUOUS
 10
40.01799
 20
78.32300
 30
 0
 11
40.26020
 21
78.29272
  0
LINE
  8
Engraving
 62
   7
 39
0.600
  6
CONTINUOUS
 10
40.26020
 20
78.29272
 30
 0
 11
40.56295
 21
78.29272
  0
LINE
  8
Engraving
 62
   7
 39
0.600
  6
CONTINUOUS
 10
40.56295
 20
78.29272
 30
 0
 11
40.77488
 21
78.32300
  0
LINE
  8
Engraving
 62
   7
 39
0.600
  6
CONTINUOUS
 10
40.77488
 20
78.32300
 30
 0
 11
41.01709
 21
78.44410
  0
LINE
  8
Engraving
 62
   7
 39
0.600
  6
CONTINUOUS
 10
41.01709
 20
78.44410
 30
 0
 11
41.16846
 21
78.59548
  0
LINE
  8
Engraving
 62
   7
 39
0.600
  6
CONTINUOUS
 10
41.16846
 20
78.59548
 30
 0
 11
41.28957
 21
78.83769
  0
LINE
  8
Engraving
 62
   7
 39
0.600
  6
CONTINUOUS
 10
41.28957
 20
78.83769
 30
 0
 11
41.28957
 21
79.01934
  0
LINE
  8
Engraving
 62
   7
 39
0.600
  6
CONTINUOUS
 10
41.28957
 20
79.01934
 30
 0
 11
41.28957
 21
79.38265
  0
LINE
  8
Engraving
 62
   7
 39
0.600
  6
CONTINUOUS
 10
42.07658
 20
78.32400
 30
 0
 11
43.16650
 21
82.16900
  0
LINE
  8
Engraving
 62
   7
 39
0.600
  6
CONTINUOUS
 10
43.16650
 20
82.16900
 30
 0
 11
43.28761
 21
82.16900
  0
LINE
  8
Engraving
 62
   7
 39
0.600
  6
CONTINUOUS
 10
43.28761
 20
82.16900
 30
 0
 11
44.37753
 21
78.32400
  0
LINE
  8
Engraving
 62
   7
 39
0.600
  6
CONTINUOUS
 10
42.40961
 20
79.50475
 30
 0
 11
44.04450
 21
79.50475
  0
LINE
  8
Engraving
 62
   7
 39
0.400
  6
CONTINUOUS
 10
13.80060
 20
96.06883
 30
 0
 11
13.80060
 21
92.67217
  0
LINE
  8
Engraving
 62
   7
 39
0.400
  6
CONTINUOUS
 10
13.80060
 20
82.39883
 30
 0
 11
13.80060
 21
79.00217
  0
LINE
  8
Engraving
 62
   7
 39
0.400
  6
CONTINUOUS
 10
13.80060
 20
48.10883
 30
 0
 11
13.80060
 21
44.71217
  0
LINE
  8
Engraving
 62
   7
 39
0.400
  6
CONTINUOUS
 10
13.80060
 20
34.14883
 30
 0
 11
13.80060
 21
30.75217
  0
CIRCLE
  8
Contour
 62
   7
 39
0.100
  6
CONTINUOUS
 10
7.50000
 20
125.50000
 30
 0
 40
1.50000
  0
CIRCLE
  8
Contour
 62
   7
 39
0.100
  6
CONTINUOUS
 10
7.50000
 20
3.00000
 30
 0
 40
1.50000
  0
CIRCLE
  8
Contour
 62
   7
 39
0.100
  6
CONTINUOUS
 10
68.46000
 20
125.50000
 30
 0
 40
1.50000
  0
CIRCLE
  8
Contour
 62
   7
 39
0.100
  6
CONTINUOUS
 10
68.46000
 20
3.00000
 30
 0
 40
1.50000
  0
CIRCLE
  8
Contour
 62
   7
 39
0.100
  6
CONTINUOUS
 10
13.80000
 20
24.99500
 30
 0
 40
3.75000
  0
CIRCLE
  8
Contour
 62
   7
 39
0.100
  6
CONTINUOUS
 10
26.50500
 20
24.99500
 30
 0
 40
3.75000
  0
CIRCLE
  8
Contour
 62
   7
 39
0.100
  6
CONTINUOUS
 10
39.20500
 20
24.99500
 30
 0
 40
3.75000
  0
CIRCLE
  8
Contour
 62
   7
 39
0.100
  6
CONTINUOUS
 10
51.90500
 20
24.99500
 30
 0
 40
3.75000
  0
CIRCLE
  8
Contour
 62
   7
 39
0.100
  6
CONTINUOUS
 10
13.80000
 20
38.96000
 30
 0
 40
3.75000
  0
CIRCLE
  8
Contour
 62
   7
 39
0.100
  6
CONTINUOUS
 10
26.50500
 20
38.96000
 30
 0
 40
3.75000
  0
CIRCLE
  8
Contour
 62
   7
 39
0.100
  6
CONTINUOUS
 10
39.20500
 20
38.96000
 30
 0
 40
3.75000
  0
CIRCLE
  8
Contour
 62
   7
 39
0.100
  6
CONTINUOUS
 10
51.90500
 20
38.96000
 30
 0
 40
3.75000
  0
CIRCLE
  8
Contour
 62
   7
 39
0.100
  6
CONTINUOUS
 10
13.80000
 20
52.93500
 30
 0
 40
3.75000
  0
CIRCLE
  8
Contour
 62
   7
 39
0.100
  6
CONTINUOUS
 10
13.80000
 20
73.25500
 30
 0
 40
3.75000
  0
CIRCLE
  8
Contour
 62
   7
 39
0.100
  6
CONTINUOUS
 10
13.80000
 20
87.22500
 30
 0
 40
3.75000
  0
CIRCLE
  8
Contour
 62
   7
 39
0.100
  6
CONTINUOUS
 10
13.80000
 20
101.51600
 30
 0
 40
3.75000
  0
CIRCLE
  8
Contour
 62
   7
 39
0.100
  6
CONTINUOUS
 10
26.50500
 20
87.22500
 30
 0
 40
3.75000
  0
CIRCLE
  8
Contour
 62
   7
 39
0.100
  6
CONTINUOUS
 10
26.50500
 20
73.25500
 30
 0
 40
3.75000
  0
CIRCLE
  8
Contour
 62
   7
 39
0.100
  6
CONTINUOUS
 10
63.29000
 20
106.27000
 30
 0
 40
3.00000
  0
CIRCLE
  8
Contour
 62
   7
 39
0.100
  6
CONTINUOUS
 10
74.09000
 20
106.27000
 30
 0
 40
3.00000
  0
CIRCLE
  8
Contour
 62
   7
 39
0.100
  6
CONTINUOUS
 10
52.49000
 20
87.22000
 30
 0
 40
3.00000
  0
CIRCLE
  8
Contour
 62
   7
 39
0.100
  6
CONTINUOUS
 10
63.29000
 20
87.22000
 30
 0
 40
3.00000
  0
CIRCLE
  8
Contour
 62
   7
 39
0.100
  6
CONTINUOUS
 10
74.09000
 20
87.22000
 30
 0
 40
3.00000
  0
CIRCLE
  8
Contour
 62
   7
 39
0.100
  6
CONTINUOUS
 10
52.49000
 20
73.25000
 30
 0
 40
3.00000
  0
CIRCLE
  8
Contour
 62
   7
 39
0.100
  6
CONTINUOUS
 10
63.29000
 20
73.25000
 30
 0
 40
3.00000
  0
CIRCLE
  8
Contour
 62
   7
 39
0.100
  6
CONTINUOUS
 10
74.09000
 20
73.25000
 30
 0
 40
3.00000
  0
CIRCLE
  8
Contour
 62
   7
 39
0.100
  6
CONTINUOUS
 10
63.28000
 20
38.96000
 30
 0
 40
3.00000
  0
CIRCLE
  8
Contour
 62
   7
 39
0.100
  6
CONTINUOUS
 10
63.28000
 20
24.99500
 30
 0
 40
3.00000
  0
CIRCLE
  8
Contour
 62
   7
 39
0.100
  6
CONTINUOUS
 10
74.09000
 20
38.96000
 30
 0
 40
3.00000
  0
CIRCLE
  8
Contour
 62
   7
 39
0.100
  6
CONTINUOUS
 10
74.09000
 20
24.99500
 30
 0
 40
3.00000
  0
ENDSEC
  0
EOF
